<?xml version="1.0" encoding="utf-8"?>
<!-- Generator: Adobe Illustrator 21.1.0, SVG Export Plug-In . SVG Version: 6.00 Build 0)  -->
<svg version="1.1" id="Layer_1" xmlns="http://www.w3.org/2000/svg" xmlns:xlink="http://www.w3.org/1999/xlink" x="0px" y="0px"
	 viewBox="0 0 152 170" style="enable-background:new 0 0 152 170;" xml:space="preserve">
<style type="text/css">
	.st0{fill:#796270;}
	.st1{fill:#6D2A3C;}
	.st2{fill:#9B9CBB;}
</style>
<title>archetype-logo-full</title>
<path class="st0" d="M22.9,160.4l-0.9-2.5h-0.1c-0.5,0.9-1.2,1.6-2,2.2c-0.8,0.4-1.7,0.6-2.6,0.6c-1.2,0-2.4-0.5-3.1-1.5
	c-0.8-1.2-1.2-2.7-1.1-4.2c-0.1-1.6,0.4-3.1,1.6-4.2c1.3-1,3-1.6,4.7-1.5l2.4-0.1v-1.3c0-1.7-0.7-2.5-2.2-2.5
	c-1.3,0.1-2.6,0.5-3.7,1.3l-1.5-3c1.8-1.1,3.8-1.7,5.9-1.7c1.6-0.1,3.2,0.5,4.4,1.6c1.1,1.3,1.6,3,1.5,4.7v12.2L22.9,160.4z
	 M19.1,157.3c0.8,0,1.5-0.4,1.9-1.1c0.5-0.9,0.8-1.8,0.7-2.8v-1.5l-1.3,0.1c-0.8,0-1.6,0.3-2.2,0.9c-0.5,0.6-0.8,1.5-0.7,2.3
	C17.5,156.6,18.1,157.3,19.1,157.3z"/>
<path class="st0" d="M37.3,141.9c0.5,0,1.1,0.1,1.6,0.2l-0.5,4.2c-0.4-0.1-0.8-0.2-1.2-0.2c-1,0-1.9,0.4-2.4,1.2
	c-0.6,1.1-0.9,2.4-0.8,3.6v9.3h-4.3v-18.1h3.6l0.5,2.8h0.2c0.3-0.9,0.9-1.8,1.6-2.4C35.9,142.2,36.6,141.9,37.3,141.9z"/>
<path class="st0" d="M46.8,160.7c-1.9,0.1-3.8-0.8-4.9-2.4c-1.1-1.6-1.7-3.9-1.7-6.9c0-3.2,0.5-5.6,1.6-7.1c1.1-1.6,3-2.5,5-2.4
	c0.7,0,1.4,0.1,2.1,0.3c0.7,0.2,1.4,0.5,2,0.9l-1.2,3.4c-0.7-0.5-1.5-0.7-2.4-0.8c-0.9,0-1.7,0.6-2,1.4c-0.5,1.4-0.7,2.9-0.6,4.3
	c-0.1,1.4,0.1,2.9,0.6,4.2c0.3,0.9,1.1,1.4,2,1.4c1.2,0,2.4-0.4,3.4-1.1v3.8C49.5,160.4,48.1,160.8,46.8,160.7z"/>
<path class="st0" d="M62.2,160.4v-10.8c0-2.7-0.7-4-2-4c-1,0-1.8,0.6-2.1,1.6c-0.5,1.5-0.7,3-0.6,4.5v8.7h-4.3v-25.3h4.3v5.6
	c0,0.7-0.1,2-0.2,3.9h0.2c0.6-1.6,2.2-2.7,4-2.7c1.5-0.1,2.9,0.5,3.8,1.7c1,1.5,1.4,3.2,1.3,5v11.8L62.2,160.4z"/>
<path class="st0" d="M76.7,160.7c-2.1,0.1-4.1-0.8-5.4-2.4c-1.3-1.6-2-3.9-2-6.8c-0.1-2.5,0.5-4.9,1.8-7c1.1-1.6,3-2.6,4.9-2.5
	c1.8-0.1,3.6,0.7,4.7,2.2c1.2,1.8,1.8,3.9,1.7,6v2.3h-8.7c-0.1,1.3,0.3,2.5,1,3.6c0.6,0.8,1.6,1.2,2.6,1.2c1.5,0,3-0.5,4.3-1.3v3.6
	C80.2,160.3,78.5,160.8,76.7,160.7z M76.1,145.3c-0.7,0-1.2,0.4-1.5,1c-0.5,0.9-0.7,2-0.7,3.1h4.4c0-1-0.2-2.1-0.6-3
	C77.4,145.7,76.8,145.3,76.1,145.3z"/>
<path class="st0" d="M91.7,157.1c0.7,0,1.4-0.2,2-0.4v3.4c-1,0.6-2.1,0.8-3.2,0.7c-1.3,0.1-2.6-0.4-3.5-1.4
	c-0.8-1.2-1.2-2.7-1.1-4.2v-9.4h-1.8v-1.9l2.3-1.6l1.1-3.8h2.8v3.9h3.3v3.4h-3.3v9.5C90.2,156.4,90.7,157.1,91.7,157.1z"/>
<path class="st0" d="M94.3,142.3h4.5l2.5,10.2c0.3,1.3,0.5,2.5,0.6,3.8h0.1c0-0.3,0.1-0.7,0.2-1.4c0.1-0.7,0.2-1.2,0.2-1.6
	c0.1-0.4,0.8-4.1,2.2-11.1h4.6l-5.2,19.4c-0.4,1.9-1.2,3.7-2.5,5.1c-1.1,1.1-2.6,1.6-4.2,1.6c-0.8,0-1.5-0.1-2.3-0.3v-3.6
	c0.5,0.1,1,0.2,1.5,0.2c1.5,0,2.4-1,2.9-2.9l0.3-1.1L94.3,142.3z"/>
<path class="st0" d="M119.1,160.7c-0.7,0-1.4-0.2-2.1-0.5c-0.7-0.5-1.3-1.1-1.7-1.9h-0.2c0.2,1.5,0.3,2.4,0.3,2.7v7.4H111v-26.1h3.3
	l0.8,2.4h0.2c0.6-1.6,2.2-2.7,3.9-2.7c1.7,0,3.2,1,3.9,2.4c1,2.2,1.5,4.5,1.4,6.9c0.1,2.4-0.4,4.8-1.4,6.9
	C122.3,159.7,120.8,160.7,119.1,160.7z M117.8,145.6c-0.8,0-1.5,0.4-1.8,1.2c-0.5,1.3-0.7,2.6-0.6,3.9v0.6c-0.1,1.5,0.1,3,0.6,4.4
	c0.3,0.8,1,1.4,1.9,1.4c1.5,0,2.3-1.9,2.3-5.8c0.1-1.4-0.1-2.9-0.6-4.2C119.3,146.2,118.6,145.6,117.8,145.6z"/>
<path class="st0" d="M134.2,160.7c-2.1,0.1-4.1-0.8-5.4-2.4c-1.3-1.6-2-3.9-2-6.8c-0.1-2.5,0.5-4.9,1.8-7c1.1-1.6,3-2.6,4.9-2.5
	c1.8-0.1,3.6,0.7,4.7,2.2c1.2,1.8,1.8,3.9,1.7,6v2.3h-8.7c-0.1,1.3,0.3,2.5,1,3.6c0.6,0.8,1.6,1.2,2.6,1.2c1.5,0,3-0.5,4.3-1.3v3.6
	C137.7,160.3,136,160.8,134.2,160.7z M133.6,145.3c-0.7,0-1.2,0.4-1.5,1c-0.5,0.9-0.7,2-0.7,3.1h4.4c0-1-0.2-2.1-0.6-3
	C134.9,145.7,134.3,145.3,133.6,145.3z"/>
<polygon class="st1" points="76.2,8.6 54.5,52 112.5,81 "/>
<polygon class="st2" points="76.2,129 136.5,129 112.5,81 76.2,99.1 "/>
<path class="st2" d="M48.8,121.3c3.1,0,5.9-1.6,7.5-4.2c1.8-2.9,2.7-6.2,2.8-9.5l-16.3,8.1C43.5,119.5,45.5,121.3,48.8,121.3z"/>
<path class="st0" d="M52.9,60.3c7.6,0,13.4,2.2,17.3,6.5s6,10.5,6,18.5v13.8l36.2-18l-58-29l-4.2,8.3C51.2,60.3,52,60.3,52.9,60.3z"
	/>
<path class="st0" d="M59.1,89v-5.1c0-6.7-2.9-10-8.7-10c-2.6,0.1-5.2,0.6-7.7,1.5l-9.1,18.2c4-2.4,9.3-3.8,15.9-4.2L59.1,89z"/>
<path class="st0" d="M59.1,99.8l-5.3,0.3c-3.9,0.2-6.8,1.3-8.6,3.3c-1.8,2-2.7,5-2.7,9c0,1.1,0.1,2.2,0.3,3.2l16.3-8.1
	c0-0.5,0-1.1,0-1.7L59.1,99.8z"/>
</svg>
