<svg xmlns="http://www.w3.org/2000/svg" viewBox="0 0 152 170"><defs><style>.a{fill:#9b9cbb;}</style></defs><title>archetype-logo-a-light</title><path class="a" d="M50.2,56.75c.88,0,1.76-.09,2.65-.09q11.39,0,17.35,6.53t6,18.51v43.75h60.31l-24.06-48L76.1,5,54.31,48.38h.06Z"/><path class="a" d="M59,85.44V80.29q0-10-8.69-10a22.36,22.36,0,0,0-7.65,1.53L33.58,90c4-2.45,9.27-3.85,15.92-4.16Z"/><path class="a" d="M42.42,108.87q0,8.88,6.31,8.88a8.61,8.61,0,0,0,7.5-4.22Q59,109.32,59,102.3V96.25l-5.28.26q-5.86.32-8.59,3.35T42.42,108.87Z"/><path class="a" d="M22.43,158.38l-.87-2.48h-.1a6.17,6.17,0,0,1-2,2.21,5.07,5.07,0,0,1-2.6.6,3.76,3.76,0,0,1-3.16-1.5A6.73,6.73,0,0,1,12.57,153a5.41,5.41,0,0,1,1.58-4.27,7.47,7.47,0,0,1,4.71-1.54l2.42-.1V145.8q0-2.55-2.21-2.55a7.54,7.54,0,0,0-3.76,1.27l-1.5-3a10.82,10.82,0,0,1,5.9-1.71,5.66,5.66,0,0,1,4.4,1.66,6.73,6.73,0,0,1,1.51,4.7v12.22Zm-3.77-3.07a2.18,2.18,0,0,0,1.9-1.07,5.08,5.08,0,0,0,.71-2.85v-1.54l-1.34.07a3,3,0,0,0-2.18.85,3.31,3.31,0,0,0-.69,2.29Q17.06,155.31,18.66,155.31Z"/><path class="a" d="M36.89,139.84a5.14,5.14,0,0,1,1.57.25L38,144.3a3.61,3.61,0,0,0-1.19-.16,2.77,2.77,0,0,0-2.43,1.25,6.46,6.46,0,0,0-.85,3.63v9.36H29.13v-18.2H32.7l.49,2.84h.15a6.6,6.6,0,0,1,1.57-2.45A2.93,2.93,0,0,1,36.89,139.84Z"/><path class="a" d="M46.41,158.7a5.71,5.71,0,0,1-5-2.37q-1.7-2.37-1.7-7,0-4.8,1.61-7.17a5.59,5.59,0,0,1,5-2.37,8.29,8.29,0,0,1,2.12.29,7.16,7.16,0,0,1,2,.85l-1.24,3.38a4.88,4.88,0,0,0-2.4-.8,2.07,2.07,0,0,0-2,1.45,11.69,11.69,0,0,0-.61,4.34,11.18,11.18,0,0,0,.6,4.22,2,2,0,0,0,2,1.4,6.34,6.34,0,0,0,3.41-1.14v3.82A7.06,7.06,0,0,1,46.41,158.7Z"/><path class="a" d="M61.87,158.38V147.53q0-4-2-4a2.15,2.15,0,0,0-2.11,1.58,13.22,13.22,0,0,0-.6,4.53v8.74H52.81V133h4.34v5.65q0,1.09-.2,3.9h.23a4.25,4.25,0,0,1,4-2.68A4.43,4.43,0,0,1,65,141.53a8.19,8.19,0,0,1,1.27,5V158.4Z"/><path class="a" d="M76.48,158.7a6.56,6.56,0,0,1-5.38-2.42q-2-2.43-2-6.87a12.08,12.08,0,0,1,1.78-7,5.73,5.73,0,0,1,5-2.53A5.66,5.66,0,0,1,80.56,142a9.55,9.55,0,0,1,1.71,6.07v2.32H73.54a5.93,5.93,0,0,0,1,3.62,3.16,3.16,0,0,0,2.61,1.18,8.47,8.47,0,0,0,4.34-1.32v3.58A9.55,9.55,0,0,1,76.48,158.7Zm-.64-15.51a1.77,1.77,0,0,0-1.54,1,6.65,6.65,0,0,0-.7,3.06H78a6.6,6.6,0,0,0-.6-3A1.74,1.74,0,0,0,75.84,143.19Z"/><path class="a" d="M91.47,155a5,5,0,0,0,2-.46V158a5.62,5.62,0,0,1-3.19.73,4.25,4.25,0,0,1-3.51-1.41,6.64,6.64,0,0,1-1.14-4.24v-9.42H83.84v-1.94l2.27-1.57,1.11-3.85H90v3.92h3.3v3.45H90v9.57Q90,155,91.47,155Z"/><path class="a" d="M94.15,140.18h4.51l2.51,10.27a23.45,23.45,0,0,1,.6,3.84h.1a13.72,13.72,0,0,1,.15-1.4c.09-.67.16-1.19.21-1.58s.81-4.09,2.25-11.14h4.57l-5.21,19.5a11.39,11.39,0,0,1-2.51,5.16,5.65,5.65,0,0,1-4.18,1.57,8.74,8.74,0,0,1-2.3-.28v-3.64a5.34,5.34,0,0,0,1.5.2q2.19,0,2.87-2.87l.31-1.14Z"/><path class="a" d="M119,158.7a4,4,0,0,1-2.08-.53,5.06,5.06,0,0,1-1.69-1.87H115q.26,2.22.26,2.68v7.43H110.9V140.18h3.36l.75,2.37h.2a4.26,4.26,0,0,1,3.94-2.71A4.31,4.31,0,0,1,123,142.3a14.14,14.14,0,0,1,1.4,6.95,13.92,13.92,0,0,1-1.45,6.94A4.43,4.43,0,0,1,119,158.7Zm-1.34-15.17a1.9,1.9,0,0,0-1.84,1.18,10.16,10.16,0,0,0-.6,3.93v.57a12.22,12.22,0,0,0,.57,4.38,2,2,0,0,0,1.89,1.37q2.29,0,2.29-5.78a12.06,12.06,0,0,0-.56-4.25,1.87,1.87,0,0,0-1.73-1.4Z"/><path class="a" d="M134.21,158.7a6.55,6.55,0,0,1-5.38-2.42q-2-2.43-2-6.87a12.08,12.08,0,0,1,1.78-7,5.73,5.73,0,0,1,5-2.53A5.66,5.66,0,0,1,138.3,142a9.54,9.54,0,0,1,1.71,6.07v2.32h-8.74a5.94,5.94,0,0,0,1,3.62,3.16,3.16,0,0,0,2.61,1.18,8.47,8.47,0,0,0,4.34-1.32v3.58A9.56,9.56,0,0,1,134.21,158.7Zm-.64-15.51a1.77,1.77,0,0,0-1.54,1,6.66,6.66,0,0,0-.7,3.06h4.41a6.59,6.59,0,0,0-.6-3A1.74,1.74,0,0,0,133.57,143.19Z"/></svg>