<svg xmlns="http://www.w3.org/2000/svg" xmlns:xlink="http://www.w3.org/1999/xlink" viewBox="0 0 315 140"><defs><style>.a{fill:url(#a);}.b{fill:#ea5b0c;}.c{fill:#1d1d1b;}.d{fill:#fff;}.e{fill:#164194;}.f{fill:#ffec00;}.g{fill:none;stroke:#9093b4;stroke-miterlimit:10;}</style><linearGradient id="a" x1="250.52" y1="55.52" x2="294.18" y2="55.52" gradientUnits="userSpaceOnUse"><stop offset="0" stop-color="#ea5b0c"/><stop offset="1" stop-color="#fff"/></linearGradient></defs><title>eu-flag-erc-rgb</title><path class="a" d="M256.37,43.5a2.69,2.69,0,1,0-3.8.32,2.69,2.69,0,0,0,3.8-.32m4,5.48a2.7,2.7,0,1,0-3.58-1.33A2.69,2.69,0,0,0,260.34,49Zm1.32,1.27A2.7,2.7,0,1,0,264.33,53,2.69,2.69,0,0,0,261.66,50.25ZM260,62.06a2.7,2.7,0,1,0-1.29-3.59A2.7,2.7,0,0,0,260,62.06Zm0,5a2.7,2.7,0,1,0-3.81-.2A2.69,2.69,0,0,0,260,67.1Zm-7.78-.47a2.7,2.7,0,1,0,3.39,1.74A2.7,2.7,0,0,0,252.25,66.63Zm9.2,8a2.31,2.31,0,1,0-3.25-.38A2.31,2.31,0,0,0,261.46,74.63Zm9.35-18.91A2.31,2.31,0,1,0,268.44,58,2.31,2.31,0,0,0,270.81,55.72Zm-4.1,8.6a2.31,2.31,0,1,0-1.48-2.91A2.31,2.31,0,0,0,266.7,64.32Zm.1,4.43a2.31,2.31,0,1,0-3.2.67A2.31,2.31,0,0,0,266.8,68.75ZM268,50.62A2.31,2.31,0,1,0,265,49.13,2.32,2.32,0,0,0,268,50.62Zm-2.52-10.46A2.31,2.31,0,1,0,265,43.4,2.31,2.31,0,0,0,265.43,40.16ZM257,38.6a2.31,2.31,0,1,0-.64-3.21A2.31,2.31,0,0,0,257,38.6Zm3.75-5.1a2,2,0,1,0-.54-2.8A2,2,0,0,0,260.77,33.5Zm6.7,3.18a2,2,0,1,0-2.85,0A2,2,0,0,0,267.47,36.67Zm.48,4a2,2,0,1,0,.59-2.79A2,2,0,0,0,268,40.69Zm3.29,1.57a2,2,0,1,0,2.65,1.05A2,2,0,0,0,271.24,42.27Zm.4,7.7a2,2,0,1,0,1.51-2.42A2,2,0,0,0,271.64,50Zm4.69,5.58a2,2,0,1,0-2,2A2,2,0,0,0,276.34,55.55Zm-.65,5.92A2,2,0,1,0,273.31,63,2,2,0,0,0,275.69,61.47ZM271.39,68a2,2,0,1,0-1.09-2.63A2,2,0,0,0,271.39,68ZM271,72.42a2,2,0,1,0-2.8.52A2,2,0,0,0,271,72.42Zm-3.7,4.41a2,2,0,1,0-2.85,0A2,2,0,0,0,267.29,76.83Zm-6.87.44a2,2,0,1,0,2.78.61A2,2,0,0,0,260.42,77.27Zm7.7-46.56a1.72,1.72,0,1,0-2.43,0A1.71,1.71,0,0,0,268.12,30.71Zm4.38,4.84a1.72,1.72,0,1,0-2.38-.49A1.72,1.72,0,0,0,272.5,35.55Zm1.09,4.62a1.71,1.71,0,1,0,.94-2.24A1.71,1.71,0,0,0,273.59,40.17ZM278,47a1.72,1.72,0,1,0-2-1.35A1.72,1.72,0,0,0,278,47Zm1,3.25A1.72,1.72,0,1,0,280.69,52,1.72,1.72,0,0,0,279,50.26Zm1.59,9.31a1.72,1.72,0,1,0-2.05,1.29A1.72,1.72,0,0,0,280.57,59.57Zm-3.65,7.2a1.72,1.72,0,1,0-.89-2.26A1.72,1.72,0,0,0,276.92,66.77Zm-.29,5.1a1.72,1.72,0,1,0-2.38.46A1.72,1.72,0,0,0,276.63,71.87Zm-4.06,5.95a1.72,1.72,0,1,0-2.43,0A1.72,1.72,0,0,0,272.57,77.82Zm-6.69,1.81a1.72,1.72,0,1,0,2.37.51A1.72,1.72,0,0,0,265.88,79.63Zm.57-55.06a1.63,1.63,0,1,0-.45-2.26A1.63,1.63,0,0,0,266.45,24.57Zm8,4.65a1.63,1.63,0,1,0-2.31,0A1.63,1.63,0,0,0,274.41,29.22Zm4.82,6.52a1.63,1.63,0,1,0-2.25-.49A1.63,1.63,0,0,0,279.23,35.74ZM280,41a1.63,1.63,0,1,0,.88-2.13A1.63,1.63,0,0,0,280,41Zm4,7.85a1.63,1.63,0,1,0-1.93-1.26A1.63,1.63,0,0,0,284,48.82Zm.5,4.39a1.63,1.63,0,1,0,1.64,1.62A1.63,1.63,0,0,0,284.49,53.21Zm-1.12,11.41a1.63,1.63,0,1,0-1.26-1.93A1.63,1.63,0,0,0,283.38,64.62Zm-1.27,4.1a1.63,1.63,0,1,0,.86,2.14A1.63,1.63,0,0,0,282.11,68.72Zm-2.74,8.81a1.63,1.63,0,1,0-2.26.44A1.63,1.63,0,0,0,279.37,77.53Zm-7.58,4a1.63,1.63,0,1,0,2.31,0A1.64,1.64,0,0,0,271.79,81.58ZM266,86.2a1.63,1.63,0,1,0,2.25.5A1.64,1.64,0,0,0,266,86.2Zm7.59-69.43a.84.84,0,1,0-1.16.21A.84.84,0,0,0,273.59,16.77Zm6.81,5.94a.84.84,0,1,0-1.18,0A.84.84,0,0,0,280.4,22.71Zm5.45,7a.84.84,0,1,0-1.16-.23A.84.84,0,0,0,285.85,29.67Zm3.53,6.59a.84.84,0,1,0,1.09.45A.84.84,0,0,0,289.38,36.26Zm3.08,9.88a.83.83,0,1,0-1-.64A.84.84,0,0,0,292.47,46.14Zm.87,7.63a.84.84,0,1,0,.84.83A.84.84,0,0,0,293.34,53.77Zm-.68,9.6a.84.84,0,1,0,.66,1A.84.84,0,0,0,292.65,63.37Zm-3,10.15a.83.83,0,1,0,.42,1.1A.84.84,0,0,0,289.69,73.52Zm-5.82,8.72a.84.84,0,1,0,1.17-.19A.84.84,0,0,0,283.86,82.24Zm-5.09,6a.84.84,0,1,0,1.18,0A.83.83,0,0,0,278.78,88.22ZM271.61,94a.84.84,0,1,0,1.16.24A.84.84,0,0,0,271.61,94Zm1.19-72.48a1,1,0,1,0,1.48,0A1,1,0,0,0,272.81,21.56Zm7,7.38a1,1,0,1,0-1.45-.3A1,1,0,0,0,279.82,28.94Zm4.68,7.49a1,1,0,1,0-1.36-.58A1,1,0,0,0,284.5,36.43ZM286,42.79a1,1,0,1,0,.81-1.23A1,1,0,0,0,286,42.79ZM288.6,49a1,1,0,1,0,1.07,1A1,1,0,0,0,288.6,49Zm-.85,9.86A1,1,0,1,0,289,58,1,1,0,0,0,287.75,58.84Zm-.2,7.71a1,1,0,1,0,.57,1.36A1,1,0,0,0,287.55,66.54Zm-3,9.82a1,1,0,1,0-1.45.27A1,1,0,0,0,284.57,76.36Zm-4.76,7a1,1,0,1,0-1.48,0A1,1,0,0,0,279.81,83.35Zm-7.43,4.42a1,1,0,1,0,1.44.31A1,1,0,0,0,272.39,87.77Z"/><path class="b" d="M250.59,40.27a2.7,2.7,0,1,1-1.87-3.32,2.69,2.69,0,0,1,1.87,3.32"/><path class="b" d="M244.33,70.58a2.7,2.7,0,1,1,2.44,2.93,2.7,2.7,0,0,1-2.44-2.93"/><path class="b" d="M238.52,68.72a2.7,2.7,0,1,1,1.12,3.64,2.7,2.7,0,0,1-1.12-3.64"/><path class="b" d="M233.71,64.55a2.7,2.7,0,1,1-.43,3.79,2.69,2.69,0,0,1,.43-3.79"/><path class="b" d="M231,58.83a2.69,2.69,0,1,1-1.91,3.3,2.7,2.7,0,0,1,1.91-3.3"/><path class="b" d="M230.72,52.76a2.69,2.69,0,1,1-3,2.32,2.69,2.69,0,0,1,3-2.32"/><path class="b" d="M232.93,46.85a2.69,2.69,0,1,1-3.7.92,2.69,2.69,0,0,1,3.7-.92"/><path class="b" d="M237.3,42.31a2.69,2.69,0,1,1-3.76-.62,2.7,2.7,0,0,1,3.76.62"/><path class="b" d="M243.83,39.76a2.7,2.7,0,1,1-3.1-2.21,2.7,2.7,0,0,1,3.1,2.21"/><path class="b" d="M248.43,77.7a2.31,2.31,0,1,1-2.32-2.31,2.31,2.31,0,0,1,2.32,2.31"/><path class="b" d="M255.41,75.79a2.31,2.31,0,1,1-2.93-1.46,2.31,2.31,0,0,1,2.93,1.46"/><path class="b" d="M243.66,32.86a2.31,2.31,0,1,1,2.24,2.38,2.31,2.31,0,0,1-2.24-2.38"/><path class="b" d="M250.5,33.06A2.31,2.31,0,1,1,252,36a2.31,2.31,0,0,1-1.46-2.93"/><path class="b" d="M236.84,34.79a2.31,2.31,0,1,1,2.89,1.53,2.31,2.31,0,0,1-2.89-1.53"/><path class="b" d="M230.59,39.05a2.31,2.31,0,1,1,3.24.45,2.31,2.31,0,0,1-3.24-.45"/><path class="b" d="M224,50.83A2.31,2.31,0,1,1,227,49.41,2.31,2.31,0,0,1,224,50.83"/><path class="b" d="M226.28,44.33a2.31,2.31,0,1,1,3.22-.6,2.31,2.31,0,0,1-3.22.6"/><path class="b" d="M223.65,57.77a2.31,2.31,0,1,1,2.4-2.23,2.31,2.31,0,0,1-2.4,2.23"/><path class="b" d="M225.48,64.65A2.31,2.31,0,1,1,227,61.78a2.31,2.31,0,0,1-1.57,2.87"/><path class="b" d="M229.49,70.6a2.31,2.31,0,1,1,.5-3.23,2.32,2.32,0,0,1-.5,3.23"/><path class="b" d="M240.71,77.31a2.31,2.31,0,1,1-1.38-3,2.31,2.31,0,0,1,1.38,3"/><path class="b" d="M234.87,74.93a2.31,2.31,0,1,1-.55-3.22,2.32,2.32,0,0,1,.55,3.22"/><path class="b" d="M248.13,27a2,2,0,1,1-2-2,2,2,0,0,1,2,2"/><path class="b" d="M253.62,27.92A2,2,0,1,1,252,25.54a2,2,0,0,1,1.58,2.37"/><path class="b" d="M258.57,29.8a2,2,0,1,1-1.12-2.62,2,2,0,0,1,1.12,2.62"/><path class="b" d="M217.74,53.36a2,2,0,1,1-2,2,2,2,0,0,1,2-2"/><path class="b" d="M218.66,47.86a2,2,0,1,1-2.36,1.6,2,2,0,0,1,2.36-1.6"/><path class="b" d="M220.51,42.9A2,2,0,1,1,217.89,44a2,2,0,0,1,2.62-1.13"/><path class="b" d="M223.62,37.88a2,2,0,1,1-2.79.57,2,2,0,0,1,2.79-.57"/><path class="b" d="M227.31,33.95a2,2,0,1,1-2.85,0,2,2,0,0,1,2.85,0"/><path class="b" d="M231.9,30.64a2,2,0,1,1-2.79-.57,2,2,0,0,1,2.79.57"/><path class="b" d="M236.57,28.51a2,2,0,1,1-2.66-1,2,2,0,0,1,2.66,1"/><path class="b" d="M242.06,27.25a2,2,0,1,1-2.43-1.49,2,2,0,0,1,2.43,1.49"/><path class="b" d="M244.15,83.54a2,2,0,1,1,2,2,2,2,0,0,1-2-2"/><path class="b" d="M238.64,82.62a2,2,0,1,1,1.6,2.36,2,2,0,0,1-1.6-2.36"/><path class="b" d="M233.69,80.77a2,2,0,1,1,1.13,2.61,2,2,0,0,1-1.13-2.61"/><path class="b" d="M228.66,77.65a2,2,0,1,1,.57,2.79,2,2,0,0,1-.57-2.79"/><path class="b" d="M224.74,74a2,2,0,1,1,0,2.85,2,2,0,0,1,0-2.85"/><path class="b" d="M221.44,69.37a2,2,0,1,1-.57,2.79,2,2,0,0,1,.57-2.79"/><path class="b" d="M219.3,64.7a2,2,0,1,1-1,2.65,2,2,0,0,1,1-2.65"/><path class="b" d="M218,59.2a2,2,0,1,1-1.49,2.43A2,2,0,0,1,218,59.2"/><path class="b" d="M255.11,82.11a2,2,0,1,1,2.64,1.07,2,2,0,0,1-2.64-1.07"/><path class="b" d="M249.59,83.29a2,2,0,1,1,2.4,1.53,2,2,0,0,1-2.4-1.53"/><path class="b" d="M244.1,22.18a1.72,1.72,0,1,1-1.72-1.72,1.72,1.72,0,0,1,1.72,1.72"/><path class="b" d="M251.77,22.66a1.72,1.72,0,1,1-1.27-2.07,1.71,1.71,0,0,1,1.27,2.07"/><path class="b" d="M257.74,24.33a1.72,1.72,0,1,1-.86-2.27,1.71,1.71,0,0,1,.86,2.27"/><path class="b" d="M263,26.92a1.71,1.71,0,1,1-.45-2.38,1.72,1.72,0,0,1,.45,2.38"/><path class="b" d="M260,85.18a1.72,1.72,0,1,1,2.24.94,1.72,1.72,0,0,1-2.24-.94"/><path class="b" d="M254,87.33a1.72,1.72,0,1,1,2,1.35,1.72,1.72,0,0,1-2-1.35"/><path class="b" d="M247.87,88.29A1.72,1.72,0,1,1,249.6,90a1.72,1.72,0,0,1-1.73-1.71"/><path class="b" d="M240.51,87.91a1.72,1.72,0,1,1,1.31,2,1.72,1.72,0,0,1-1.31-2"/><path class="b" d="M235.11,86.54a1.72,1.72,0,1,1,.94,2.24,1.72,1.72,0,0,1-.94-2.24"/><path class="b" d="M228,83.13a1.72,1.72,0,1,1,.39,2.4,1.72,1.72,0,0,1-.39-2.4"/><path class="b" d="M223.51,79.63a1.72,1.72,0,1,1,0,2.43,1.72,1.72,0,0,1,0-2.43"/><path class="b" d="M219.21,74.85a1.72,1.72,0,1,1-.49,2.38,1.72,1.72,0,0,1,.49-2.38"/><path class="b" d="M216.16,69.81a1.72,1.72,0,1,1-.91,2.25,1.71,1.71,0,0,1,.91-2.25"/><path class="b" d="M214.12,64.54a1.72,1.72,0,1,1-1.28,2.06,1.72,1.72,0,0,1,1.28-2.06"/><path class="b" d="M212.86,57.46a1.72,1.72,0,1,1-1.69,1.74,1.71,1.71,0,0,1,1.69-1.74"/><path class="b" d="M213.12,50.54a1.72,1.72,0,1,1-2,1.35,1.72,1.72,0,0,1,2-1.35"/><path class="b" d="M214.71,44.12a1.72,1.72,0,1,1-2.25.92,1.72,1.72,0,0,1,2.25-.92"/><path class="b" d="M217.58,38.07a1.72,1.72,0,1,1-2.39.45,1.72,1.72,0,0,1,2.39-.45"/><path class="b" d="M221.75,32.58a1.72,1.72,0,1,1-2.42-.05,1.71,1.71,0,0,1,2.42.05"/><path class="b" d="M226.3,28.55a1.72,1.72,0,1,1-2.38-.5,1.72,1.72,0,0,1,2.38.5"/><path class="b" d="M231.49,25.43a1.72,1.72,0,1,1-2.25-.92,1.72,1.72,0,0,1,2.25.92"/><path class="b" d="M237.62,23.18a1.72,1.72,0,1,1-2-1.34,1.71,1.71,0,0,1,2,1.34"/><path class="b" d="M239.92,17.23A1.63,1.63,0,1,1,238,16a1.63,1.63,0,0,1,1.92,1.28"/><path class="b" d="M247.78,16.78a1.63,1.63,0,1,1-1.62-1.64,1.63,1.63,0,0,1,1.62,1.64"/><path class="b" d="M256.71,18.25a1.63,1.63,0,1,1-1.19-2,1.63,1.63,0,0,1,1.19,2"/><path class="b" d="M262.8,20.58a1.63,1.63,0,1,1-.84-2.15,1.63,1.63,0,0,1,.84,2.15"/><path class="b" d="M259,91.5a1.63,1.63,0,1,1,2.12.91A1.63,1.63,0,0,1,259,91.5"/><path class="b" d="M252,93.28a1.63,1.63,0,1,1,1.91,1.29A1.63,1.63,0,0,1,252,93.28"/><path class="b" d="M243.74,93.67a1.63,1.63,0,1,1,1.6,1.66,1.63,1.63,0,0,1-1.6-1.66"/><path class="b" d="M236.4,92.51a1.63,1.63,0,1,1,1.25,1.94,1.63,1.63,0,0,1-1.25-1.94"/><path class="b" d="M229.15,89.84A1.63,1.63,0,1,1,230,92a1.63,1.63,0,0,1-.84-2.15"/><path class="b" d="M221.81,85.16a1.63,1.63,0,1,1,.33,2.28,1.63,1.63,0,0,1-.33-2.28"/><path class="b" d="M217.4,81a1.63,1.63,0,1,1,0,2.3,1.64,1.64,0,0,1,0-2.3"/><path class="b" d="M213,75.06a1.63,1.63,0,1,1-.47,2.25,1.63,1.63,0,0,1,.47-2.25"/><path class="b" d="M210.23,69.38a1.63,1.63,0,1,1-.84,2.15,1.63,1.63,0,0,1,.84-2.15"/><path class="b" d="M208.14,62A1.63,1.63,0,1,1,206.9,64,1.64,1.64,0,0,1,208.14,62"/><path class="b" d="M207.56,54a1.63,1.63,0,1,1-1.62,1.64A1.64,1.64,0,0,1,207.56,54"/><path class="b" d="M208.61,46.24a1.63,1.63,0,1,1-1.92,1.28,1.63,1.63,0,0,1,1.92-1.28"/><path class="b" d="M211,39.22a1.63,1.63,0,1,1-2.13.89,1.63,1.63,0,0,1,2.13-.89"/><path class="b" d="M214.81,32.73a1.63,1.63,0,1,1-2.26.46,1.64,1.64,0,0,1,2.26-.46"/><path class="b" d="M220.53,26.41a1.63,1.63,0,1,1-2.3-.05,1.63,1.63,0,0,1,2.3.05"/><path class="b" d="M226,22.36a1.63,1.63,0,1,1-2.26-.46,1.64,1.64,0,0,1,2.26.46"/><path class="b" d="M232.69,19.13a1.63,1.63,0,1,1-2.13-.88,1.63,1.63,0,0,1,2.13.88"/><path class="b" d="M242.76,12.56a1,1,0,1,1-1-1,1,1,0,0,1,1,1"/><path class="b" d="M246.72,7.93a.84.84,0,1,1-.83-.84.83.83,0,0,1,.83.84"/><path class="b" d="M257.89,9.43a.84.84,0,1,1-.61-1,.84.84,0,0,1,.61,1"/><path class="b" d="M266.48,12.57a.84.84,0,1,1-.41-1.11.84.84,0,0,1,.41,1.11"/><path class="b" d="M262.59,99.57a.83.83,0,1,1,1.08.47.84.84,0,0,1-1.08-.47"/><path class="b" d="M253.95,101.89a.83.83,0,1,1,1,.67.83.83,0,0,1-1-.67"/><path class="b" d="M244.12,102.52a.83.83,0,1,1,.81.86.84.84,0,0,1-.81-.86"/><path class="b" d="M234.23,101.06a.84.84,0,1,1,.62,1,.84.84,0,0,1-.62-1"/><path class="b" d="M225.49,97.86A.83.83,0,1,1,225.9,99a.83.83,0,0,1-.41-1.11"/><path class="b" d="M217.06,92.64a.83.83,0,1,1,.16,1.17.83.83,0,0,1-.16-1.17"/><path class="b" d="M210.91,86.93a.84.84,0,1,1,0,1.18.83.83,0,0,1,0-1.18"/><path class="b" d="M206,80.41a.83.83,0,1,1-.25,1.16.83.83,0,0,1,.25-1.16"/><path class="b" d="M202.56,73.91a.84.84,0,1,1-.42,1.1.83.83,0,0,1,.42-1.1"/><path class="b" d="M199.84,65.45a.84.84,0,1,1-.62,1,.84.84,0,0,1,.62-1"/><path class="b" d="M198.72,55a.83.83,0,1,1-.83.84.83.83,0,0,1,.83-.84"/><path class="b" d="M199.59,46.21a.83.83,0,1,1-1,.67.83.83,0,0,1,1-.67"/><path class="b" d="M202.48,36.77a.83.83,0,1,1-1.09.46.83.83,0,0,1,1.09-.46"/><path class="b" d="M207.17,28.26a.83.83,0,1,1-1.16.23.83.83,0,0,1,1.16-.23"/><path class="b" d="M213.52,20.87a.83.83,0,1,1-1.18,0,.83.83,0,0,1,1.18,0"/><path class="b" d="M220.81,15.21a.83.83,0,1,1-1.16-.25.84.84,0,0,1,1.16.25"/><path class="b" d="M229.39,11a.83.83,0,1,1-1.08-.47.83.83,0,0,1,1.08.47"/><path class="b" d="M237.3,8.74a.84.84,0,1,1-1-.65.83.83,0,0,1,1,.65"/><path class="b" d="M252.38,12.9a1,1,0,1,1-.78-1.25,1,1,0,0,1,.78,1.25"/><path class="b" d="M261,15.13a1,1,0,1,1-.51-1.39,1,1,0,0,1,.51,1.39"/><path class="b" d="M267.67,18.3a1,1,0,1,1-.26-1.45,1,1,0,0,1,.26,1.45"/><path class="b" d="M265.29,93.47a1,1,0,1,1,1.36.57,1,1,0,0,1-1.36-.57"/><path class="b" d="M257.56,96.47a1,1,0,1,1,1.23.82,1,1,0,0,1-1.23-.82"/><path class="b" d="M248.69,98a1,1,0,1,1,1,1.06,1,1,0,0,1-1-1.06"/><path class="b" d="M239.34,97.52a1,1,0,1,1,.77,1.26,1,1,0,0,1-.77-1.26"/><path class="b" d="M231.84,95.63a1,1,0,1,1,1.91.84,1,1,0,0,1-1.91-.84"/><path class="b" d="M223.4,91.57a1,1,0,1,1,.22,1.46,1,1,0,0,1-.22-1.46"/><path class="b" d="M216.89,86.59a1,1,0,1,1-.06,1.48,1,1,0,0,1,.06-1.48"/><path class="b" d="M211.91,81.08a1,1,0,1,1-.31,1.45,1,1,0,0,1,.31-1.45"/><path class="b" d="M208,75a1,1,0,1,1-.55,1.37A1,1,0,0,1,208,75"/><path class="b" d="M205.09,67.72A1,1,0,1,1,204.3,69a1,1,0,0,1,.79-1.25"/><path class="b" d="M203.36,58.55a1,1,0,1,1-1,1,1,1,0,0,1,1-1"/><path class="b" d="M203.5,50.44a1,1,0,1,1-1.22.83,1,1,0,0,1,1.22-.83"/><path class="b" d="M205.31,42.07a1,1,0,1,1-1.36.57,1,1,0,0,1,1.36-.57"/><path class="b" d="M208.73,34.24a1,1,0,1,1-1.45.29,1,1,0,0,1,1.45-.29"/><path class="b" d="M214.06,26.78a1,1,0,1,1-1.48,0,1,1,0,0,1,1.48,0"/><path class="b" d="M220.3,21a1,1,0,1,1-1.44-.32,1,1,0,0,1,1.44.32"/><path class="b" d="M227.1,16.85a1,1,0,1,1-1.35-.58,1,1,0,0,1,1.35.58"/><path class="b" d="M235,13.89a1,1,0,1,1-1.22-.83,1,1,0,0,1,1.22.83"/><path class="c" d="M256.89,60.83a12.39,12.39,0,0,1-10.39,5.41c-5.58,0-10.94-3.53-10.94-11.37,0-7.15,4.6-11.19,10.6-11.19,5.62,0,8,3.36,8.39,4,1.74,2.47,2.13,6.17,2.17,8.3H241c.6,3.36,2.68,5.28,6,5.28a6.21,6.21,0,0,0,5.53-2.94Zm-5.79-8.6c-.47-3.32-2.51-4.47-4.77-4.47-2.72,0-4.6,1.58-5.19,4.47Z"/><path class="c" d="M265.7,44.31v3c.64-1.11,2-3.62,6.81-3.49v5.24a7.81,7.81,0,0,0-4.6,1.28c-2.17,1.66-2.21,3.83-2.21,7.36v7.87h-4.94V44.31Z"/><path class="c" d="M288.68,51.85a5,5,0,0,0-4.81-3.62c-2.94,0-5.28,2.34-5.28,6.6,0,3.83,2,6.64,5.36,6.64s4.47-2.47,5.11-4.17l4.38,2.3a10.06,10.06,0,0,1-9.58,6.64c-5.92,0-10.56-4.55-10.56-11.28,0-6.51,4.68-11.28,10.73-11.28a9.82,9.82,0,0,1,9.19,6Z"/><polyline class="c" points="179.16 113.92 179.16 115.72 182.84 115.72 182.84 116.95 179.16 116.95 179.16 119 183.46 119 183.46 120.29 177.75 120.29 177.75 112.64 183.19 112.64 183.19 113.92 179.16 113.92"/><path class="c" d="M189.28,114.87v5.41H188v-.55a2.41,2.41,0,0,1-1.76.68,1.78,1.78,0,0,1-1.5-.63,2.62,2.62,0,0,1-.37-1.79v-3.13h1.31V118a2.09,2.09,0,0,0,0,.54,1,1,0,0,0,1,.68,1.19,1.19,0,0,0,1.05-.57,3,3,0,0,0,.22-1.46v-2.3h1.3"/><path class="c" d="M191.94,114.87v.77a1.68,1.68,0,0,1,1.73-.89v1.33a2,2,0,0,0-1.17.33c-.55.42-.56,1-.56,1.87v2h-1.25v-5.41h1.25"/><path class="c" d="M196.81,120.45a2.74,2.74,0,0,1-2.81-2.89,2.79,2.79,0,1,1,2.81,2.89m-.07-4.57a1.46,1.46,0,0,0-1.4,1.65,1.54,1.54,0,0,0,1.46,1.73c.94,0,1.42-.82,1.39-1.72A1.52,1.52,0,0,0,196.74,115.88Z"/><path class="c" d="M200.63,114.87h1.29v.5a1.92,1.92,0,0,1,1.49-.66c1.59,0,2.46,1.43,2.46,2.92a2.56,2.56,0,0,1-2.46,2.81,2.12,2.12,0,0,1-1.49-.61v2.21h-1.29v-7.18m2.6,4.35c.63,0,1.31-.43,1.31-1.66s-.94-1.61-1.33-1.61c-.6,0-1.28.43-1.3,1.59S202.5,119.23,203.23,119.23Z"/><path class="c" d="M212,119.08a3.15,3.15,0,0,1-2.64,1.37,2.67,2.67,0,0,1-2.78-2.89,2.61,2.61,0,0,1,2.7-2.85,2.45,2.45,0,0,1,2.13,1,4,4,0,0,1,.55,2.11h-4a1.46,1.46,0,0,0,1.54,1.34,1.58,1.58,0,0,0,1.41-.75l1.1.64m-1.47-2.19a1.16,1.16,0,0,0-1.21-1.14,1.28,1.28,0,0,0-1.32,1.14Z"/><path class="c" d="M212.86,116.47a1.76,1.76,0,0,1,.21-.81,2.42,2.42,0,0,1,2.16-.94,3.27,3.27,0,0,1,1.62.35,1.44,1.44,0,0,1,.65,1.48v2.87a1.13,1.13,0,0,0,.24.88H216.2c0-.13,0-.35,0-.42a2.55,2.55,0,0,1-1.6.55,1.76,1.76,0,0,1-2-1.69,1.66,1.66,0,0,1,.17-.74,2.24,2.24,0,0,1,1.74-1,12.47,12.47,0,0,0,1.68-.4c0-.27,0-.83-.92-.83a1.15,1.15,0,0,0-1,.35.65.65,0,0,0-.13.48l-1.33-.08m3.35,1.13a3.76,3.76,0,0,1-1.14.32c-.47.06-1.08.17-1.08.75,0,.42.36.64.88.64a1.34,1.34,0,0,0,1.27-.63,1.09,1.09,0,0,0,.08-.49Z"/><path class="c" d="M218.88,114.87h1.31v.64a1.48,1.48,0,0,1,.42-.42,2.25,2.25,0,0,1,1.25-.38,1.78,1.78,0,0,1,1.42.65,2.87,2.87,0,0,1,.33,1.74v3.18h-1.29v-2.76a3.84,3.84,0,0,0,0-.82.89.89,0,0,0-.89-.73,1.14,1.14,0,0,0-1,.61,3.12,3.12,0,0,0-.21,1.35v2.35h-1.31v-5.41"/><path class="c" d="M228.09,112.64h2.44a3.42,3.42,0,0,1,2.37.55,2.33,2.33,0,0,1,.85,1.88,2.09,2.09,0,0,1-1.51,2.1l1.7,3.11h-1.64l-1.52-2.83h-1.28v2.83h-1.42v-7.64m1.42,1.24v2.39h.5c.49,0,.67,0,.94,0a1.19,1.19,0,0,0,1.34-1.18,1.1,1.1,0,0,0-.61-1,3.54,3.54,0,0,0-1.52-.16Z"/><path class="c" d="M240,119.08a3.15,3.15,0,0,1-2.64,1.37,2.67,2.67,0,0,1-2.78-2.89,2.61,2.61,0,0,1,2.7-2.85,2.45,2.45,0,0,1,2.13,1,4,4,0,0,1,.55,2.11h-4a1.46,1.46,0,0,0,1.54,1.34,1.59,1.59,0,0,0,1.41-.75l1.1.64m-1.47-2.19a1.16,1.16,0,0,0-1.21-1.14,1.28,1.28,0,0,0-1.32,1.14Z"/><path class="c" d="M241.5,118.69a1.89,1.89,0,0,0,1.56.69c.75,0,1.07-.37,1.07-.64s-.39-.43-.56-.47-1.07-.21-1.27-.26c-1.29-.3-1.53-1-1.53-1.54,0-.92.83-1.76,2.32-1.76a3.06,3.06,0,0,1,1.79.52,2.41,2.41,0,0,1,.55.49l-.92.86a1.52,1.52,0,0,0-1.47-.82c-.62,0-.9.27-.9.55s.4.5,1.09.62c1.13.21,1.44.26,1.79.53a1.47,1.47,0,0,1,.55,1.15c0,.84-.76,1.85-2.44,1.85a3.71,3.71,0,0,1-2.6-1l1-.8"/><path class="c" d="M251.73,119.08a3.15,3.15,0,0,1-2.64,1.37,2.67,2.67,0,0,1-2.78-2.89,2.61,2.61,0,0,1,2.69-2.85,2.44,2.44,0,0,1,2.13,1,4.06,4.06,0,0,1,.55,2.11h-4a1.46,1.46,0,0,0,1.54,1.34,1.58,1.58,0,0,0,1.41-.75l1.1.64m-1.47-2.19a1.16,1.16,0,0,0-1.21-1.14,1.28,1.28,0,0,0-1.32,1.14Z"/><path class="c" d="M252.56,116.47a1.76,1.76,0,0,1,.22-.81,2.42,2.42,0,0,1,2.16-.94,3.27,3.27,0,0,1,1.62.35,1.44,1.44,0,0,1,.65,1.48v2.87a1.13,1.13,0,0,0,.24.88H255.9c0-.13,0-.35,0-.42a2.54,2.54,0,0,1-1.6.55,1.76,1.76,0,0,1-2-1.69,1.65,1.65,0,0,1,.17-.74,2.23,2.23,0,0,1,1.74-1,12.42,12.42,0,0,0,1.68-.4c0-.27,0-.83-.92-.83a1.15,1.15,0,0,0-1,.35.64.64,0,0,0-.13.48l-1.33-.08m3.35,1.13a3.77,3.77,0,0,1-1.14.32c-.47.06-1.08.17-1.08.75,0,.42.36.64.88.64a1.35,1.35,0,0,0,1.27-.63,1.1,1.1,0,0,0,.08-.49Z"/><path class="c" d="M259.85,114.87v.77a1.68,1.68,0,0,1,1.73-.89v1.33a2,2,0,0,0-1.17.33c-.55.42-.56,1-.56,1.87v2h-1.26v-5.41h1.26"/><path class="c" d="M265.69,116.79a1.26,1.26,0,0,0-1.22-.92c-.75,0-1.34.59-1.34,1.68s.51,1.69,1.36,1.69a1.37,1.37,0,0,0,1.3-1.06l1.11.59a2.56,2.56,0,0,1-2.44,1.69,2.69,2.69,0,0,1-2.69-2.87,2.74,2.74,0,0,1,2.73-2.87,2.5,2.5,0,0,1,2.34,1.54l-1.16.54"/><path class="c" d="M268.69,112.64v2.78a2.37,2.37,0,0,1,1.72-.71,2,2,0,0,1,1.48.58,2.17,2.17,0,0,1,.45,1.65v3.34h-1.28v-3a2.28,2.28,0,0,0-.08-.77.92.92,0,0,0-.94-.6,1.37,1.37,0,0,0-1.31,1,3.43,3.43,0,0,0,0,.87v2.49h-1.3v-7.64h1.3"/><path class="c" d="M283.24,118.15a4,4,0,0,1-.66,1.15,3.38,3.38,0,0,1-2.64,1.18c-2,0-3.57-1.48-3.57-4s1.68-4,3.63-4a3.06,3.06,0,0,1,3.12,2.36l-1.43.38a1.92,1.92,0,0,0-.28-.76,1.62,1.62,0,0,0-1.38-.67c-1.24,0-2.11,1-2.11,2.66s.92,2.71,2.12,2.71a1.75,1.75,0,0,0,1.46-.75,2.46,2.46,0,0,0,.4-.79l1.34.56"/><path class="c" d="M286.61,120.45a2.74,2.74,0,0,1-2.82-2.89,2.79,2.79,0,1,1,2.82,2.89m-.06-4.57a1.46,1.46,0,0,0-1.4,1.65,1.54,1.54,0,0,0,1.46,1.73c.94,0,1.42-.82,1.39-1.72A1.52,1.52,0,0,0,286.55,115.88Z"/><path class="c" d="M295.33,114.87v5.41H294v-.55a2.41,2.41,0,0,1-1.76.68,1.78,1.78,0,0,1-1.51-.63,2.63,2.63,0,0,1-.37-1.79v-3.13h1.31V118a2,2,0,0,0,0,.54,1,1,0,0,0,1,.68,1.19,1.19,0,0,0,1-.57,3,3,0,0,0,.22-1.46v-2.3h1.3"/><path class="c" d="M296.72,114.87H298v.64a1.52,1.52,0,0,1,.42-.42,2.25,2.25,0,0,1,1.25-.38,1.77,1.77,0,0,1,1.42.65,2.85,2.85,0,0,1,.33,1.74v3.18h-1.29v-2.76a3.69,3.69,0,0,0,0-.82.88.88,0,0,0-.89-.73,1.14,1.14,0,0,0-1,.61,3.11,3.11,0,0,0-.21,1.35v2.35h-1.31v-5.41"/><path class="c" d="M306.3,116.79a1.26,1.26,0,0,0-1.22-.92c-.75,0-1.34.59-1.34,1.68s.51,1.69,1.37,1.69a1.37,1.37,0,0,0,1.3-1.06l1.12.59a2.56,2.56,0,0,1-2.44,1.69,2.69,2.69,0,0,1-2.69-2.87,2.74,2.74,0,0,1,2.73-2.87,2.5,2.5,0,0,1,2.34,1.54l-1.16.54"/><path class="c" d="M309.54,112.72V114h-1.29v-1.31h1.29m-1.29,2.15h1.29v5.41h-1.29Z"/><rect class="c" x="310.95" y="112.64" width="1.31" height="7.64"/><path class="c" d="M177.81,135.46v-5.29h3.28v.51h-2.72v1.86h2.32V133h-2.32V135h2.72v.5Z"/><path class="c" d="M183.32,135.51a2,2,0,0,1-1.5-.53l.36-.36a1.49,1.49,0,0,0,1.14.42c.6,0,1-.22,1-.65s-.19-.5-.61-.53l-.6-.05c-.71-.06-1.09-.38-1.09-1s.56-1.07,1.34-1.07a2.07,2.07,0,0,1,1.31.39l-.35.35a1.56,1.56,0,0,0-1-.29c-.54,0-.82.23-.82.6s.18.5.64.53l.59.05c.64.06,1.08.3,1.08,1S184.2,135.51,183.32,135.51Z"/><path class="c" d="M186.8,135.46a.9.9,0,0,1-.94-1v-2.24h-.46v-.41h.46v-1.14h.54v1.14h.78v.41h-.78v2.23c0,.34.16.54.5.54h.28v.46Z"/><path class="c" d="M190.25,135.46v-.35a1.28,1.28,0,0,1-1.05.39,1.3,1.3,0,0,1-1-.34,1,1,0,0,1-.27-.74c0-.64.45-1.05,1.26-1.05h1.1V133c0-.53-.27-.8-.94-.8a1,1,0,0,0-.92.42l-.36-.33a1.42,1.42,0,0,1,1.29-.54c1,0,1.46.42,1.46,1.22v2.48Zm0-1.69h-1c-.55,0-.82.22-.82.65s.26.62.84.62a1.07,1.07,0,0,0,.82-.24.85.85,0,0,0,.19-.63Z"/><path class="c" d="M194.54,135.19a1.27,1.27,0,0,1-.89.32,1.17,1.17,0,0,1-1-.48v.44h-.53v-5.29h.53v2.06a1.17,1.17,0,0,1,1-.47,1.28,1.28,0,0,1,.89.32,2.93,2.93,0,0,1,0,3.11Zm-1-2.95c-.79,0-.92.68-.92,1.4s.13,1.4.92,1.4.91-.68.91-1.4S194.34,132.24,193.54,132.24Z"/><path class="c" d="M197,135.46a.87.87,0,0,1-.93-1v-4.32h.53v4.29c0,.36.12.54.49.54h.29v.46Z"/><path class="c" d="M198.31,130.77v-.6h.6v.6Zm0,4.69v-3.65h.53v3.65Z"/><path class="c" d="M201.37,135.51a2,2,0,0,1-1.5-.53l.36-.36a1.49,1.49,0,0,0,1.14.42c.6,0,1-.22,1-.65s-.19-.5-.61-.53l-.6-.05c-.71-.06-1.09-.38-1.09-1s.56-1.07,1.34-1.07a2.07,2.07,0,0,1,1.31.39l-.35.35a1.56,1.56,0,0,0-1-.29c-.54,0-.82.23-.82.6s.18.5.64.53l.59.05c.64.06,1.08.3,1.08,1S202.25,135.51,201.37,135.51Z"/><path class="c" d="M206.24,135.46V133.2a.84.84,0,0,0-.89-1,.86.86,0,0,0-.91,1v2.26h-.53v-5.29h.53v2a1.3,1.3,0,0,1,1-.45,1.24,1.24,0,0,1,1.31,1.35v2.35Z"/><path class="c" d="M208.4,133.77c0,.8.38,1.26,1.08,1.26a1.2,1.2,0,0,0,1-.42l.36.32a1.67,1.67,0,0,1-1.34.57c-1,0-1.6-.58-1.6-1.87s.57-1.87,1.5-1.87,1.5.68,1.5,1.77v.25Zm1.82-1a.94.94,0,0,0-1.71,0,1.54,1.54,0,0,0-.11.61h1.93A1.53,1.53,0,0,0,210.22,132.76Z"/><path class="c" d="M214.19,135.46V135a1.18,1.18,0,0,1-1,.48,1.28,1.28,0,0,1-.89-.32,2.93,2.93,0,0,1,0-3.11,1.28,1.28,0,0,1,.89-.32,1.17,1.17,0,0,1,1,.47v-2.06h.53v5.29Zm-.92-3.22c-.79,0-.92.68-.92,1.4s.13,1.4.92,1.4.91-.68.91-1.4S214.06,132.24,213.27,132.24Z"/><path class="c" d="M220.36,135.19a1.28,1.28,0,0,1-.89.32,1.17,1.17,0,0,1-1-.48v.44h-.53v-5.29h.53v2.06a1.17,1.17,0,0,1,1-.47,1.28,1.28,0,0,1,.89.32,2.93,2.93,0,0,1,0,3.11Zm-1-2.95c-.79,0-.92.68-.92,1.4s.13,1.4.92,1.4.91-.68.91-1.4S220.15,132.24,219.35,132.24Z"/><path class="c" d="M222.85,136.34a1.07,1.07,0,0,1-.26.43,1,1,0,0,1-.71.25h-.23v-.48h.16c.37,0,.48-.12.6-.45l.26-.71-1.31-3.58h.58l1,2.93,1-2.93h.58Z"/><path class="c" d="M228.14,135.46a.9.9,0,0,1-.94-1v-2.24h-.46v-.41h.46v-1.14h.53v1.14h.78v.41h-.78v2.23c0,.34.16.54.5.54h.28v.46Z"/><path class="c" d="M231.92,135.46V133.2a.84.84,0,0,0-.89-1,.86.86,0,0,0-.91,1v2.26h-.53v-5.29h.53v2a1.3,1.3,0,0,1,1-.45,1.24,1.24,0,0,1,1.31,1.35v2.35Z"/><path class="c" d="M234.08,133.77c0,.8.38,1.26,1.08,1.26a1.2,1.2,0,0,0,1-.42l.36.32a1.67,1.67,0,0,1-1.34.57c-1,0-1.6-.58-1.6-1.87s.57-1.87,1.5-1.87,1.5.68,1.5,1.77v.25Zm1.82-1a.94.94,0,0,0-1.71,0,1.54,1.54,0,0,0-.11.61H236A1.53,1.53,0,0,0,235.9,132.76Z"/><path class="c" d="M239.63,135.46v-5.29h3.28v.51h-2.72v1.86h2.32V133h-2.32V135h2.72v.5Z"/><path class="c" d="M246.3,135.46v-.41a1.34,1.34,0,0,1-1,.45,1.3,1.3,0,0,1-.94-.34,1.36,1.36,0,0,1-.37-1v-2.33h.53v2.25c0,.65.34,1,.89,1a.87.87,0,0,0,.91-1v-2.25h.53v3.65Z"/><path class="c" d="M250.2,132.5a.76.76,0,0,0-.63-.27.89.89,0,0,0-.88,1v2.24h-.53v-3.65h.53v.45a1.23,1.23,0,0,1,1-.49,1.12,1.12,0,0,1,.88.34Z"/><path class="c" d="M253.38,135.09a1.52,1.52,0,0,1-2.09,0,2.6,2.6,0,0,1,0-2.91,1.52,1.52,0,0,1,2.09,0,2.6,2.6,0,0,1,0,2.91ZM253,132.5a.94.94,0,0,0-.67-.27.92.92,0,0,0-.66.27,2.29,2.29,0,0,0,0,2.26.92.92,0,0,0,.66.27.94.94,0,0,0,.67-.27,2.34,2.34,0,0,0,0-2.26Z"/><path class="c" d="M257.42,135.19a1.28,1.28,0,0,1-.89.32,1.18,1.18,0,0,1-1-.48v2.06H255v-5.29h.54v.43a1.16,1.16,0,0,1,1-.48,1.28,1.28,0,0,1,.89.32,2.93,2.93,0,0,1,0,3.11Zm-1-2.95c-.79,0-.92.68-.92,1.4s.13,1.4.92,1.4.91-.68.91-1.4S257.21,132.24,256.42,132.24Z"/><path class="c" d="M259.34,133.77c0,.8.38,1.26,1.08,1.26a1.2,1.2,0,0,0,1-.42l.36.32a1.68,1.68,0,0,1-1.34.57c-1,0-1.6-.58-1.6-1.87s.57-1.87,1.5-1.87,1.5.68,1.5,1.77v.25Zm1.82-1a.94.94,0,0,0-1.71,0,1.57,1.57,0,0,0-.11.61h1.93A1.53,1.53,0,0,0,261.16,132.76Z"/><path class="c" d="M265,135.46v-.35a1.28,1.28,0,0,1-1.05.39,1.3,1.3,0,0,1-1-.34,1.05,1.05,0,0,1-.27-.74c0-.64.45-1.05,1.26-1.05H265V133c0-.53-.27-.8-.94-.8a1,1,0,0,0-.92.42l-.36-.33a1.42,1.42,0,0,1,1.29-.54c1,0,1.46.42,1.46,1.22v2.48Zm0-1.69h-1c-.55,0-.82.22-.82.65s.26.62.84.62a1.07,1.07,0,0,0,.82-.24.84.84,0,0,0,.19-.63Z"/><path class="c" d="M269.19,135.46v-2.25a.85.85,0,0,0-.9-1,.86.86,0,0,0-.91,1v2.25h-.53v-3.65h.53v.4a1.32,1.32,0,0,1,1-.45,1.28,1.28,0,0,1,.94.34,1.35,1.35,0,0,1,.38,1v2.34Z"/><path class="c" d="M274.62,135.51a1.89,1.89,0,0,1-1.35-.55c-.5-.5-.5-1-.5-2.14s0-1.64.5-2.14a1.88,1.88,0,0,1,1.35-.55,1.78,1.78,0,0,1,1.83,1.57h-.58a1.25,1.25,0,0,0-1.26-1.07,1.28,1.28,0,0,0-.91.37c-.33.34-.37.71-.37,1.81s0,1.47.37,1.81a1.28,1.28,0,0,0,.91.37,1.26,1.26,0,0,0,1.27-1.07h.56A1.78,1.78,0,0,1,274.62,135.51Z"/><path class="c" d="M279.95,135.09a1.52,1.52,0,0,1-2.09,0,2.6,2.6,0,0,1,0-2.91,1.52,1.52,0,0,1,2.09,0,2.6,2.6,0,0,1,0,2.91Zm-.38-2.58a.94.94,0,0,0-.67-.27.92.92,0,0,0-.66.27,2.29,2.29,0,0,0,0,2.26.92.92,0,0,0,.66.27.94.94,0,0,0,.67-.27,2.34,2.34,0,0,0,0-2.26Z"/><path class="c" d="M286.23,135.46v-2.25a.91.91,0,1,0-1.81-.06v2.31h-.53v-2.25a.85.85,0,0,0-.9-1,.87.87,0,0,0-.91,1v2.25h-.53v-3.65h.53v.4a1.33,1.33,0,0,1,1-.45,1.2,1.2,0,0,1,1.12.61,1.4,1.4,0,0,1,1.2-.61,1.33,1.33,0,0,1,.94.34,1.36,1.36,0,0,1,.39,1v2.34Z"/><path class="c" d="M292.75,135.46v-2.25a.91.91,0,1,0-1.81-.06v2.31h-.54v-2.25a.85.85,0,0,0-.9-1,.87.87,0,0,0-.91,1v2.25h-.53v-3.65h.53v.4a1.33,1.33,0,0,1,1-.45,1.2,1.2,0,0,1,1.12.61,1.4,1.4,0,0,1,1.2-.61,1.33,1.33,0,0,1,.94.34,1.36,1.36,0,0,1,.39,1v2.34Z"/><path class="c" d="M294.56,130.77v-.6h.6v.6Zm0,4.69v-3.65h.54v3.65Z"/><path class="c" d="M297.61,135.51a2,2,0,0,1-1.5-.53l.36-.36a1.49,1.49,0,0,0,1.14.42c.6,0,1-.22,1-.65s-.19-.5-.61-.53l-.6-.05c-.71-.06-1.09-.38-1.09-1s.56-1.07,1.34-1.07a2.07,2.07,0,0,1,1.32.39l-.35.35a1.55,1.55,0,0,0-1-.29c-.54,0-.82.23-.82.6s.18.5.64.53l.59.05c.64.06,1.08.3,1.08,1S298.5,135.51,297.61,135.51Z"/><path class="c" d="M301.18,135.51a2,2,0,0,1-1.5-.53l.36-.36a1.49,1.49,0,0,0,1.14.42c.6,0,1-.22,1-.65s-.19-.5-.61-.53l-.6-.05c-.71-.06-1.09-.38-1.09-1s.56-1.07,1.34-1.07a2.07,2.07,0,0,1,1.32.39l-.35.35a1.55,1.55,0,0,0-1-.29c-.54,0-.82.23-.82.6s.18.5.64.53l.59.05c.64.06,1.08.3,1.08,1S302.06,135.51,301.18,135.51Z"/><path class="c" d="M303.68,130.77v-.6h.6v.6Zm0,4.69v-3.65h.54v3.65Z"/><path class="c" d="M307.93,135.09a1.52,1.52,0,0,1-2.09,0,2.6,2.6,0,0,1,0-2.91,1.52,1.52,0,0,1,2.09,0,2.6,2.6,0,0,1,0,2.91Zm-.38-2.58a.94.94,0,0,0-.67-.27.92.92,0,0,0-.66.27,2.3,2.3,0,0,0,0,2.26.92.92,0,0,0,.66.27.94.94,0,0,0,.67-.27,2.34,2.34,0,0,0,0-2.26Z"/><path class="c" d="M311.86,135.46v-2.25a.85.85,0,0,0-.9-1,.86.86,0,0,0-.91,1v2.25h-.53v-3.65h.53v.4a1.32,1.32,0,0,1,1-.45,1.28,1.28,0,0,1,.94.34,1.35,1.35,0,0,1,.38,1v2.34Z"/><rect class="d" y="16.27" width="147.22" height="100"/><rect class="e" x="2.83" y="19.01" width="141.56" height="94.37"/><polygon class="f" points="70.59 39.57 73.58 37.39 76.57 39.57 75.43 36.05 78.47 33.87 74.72 33.87 73.58 30.3 72.44 33.87 68.7 33.87 71.73 36.05 70.59 39.57"/><polygon class="f" points="55.14 43.72 58.12 41.54 61.11 43.72 59.97 40.2 63.01 38.02 59.27 38.02 58.12 34.45 56.98 38.02 53.24 38.02 56.27 40.2 55.14 43.72"/><polygon class="f" points="46.81 45.78 45.67 49.36 41.93 49.35 44.96 51.53 43.83 55.06 46.81 52.88 49.8 55.06 48.66 51.53 51.69 49.35 47.96 49.35 46.81 45.78"/><polygon class="f" points="42.66 68.32 45.65 70.5 44.51 66.97 47.55 64.79 43.81 64.79 42.66 61.22 41.52 64.8 37.78 64.79 40.81 66.97 39.68 70.5 42.66 68.32"/><polygon class="f" points="47.96 80.28 46.81 76.71 45.67 80.28 41.93 80.28 44.96 82.46 43.83 85.98 46.81 83.8 49.8 85.98 48.66 82.46 51.69 80.28 47.96 80.28"/><polygon class="f" points="59.29 91.61 58.14 88.04 57 91.61 53.26 91.61 56.29 93.79 55.16 97.31 58.15 95.14 61.13 97.31 60 93.79 63.03 91.61 59.29 91.61"/><polygon class="f" points="74.73 95.72 73.58 92.14 72.44 95.72 68.7 95.72 71.73 97.9 70.6 101.42 73.58 99.24 76.57 101.42 75.43 97.9 78.47 95.72 74.73 95.72"/><polygon class="f" points="90.17 91.61 89.02 88.04 87.88 91.61 84.14 91.61 87.17 93.79 86.04 97.31 89.02 95.14 92.01 97.31 90.87 93.79 93.91 91.61 90.17 91.61"/><polygon class="f" points="101.5 80.28 100.36 76.71 99.21 80.28 95.47 80.28 98.51 82.46 97.37 85.98 100.36 83.8 103.34 85.98 102.2 82.46 105.24 80.28 101.5 80.28"/><polygon class="f" points="109.34 64.75 105.6 64.75 104.46 61.18 103.31 64.75 99.58 64.75 102.61 66.93 101.47 70.45 104.46 68.27 107.44 70.45 106.31 66.93 109.34 64.75"/><polygon class="f" points="97.37 55.01 100.36 52.83 103.34 55.01 102.2 51.49 105.24 49.31 101.5 49.31 100.36 45.74 99.21 49.31 95.47 49.31 98.51 51.49 97.37 55.01"/><polygon class="f" points="89.07 34.45 87.92 38.03 84.18 38.02 87.21 40.2 86.08 43.73 89.07 41.54 92.05 43.73 90.92 40.2 93.95 38.02 90.21 38.02 89.07 34.45"/><line class="g" x1="162" y1="139" x2="162" y2="1"/></svg>