<?xml version="1.0" encoding="utf-8"?>
<!-- Generator: Adobe Illustrator 21.1.0, SVG Export Plug-In . SVG Version: 6.00 Build 0)  -->
<svg version="1.1" xmlns="http://www.w3.org/2000/svg" xmlns:xlink="http://www.w3.org/1999/xlink" x="0px" y="0px"
	 viewBox="0 0 100 100" style="enable-background:new 0 0 100 100;" xml:space="preserve">
<style type="text/css">
	.st0{fill:#FFFFFF;stroke:#000000;stroke-width:3;stroke-miterlimit:10;}
	.st1{fill:none;stroke:#000000;stroke-width:3;stroke-miterlimit:10;}
	.st2{stroke:#000000;stroke-width:3;stroke-miterlimit:10;}
	.st3{stroke:#FFFFFF;stroke-width:3;stroke-miterlimit:10;}
	.st4{fill:none;stroke:#FFFFFF;stroke-width:2;stroke-miterlimit:10;}
	.st5{display:none;}
	.st6{fill:#FFFFFF;}
	.st7{clip-path:url(#SVGID_2_);}
	.st8{fill:none;stroke:#231F20;stroke-width:3;stroke-miterlimit:10;}
	.st9{clip-path:url(#SVGID_4_);}
	.st10{clip-path:url(#SVGID_6_);}
	.st11{display:inline;fill:none;stroke:#2A2A2A;stroke-width:3;stroke-miterlimit:10;}
	.st12{display:inline;fill:#FFFFFF;stroke:#2A2A2A;stroke-width:3;stroke-miterlimit:10;}
	.st13{display:inline;}
	.st14{fill:#2A2A2A;}
	.st15{display:inline;fill:#FFFFFF;}
	.st16{display:inline;fill:#2A2A2A;}
	.st17{fill:#2A2A2A;stroke:#2A2A2A;stroke-width:0.5;stroke-miterlimit:10;}
	.st18{display:inline;fill:none;stroke:#000000;stroke-width:3;stroke-miterlimit:10;}
	.st19{fill:#FFFFFF;stroke:#2A2A2A;stroke-width:3;stroke-miterlimit:10;}
	.st20{fill:none;stroke:#2A2A2A;stroke-width:3;stroke-miterlimit:10;}
	.st21{fill:#2A2A2A;stroke:#FFFFFF;stroke-width:3;stroke-miterlimit:10;}
	.st22{display:inline;fill:none;stroke:#231F20;stroke-width:3;stroke-miterlimit:10;}
	.st23{stroke:#000000;stroke-width:0.5;stroke-miterlimit:10;}
	.st24{display:none;stroke:#000000;stroke-width:0.5;stroke-miterlimit:10;}
	.st25{display:inline;stroke:#FFFFFF;stroke-miterlimit:10;}
</style>
<g id="Layer_1">
	<g>
		<path d="M1033.7-1138.3l-2.1-0.8v51.7h31.1v-2.1h-28.9V-1138.3z M1066.9-1148.1"/>
	</g>
	<g id="QgoraV.tif">
		
			<image style="overflow:visible;" width="92" height="95" id="Layer_1_2_" xlink:href="AC35E154702CC66D.png"  transform="matrix(1 0 0 1 502.5 -1290.5)">
		</image>
	</g>
	<rect x="636.5" y="-1275.5" class="st0" width="62" height="62"/>
	<polyline class="st1" points="660,-1205 629,-1205 629,-1240 	"/>
	<path class="st1" d="M688-1264"/>
	<polygon class="st2" points="645,-1221 690,-1221 690,-1242 682,-1249.5 669.5,-1238.5 658.5,-1244.5 645,-1234.5 	"/>
	<polygon class="st2" points="645,-1266 690,-1266 690,-1253.5 682,-1261 669,-1249.5 658,-1255.5 645,-1245.5 	"/>
	<circle class="st3" cx="698.3" cy="-1274.9" r="13"/>
	<g>
		<line class="st4" x1="698.3" y1="-1269.4" x2="698.3" y2="-1280.4"/>
	</g>
	<line class="st4" x1="354.8" y1="191.1" x2="365.8" y2="191.1"/>
	<g id="RBdJvN_1_">
		
			<image style="overflow:visible;" width="96" height="90" id="RBdJvN_2_" xlink:href="AC35E154702CC66F.jpg"  transform="matrix(1 0 0 1 510.5 -1182.5)">
		</image>
	</g>
	<rect x="631" y="-1158" class="st1" width="74" height="51"/>
	<polygon class="st1" points="681.5,-1158 631,-1158 631,-1169 671,-1169 	"/>
	<circle class="st1" cx="654.2" cy="-1132.2" r="4.2"/>
	<circle class="st1" cx="677.2" cy="-1143.2" r="4.2"/>
	<circle class="st1" cx="677.2" cy="-1121.2" r="4.2"/>
	<line class="st1" x1="658.5" y1="-1134.7" x2="674.5" y2="-1142.9"/>
	<line class="st1" x1="657.6" y1="-1130.3" x2="673.6" y2="-1122.1"/>
	<g id="CgCWnl.tif">
		
			<image style="overflow:visible;" width="93" height="92" id="Layer_1_1_" xlink:href="AC35E154702CC66A.png"  transform="matrix(1 0 0 1 756.5 -1295.5)">
		</image>
	</g>
	<path class="st1" d="M851.9-1219.8l-25.1-25.1l44.7-36.1c2.6-2.6,8.8-2.2,12.2,1.1l2.8,2.8c3.3,3.3,3,9.2,0.5,11.8L851.9-1219.8z"
		/>
	<path class="st1" d="M851.9-1218.7c-7.7-1.3-19.8,6-19.8,6l-12.7-12.7c0,0,7.5-12.5,6.4-19.5"/>
	<g>
		<g>
			<path d="M823.5-1212.3c-2.7-1.1-5.4-2.2-8.1-3.3c0.2,0.8,0.4,1.7,0.7,2.5c2.6-2.6,5.2-5.2,7.8-7.8c-0.7,0-1.4,0-2.1,0
				c1.9,1.9,3.8,3.8,5.7,5.7c0-0.7,0-1.4,0-2.1c-1.8,1.8-3.6,3.6-5.4,5.4c-1.4,1.4,0.8,3.5,2.1,2.1c1.8-1.8,3.6-3.6,5.4-5.4
				c0.6-0.6,0.6-1.5,0-2.1c-1.9-1.9-3.8-3.8-5.7-5.7c-0.6-0.6-1.5-0.6-2.1,0c-2.6,2.6-5.2,5.2-7.8,7.8c-0.9,0.9-0.3,2.1,0.7,2.5
				c2.7,1.1,5.4,2.2,8.1,3.3C824.5-1208.7,825.3-1211.6,823.5-1212.3z"/>
		</g>
	</g>
	<g id="_x32_e1qmW_1_">
		
			<image style="overflow:visible;" width="91" height="100" id="_x32_e1qmW_2_" xlink:href="AC35E154702CC66B.jpg"  transform="matrix(1 0 0 1 721.5 -1185.5)">
		</image>
	</g>
	<circle class="st1" cx="844.8" cy="-1147.8" r="28.2"/>
	<g>
		<g>
			<path d="M829.8-1163.8c8.1-7.1,19.1-7.6,28-1.6c1.6,1.1,3.1-1.5,1.5-2.6c-10-6.8-22.6-5.8-31.6,2.1
				C826.2-1164.7,828.3-1162.6,829.8-1163.8L829.8-1163.8z"/>
		</g>
	</g>
	<line class="st1" x1="862.4" y1="-1124.3" x2="868.1" y2="-1118.7"/>
	<g>
		<g>
			<path d="M884-1107.7c-1.6,1.6-3.3,3.3-4.9,4.9c0.7,0,1.4,0,2.1,0c-4.9-4.9-9.9-9.9-14.8-14.8c0,0.7,0,1.4,0,2.1
				c1.6-1.6,3.3-3.3,4.9-4.9c-0.7,0-1.4,0-2.1,0c4.9,4.9,9.9,9.9,14.8,14.8c1.4,1.4,3.5-0.8,2.1-2.1c-4.9-4.9-9.9-9.9-14.8-14.8
				c-0.6-0.6-1.5-0.6-2.1,0c-1.6,1.6-3.3,3.3-4.9,4.9c-0.6,0.6-0.6,1.5,0,2.1c4.9,4.9,9.9,9.9,14.8,14.8c0.6,0.6,1.5,0.6,2.1,0
				c1.6-1.6,3.3-3.3,4.9-4.9C887.5-1107,885.4-1109.1,884-1107.7z"/>
		</g>
	</g>
	<g id="mverVo.tif">
		
			<image style="overflow:visible;" width="96" height="95" id="Layer_1_3_" xlink:href="AC35E154702CC675.png"  transform="matrix(1 0 0 1 921.5 -1171.5)">
		</image>
	</g>
	<g>
		<path d="M1076.9-1135h-26.8c-0.6,0-1.1,0.5-1.1,1.1c0,0.6,0.5,1.1,1.1,1.1h26.8c0.6,0,1.1-0.5,1.1-1.1
			C1077.9-1134.5,1077.5-1135,1076.9-1135L1076.9-1135z M1076.9-1135"/>
		<path d="M1050.1-1141.4h10.7c0.6,0,1.1-0.5,1.1-1.1c0-0.6-0.5-1.1-1.1-1.1h-10.7c-0.6,0-1.1,0.5-1.1,1.1
			C1049-1141.9,1049.5-1141.4,1050.1-1141.4L1050.1-1141.4z M1050.1-1141.4"/>
		<path d="M1076.9-1126.4h-26.8c-0.6,0-1.1,0.5-1.1,1.1c0,0.6,0.5,1.1,1.1,1.1h26.8c0.6,0,1.1-0.5,1.1-1.1
			C1077.9-1125.9,1077.5-1126.4,1076.9-1126.4L1076.9-1126.4z M1076.9-1126.4"/>
		<path d="M1068.3-1117.9h-18.2c-0.6,0-1.1,0.5-1.1,1.1c0,0.6,0.5,1.1,1.1,1.1h18.2c0.6,0,1.1-0.5,1.1-1.1
			C1069.4-1117.4,1068.9-1117.9,1068.3-1117.9L1068.3-1117.9z M1068.3-1117.9"/>
		<path d="M1065.1-1107.1c0.6,0,1.1-0.5,1.1-1.1c0-0.6-0.5-1.1-1.1-1.1h-15c-0.6,0-1.1,0.5-1.1,1.1c0,0.6,0.5,1.1,1.1,1.1H1065.1z
			 M1065.1-1107.1"/>
		<path d="M1040.4-1156.4h31.1v15h15v19.3h2.1v-20.8l-15.6-15.6h-34.7v64.3h31.1v-2.1h-28.9V-1156.4z M1073.7-1154.9l11.3,11.3
			h-11.3V-1154.9z M1073.7-1154.9"/>
	</g>
	<path class="st5" d="M410.1-756.8l-3.1-3.1c-1.2-1.2-3.3-1.2-4.5,0L386-743.3l-2.3,8.3l-0.6,0.6c-0.4,0.4-0.4,1.1,0,1.5l0,0l0,0
		c0.2,0.2,0.5,0.3,0.7,0.3c0.3,0,0.5-0.1,0.8-0.3l0.6-0.6l8.3-2.3l16.5-16.5c0.6-0.6,0.9-1.4,0.9-2.3
		C411-755.3,410.7-756.1,410.1-756.8L410.1-756.8z M388.5-742.8l11-11l4.5,4.5l-11,11L388.5-742.8z M387.5-740.7l3.5,3.5l-4.7,1.3
		L387.5-740.7z M408.6-753.7l-3,3l-4.5-4.5l3-3c0.4-0.4,1.1-0.4,1.5,0l3.1,3.1c0.2,0.2,0.3,0.5,0.3,0.7
		C408.9-754.2,408.8-753.9,408.6-753.7L408.6-753.7z M408.6-753.7"/>
	<circle class="st6" cx="1037.9" cy="-1154.8" r="17.4"/>
	<g>
		<g>
			<defs>
				<rect id="SVGID_1_" x="1024.1" y="-1181.7" width="40.5" height="40.6"/>
			</defs>
			<clipPath id="SVGID_2_">
				<use xlink:href="#SVGID_1_"  style="overflow:visible;"/>
			</clipPath>
			<path class="st7" d="M1050.1-1152.6c-0.4-0.3-0.9-0.5-1.3-0.8c0.1-0.9,0.1-1.8,0-2.6c0.4-0.3,0.9-0.5,1.3-0.8
				c0.7-0.4,1-1.3,0.7-2.1h0l-0.9-2.2c-0.3-0.8-1.2-1.2-2-1c-0.5,0.1-1,0.2-1.5,0.4c-0.5-0.7-1.2-1.3-1.9-1.9c0.1-0.5,0.3-1,0.4-1.5
				c0.2-0.8-0.2-1.7-1-2l-2.2-0.9c-0.8-0.3-1.7,0-2.1,0.7c-0.3,0.4-0.5,0.9-0.8,1.3c-0.9-0.1-1.8-0.1-2.6,0
				c-0.3-0.4-0.5-0.9-0.8-1.3c-0.4-0.7-1.3-1-2.1-0.7l-2.2,0.9c-0.8,0.3-1.2,1.2-1,2c0.1,0.5,0.2,1,0.4,1.5
				c-0.7,0.5-1.3,1.2-1.9,1.9c-0.5-0.1-1-0.3-1.5-0.4c-0.8-0.2-1.7,0.2-2,1l-0.9,2.2c-0.3,0.8,0,1.7,0.7,2.1
				c0.4,0.3,0.9,0.5,1.3,0.8c-0.1,0.9-0.1,1.8,0,2.6c-0.4,0.3-0.9,0.5-1.3,0.8c-0.7,0.4-1,1.3-0.7,2.1l0.9,2.2c0.3,0.8,1.2,1.2,2,1
				c0.5-0.1,1-0.2,1.5-0.4c0.5,0.7,1.2,1.3,1.9,1.9c-0.1,0.5-0.3,1-0.4,1.5c-0.2,0.8,0.2,1.7,1,2l2.2,0.9c0.2,0.1,0.4,0.1,0.6,0.1
				c0.6,0,1.1-0.3,1.5-0.8c0.3-0.4,0.5-0.9,0.8-1.3c0.9,0.1,1.8,0.1,2.6,0c0.3,0.4,0.5,0.9,0.8,1.3c0.4,0.7,1.3,1,2.1,0.7l2.2-0.9
				c0.8-0.3,1.2-1.2,1-2c-0.1-0.5-0.2-1-0.4-1.5c0.7-0.5,1.3-1.2,1.9-1.9c0.5,0.1,1,0.3,1.5,0.4c0.8,0.2,1.7-0.2,2-1l0.9-2.2
				C1051.1-1151.2,1050.8-1152.1,1050.1-1152.6L1050.1-1152.6z M1048.2-1149c-0.5-0.1-0.9-0.2-1.4-0.4c-0.7-0.2-1.4,0.1-1.8,0.6
				c-0.5,0.6-1,1.2-1.7,1.7c-0.5,0.4-0.8,1.1-0.6,1.8c0.1,0.5,0.2,0.9,0.4,1.4l-2.1,0.9c-0.2-0.4-0.5-0.8-0.7-1.2
				c-0.3-0.6-1-0.9-1.7-0.8c-0.8,0.1-1.6,0.1-2.3,0c-0.7-0.1-1.3,0.2-1.7,0.8c-0.2,0.4-0.5,0.8-0.7,1.2l-2.1-0.9
				c0.1-0.5,0.2-0.9,0.4-1.4c0.2-0.7-0.1-1.4-0.6-1.8c-0.6-0.5-1.2-1-1.7-1.7c-0.4-0.5-1.1-0.8-1.8-0.6c-0.5,0.1-0.9,0.2-1.4,0.4
				l-0.9-2.1c0.4-0.2,0.8-0.5,1.2-0.7c0.6-0.3,0.9-1,0.8-1.7c-0.1-0.8-0.1-1.6,0-2.3c0.1-0.7-0.2-1.3-0.8-1.7
				c-0.4-0.2-0.8-0.5-1.2-0.7l0.9-2.1c0.5,0.1,0.9,0.2,1.4,0.4c0.7,0.2,1.4-0.1,1.8-0.6c0.5-0.6,1-1.2,1.7-1.7
				c0.5-0.4,0.8-1.1,0.6-1.8c-0.1-0.5-0.2-0.9-0.4-1.4l2.1-0.9c0.2,0.4,0.5,0.8,0.7,1.2c0.3,0.6,1,0.9,1.7,0.8
				c0.8-0.1,1.6-0.1,2.3,0c0.7,0.1,1.3-0.2,1.7-0.8c0.2-0.4,0.5-0.8,0.7-1.2l2.1,0.9c-0.1,0.5-0.2,0.9-0.4,1.4
				c-0.2,0.7,0.1,1.4,0.6,1.8c0.6,0.5,1.2,1,1.7,1.7c0.4,0.5,1.1,0.8,1.8,0.6c0.5-0.1,0.9-0.2,1.4-0.4l0.9,2.1
				c-0.4,0.2-0.8,0.5-1.2,0.7c-0.6,0.3-0.9,1-0.8,1.7c0.1,0.8,0.1,1.6,0,2.3c-0.1,0.7,0.2,1.3,0.8,1.7c0.4,0.2,0.8,0.5,1.2,0.7
				L1048.2-1149z M1048.2-1149"/>
		</g>
		<path d="M1043.2-1157c-1.3-3.1-4.9-4.6-8.1-3.3c-3.1,1.3-4.6,4.9-3.3,8.1c0.6,1.5,1.8,2.7,3.3,3.3c0.8,0.3,1.6,0.5,2.4,0.5
			c0.8,0,1.6-0.2,2.4-0.5C1043-1150.2,1044.5-1153.9,1043.2-1157L1043.2-1157z M1039.2-1150.6c-1.1,0.4-2.3,0.4-3.3,0
			c-1.1-0.4-1.9-1.3-2.4-2.4c-0.9-2.2,0.1-4.8,2.4-5.7c0.5-0.2,1.1-0.3,1.7-0.3c1.7,0,3.3,1,4,2.7
			C1042.5-1154.1,1041.4-1151.5,1039.2-1150.6L1039.2-1150.6z M1039.2-1150.6"/>
	</g>
	<g id="FJkfgD_1_">
		
			<image style="overflow:visible;" width="97" height="96" id="FJkfgD_2_" xlink:href="AC35E154702CC677.jpg"  transform="matrix(1 0 0 1 916.5 -1282.5)">
		</image>
	</g>
	<rect x="1018.1" y="-1274.5" class="st8" width="6.6" height="6.6"/>
	<line class="st8" x1="1021.4" y1="-1222.7" x2="1021.4" y2="-1212.5"/>
	<line class="st8" x1="1021.4" y1="-1241" x2="1021.4" y2="-1230.8"/>
	<line class="st8" x1="1021.4" y1="-1259.3" x2="1021.4" y2="-1249.1"/>
	<rect x="1018.1" y="-1204.4" class="st8" width="6.6" height="6.6"/>
	
		<rect x="1088.3" y="-1274.5" transform="matrix(-1.836970e-16 1 -1 -1.836970e-16 -179.6286 -2362.7656)" class="st8" width="6.6" height="6.6"/>
	<line class="st8" x1="1043" y1="-1271.2" x2="1032.9" y2="-1271.2"/>
	<line class="st8" x1="1061.3" y1="-1271.2" x2="1051.2" y2="-1271.2"/>
	<line class="st8" x1="1079.6" y1="-1271.2" x2="1069.5" y2="-1271.2"/>
	
		<rect x="1088.3" y="-1204.1" transform="matrix(-3.527632e-03 1 -1 -3.527632e-03 -105.3767 -2296.6235)" class="st8" width="6.6" height="6.6"/>
	<line class="st8" x1="1043.1" y1="-1201" x2="1032.9" y2="-1201"/>
	<line class="st8" x1="1061.3" y1="-1200.9" x2="1051.2" y2="-1201"/>
	<line class="st8" x1="1079.6" y1="-1200.9" x2="1069.5" y2="-1200.9"/>
	<line class="st8" x1="1091.8" y1="-1249.6" x2="1091.8" y2="-1259.8"/>
	<line class="st8" x1="1091.7" y1="-1231.3" x2="1091.7" y2="-1241.5"/>
	<line class="st8" x1="1091.6" y1="-1213" x2="1091.7" y2="-1223.2"/>
	<g>
		<g>
			<defs>
				<rect id="SVGID_3_" x="1037.8" y="-1258.2" width="37.5" height="44.4"/>
			</defs>
			<clipPath id="SVGID_4_">
				<use xlink:href="#SVGID_3_"  style="overflow:visible;"/>
			</clipPath>
			<path class="st9" d="M1074.8-1257.4c0-0.5-0.4-0.8-0.9-0.8h-34.7c-0.5,0-0.8,0.4-0.9,0.8l-0.5,10.4c0,0.2,0.1,0.5,0.2,0.6
				c0.2,0.2,0.4,0.3,0.6,0.3h2.9c0.5,0,0.8-0.3,0.9-0.8c0.1-1.8,0.5-3.2,1.2-4.2c0.7-1,1.4-1.6,2.4-2c0.5-0.2,1.6-0.4,3.9-0.4h2.5
				v29.4c0,3-0.4,3.9-0.5,4.1c-0.6,0.8-1.6,1.3-3.1,1.3h-1.5c-0.5,0-0.9,0.4-0.9,0.9v3c0,0.5,0.4,0.9,0.9,0.9h18
				c0.5,0,0.9-0.4,0.9-0.9v-3c0-0.5-0.4-0.9-0.9-0.9h-1.5c-1.4,0-2.4-0.3-3-1c-0.2-0.2-0.6-1-0.6-4.3v-21.9c0-0.5-0.4-0.9-0.9-0.9
				c-0.5,0-0.9,0.4-0.9,0.9v21.9c0,2.9,0.3,4.6,1.1,5.5c0,0,0,0,0,0c1,1.1,2.4,1.6,4.3,1.6h0.6v1.2h-16.3v-1.2h0.6
				c2.1,0,3.6-0.7,4.5-2c0.6-0.8,0.8-2.4,0.8-5.1v-30.3c0-0.5-0.4-0.9-0.9-0.9h-3.4c-2.1,0-3.6,0.2-4.5,0.5c0,0,0,0,0,0
				c-1.3,0.5-2.3,1.3-3.2,2.6c-0.7,1.1-1.2,2.5-1.4,4.2h-1.2l0.4-8.6h33.1l0.4,8.6h-1.2c-0.2-1.5-0.5-2.6-0.9-3.3
				c-0.7-1.4-1.7-2.4-2.9-3c-1.2-0.6-2.8-1-4.7-1h-4.3c-0.5,0-0.9,0.4-0.9,0.9c0,0.5,0.4,0.9,0.9,0.9h4.3c1.6,0,2.9,0.3,3.8,0.8
				c0.9,0.5,1.7,1.3,2.2,2.3c0.2,0.5,0.6,1.4,0.8,3.5c0.1,0.4,0.4,0.8,0.9,0.8h2.9c0.2,0,0.5-0.1,0.6-0.3c0.2-0.2,0.2-0.4,0.2-0.6
				L1074.8-1257.4z M1074.8-1257.4"/>
		</g>
		<path d="M1058.5-1251.4v2.6c0,0.5,0.4,0.9,0.9,0.9c0.5,0,0.9-0.4,0.9-0.9v-2.6c0-0.5-0.4-0.9-0.9-0.9
			C1058.9-1252.2,1058.5-1251.9,1058.5-1251.4L1058.5-1251.4z M1058.5-1251.4"/>
		<path d="M1050-1230c0.5,0,0.9-0.4,0.9-0.9v-2c0-0.5-0.4-0.9-0.9-0.9c-0.5,0-0.9,0.4-0.9,0.9v2
			C1049.1-1230.4,1049.5-1230,1050-1230L1050-1230z M1050-1230"/>
		<path d="M1049.1-1221.1c0,0.5,0.4,0.9,0.9,0.9c0.5,0,0.9-0.4,0.9-0.9v-6.5c0-0.5-0.4-0.9-0.9-0.9c-0.5,0-0.9,0.4-0.9,0.9V-1221.1z
			 M1049.1-1221.1"/>
	</g>
	<g>
		<g>
			<defs>
				<rect id="SVGID_5_" x="1073.5" y="-1122.2" width="30.9" height="30.5"/>
			</defs>
			<clipPath id="SVGID_6_">
				<use xlink:href="#SVGID_5_"  style="overflow:visible;"/>
			</clipPath>
			<path class="st10" d="M1104.2-1122c-0.2-0.2-0.5-0.2-0.6-0.2c-0.9,0-3.1,0.3-3.8,0.4c-0.2,0-0.4,0-0.6,0.1
				c-1.1,0.1-3,0.3-4.3,1.6c-0.8,0.9-2.5,2.7-3.1,3.4c-0.2-0.2-0.4-0.5-0.6-0.7c-1-1.1-1.4-1.2-1.6-1.2c-0.2,0-0.3,0.1-0.4,0.2
				c-3,3-4.6,6.2-5.5,8.4c-0.5,1.2-0.7,2.2-0.9,2.9l-0.8-1.5l-0.4,0.4c-0.9,0.9-0.9,1.3-0.9,2.4c0,0.4,0,1.3,0,2.4
				c0,1-0.1,2.2-0.1,3.1c0,0.4,0,0.7,0,1l-0.5,0.5c0-0.3,0-0.7,0-1l-0.4-2c-0.1-0.4-0.3-0.5-0.5-0.5c-0.2,0-0.4,0.1-0.5,0.6
				l-0.3,2.1c0,0.3,0,0.8,0,1.1l0.3,1.2l-0.8,0.8c0-0.3,0-0.7,0-1l-0.4-2c-0.1-0.4-0.3-0.5-0.5-0.5c-0.2,0-0.4,0.1-0.5,0.6l-0.3,2.1
				c0,0.3,0,0.8,0,1.1l0.3,1.2l-2.8,2.8c-0.2,0.2-0.2,0.4-0.1,0.5c0.1,0.2,0.2,0.3,0.4,0.3c0.1,0,0.2,0,0.2-0.1l2.3-1.1
				c0.1-0.1,0.3-0.2,0.4-0.3l1-1l0.9,0.2c0.2,0,0.4,0.1,0.7,0.1c0.2,0,0.3,0,0.4,0l2.1-0.3c0.5-0.1,0.6-0.3,0.6-0.5
				c0-0.2-0.1-0.4-0.5-0.5l-2-0.4c-0.2,0-0.4,0-0.6,0c0,0,0,0-0.1,0l0.7-0.7l0.9,0.2c0.2,0,0.4,0.1,0.7,0.1c0.2,0,0.3,0,0.4,0
				l2.1-0.3c0.5-0.1,0.6-0.3,0.6-0.5c0-0.2-0.1-0.4-0.5-0.5l-2-0.4c-0.2,0-0.4,0-0.6,0c0,0,0,0-0.1,0l0.5-0.5c0.2,0,0.4,0,0.6,0
				c0.9,0,2.1,0,3.1-0.1c0.8,0,1.6,0,2.1,0c0.1,0,0.2,0,0.3,0c0.2,0,0.3,0,0.5,0c0.8,0,1.2-0.2,1.9-0.9l0.4-0.4l-1.6-0.8
				c0.7-0.2,1.8-0.5,3-1c2.2-0.9,5.4-2.5,8.3-5.4c0.1-0.1,0.2-0.3,0.2-0.4c0-0.5-1-1.5-1.9-2.2c0.8-0.7,2.6-2.3,3.4-3.1
				c1.4-1.3,1.5-3.2,1.6-4.3c0-0.3,0-0.5,0.1-0.6c0.1-0.6,0.2-1.5,0.3-2.4c0.1-0.5,0.1-0.9,0.1-1.2
				C1104.4-1121.4,1104.4-1121.8,1104.2-1122L1104.2-1122z M1104.2-1122"/>
		</g>
	</g>
	<path d="M1029.4-1156c-0.8,0.1-1.5,0.8-1.5,1.6l0,1.7c0,0.8,0.6,1.6,1.5,1.7l1.2,0.2c0.2,0.8,0.5,1.5,0.9,2.2l-0.8,1
		c-0.5,0.7-0.5,1.6,0.1,2.2l1.2,1.2c0.6,0.6,1.5,0.7,2.2,0.2l1-0.8c0.7,0.4,1.4,0.7,2.2,1l0.1,1.3c0.1,0.8,0.8,1.5,1.6,1.5l1.7,0
		c0.8,0,1.6-0.6,1.7-1.5l0.2-1.2c0.8-0.2,1.6-0.5,2.4-0.9l0.9,0.8c0.7,0.5,1.6,0.5,2.2-0.1l1.2-1.2c0.6-0.6,0.7-1.5,0.2-2.2
		l-0.7-0.9c0.4-0.7,0.8-1.5,1-2.3l1.1-0.1c0.8-0.1,1.5-0.8,1.5-1.6l0-1.7c0-0.8-0.6-1.6-1.5-1.7l-1.1-0.1c-0.2-0.8-0.5-1.6-0.9-2.3
		l0.7-0.8c0.5-0.7,0.5-1.6-0.1-2.2l-1.2-1.2c-0.6-0.6-1.5-0.7-2.2-0.2l-0.8,0.6c-0.8-0.5-1.6-0.8-2.4-1.1l-0.1-1
		c-0.1-0.8-0.8-1.5-1.6-1.5l-1.7,0c-0.8,0-1.6,0.6-1.7,1.5l-0.1,1c-0.9,0.2-1.7,0.6-2.5,1l-0.8-0.7c-0.7-0.5-1.6-0.5-2.2,0.1
		l-1.2,1.2c-0.6,0.6-0.7,1.5-0.2,2.2l0.7,0.9c-0.4,0.7-0.7,1.5-1,2.3L1029.4-1156z M1040.3-1157.9c2.4,0,4.4,2,4.3,4.4
		c0,2.4-2,4.4-4.4,4.3c-2.4,0-4.4-2-4.3-4.5C1035.9-1156,1037.9-1158,1040.3-1157.9L1040.3-1157.9z M1040.3-1157.9"/>
	<path class="st5" d="M351.4-594c-0.8,0.1-1.5,0.8-1.5,1.6l0,1.7c0,0.8,0.6,1.6,1.5,1.7l1.2,0.2c0.2,0.8,0.5,1.5,0.9,2.2l-0.8,1
		c-0.5,0.7-0.5,1.6,0.1,2.2l1.2,1.2c0.6,0.6,1.5,0.7,2.2,0.2l1-0.8c0.7,0.4,1.4,0.7,2.2,1l0.1,1.3c0.1,0.8,0.8,1.5,1.6,1.5l1.7,0
		c0.8,0,1.6-0.6,1.7-1.5l0.2-1.2c0.8-0.2,1.6-0.5,2.4-0.9l0.9,0.8c0.7,0.5,1.6,0.5,2.2-0.1l1.2-1.2c0.6-0.6,0.7-1.5,0.2-2.2
		l-0.7-0.9c0.4-0.7,0.8-1.5,1-2.3l1.1-0.1c0.8-0.1,1.5-0.8,1.5-1.6l0-1.7c0-0.8-0.6-1.6-1.5-1.7L372-594c-0.2-0.8-0.5-1.6-0.9-2.3
		l0.7-0.8c0.5-0.7,0.5-1.6-0.1-2.2l-1.2-1.2c-0.6-0.6-1.5-0.7-2.2-0.2l-0.8,0.6c-0.8-0.5-1.6-0.8-2.4-1.1l-0.1-1
		c-0.1-0.8-0.8-1.5-1.6-1.5l-1.7,0c-0.8,0-1.6,0.6-1.7,1.5l-0.1,1c-0.9,0.2-1.7,0.6-2.5,1l-0.8-0.7c-0.7-0.5-1.6-0.5-2.2,0.1
		l-1.2,1.2c-0.6,0.6-0.7,1.5-0.2,2.2l0.7,0.9c-0.4,0.7-0.7,1.5-1,2.3L351.4-594z M362.3-595.9c2.4,0,4.4,2,4.3,4.4
		c0,2.4-2,4.4-4.4,4.3c-2.4,0-4.4-2-4.3-4.5C357.9-594,359.9-596,362.3-595.9L362.3-595.9z M362.3-595.9"/>
</g>
<g id="Layer_2">
	<g id="CMS" class="st5">
		<polyline class="st11" points="19.5,47.7 19.5,88 40.4,88 		"/>
		<polygon class="st12" points="25.8,18.5 25.8,81.7 74.5,81.7 74.5,32 61.9,18.5 		"/>
		<polyline class="st12" points="73.3,33 61.3,33 61.3,19.2 		"/>
		<g class="st13">
			<g>
				<path class="st14" d="M35.5,32.7c3.5,0,7,0,10.4,0c1.4,0,1.5-2.2,0-2.2c-3.5,0-7,0-10.4,0C34.1,30.4,34.1,32.7,35.5,32.7
					L35.5,32.7z"/>
			</g>
		</g>
		<g class="st13">
			<g>
				<path class="st14" d="M35.5,61.6c9.4,0,18.8,0,28.2,0c1.4,0,1.5-2.2,0-2.2c-9.4,0-18.8,0-28.2,0C34.1,59.3,34.1,61.6,35.5,61.6
					L35.5,61.6z"/>
			</g>
		</g>
		<g class="st13">
			<g>
				<path class="st14" d="M35.5,51.9c9.4,0,18.8,0,28.2,0c1.4,0,1.5-2.2,0-2.2c-9.4,0-18.8,0-28.2,0C34.1,49.7,34.1,51.9,35.5,51.9
					L35.5,51.9z"/>
			</g>
		</g>
		<g class="st13">
			<g>
				<path class="st14" d="M35.5,71.2c9.4,0,18.8,0,28.2,0c1.4,0,1.5-2.2,0-2.2c-9.4,0-18.8,0-28.2,0C34.1,68.9,34.1,71.2,35.5,71.2
					L35.5,71.2z"/>
			</g>
		</g>
		<g class="st13">
			<g>
				<path class="st14" d="M35.5,42.3c9.4,0,18.8,0,28.2,0c1.4,0,1.5-2.2,0-2.2c-9.4,0-18.8,0-28.2,0C34.1,40.1,34.1,42.3,35.5,42.3
					L35.5,42.3z"/>
			</g>
		</g>
		<ellipse transform="matrix(1 -5.697945e-03 5.697945e-03 1 -0.1255 0.1272)" class="st15" cx="22.3" cy="22.1" rx="15" ry="15"/>
		<path class="st16" d="M11.4,19.6c-0.8,0.1-1.5,0.8-1.5,1.7l0,1.7c0,0.8,0.6,1.6,1.5,1.7l1.2,0.2c0.2,0.8,0.5,1.5,0.9,2.2l-0.8,1
			c-0.5,0.7-0.5,1.6,0.1,2.2l1.2,1.2c0.6,0.6,1.5,0.7,2.2,0.1l1-0.8c0.7,0.4,1.4,0.7,2.2,1l0.1,1.3c0.1,0.8,0.8,1.5,1.7,1.5l1.7,0
			c0.8,0,1.6-0.6,1.7-1.5l0.1-1.2c0.8-0.2,1.6-0.5,2.4-0.9l0.9,0.7c0.7,0.5,1.6,0.5,2.2-0.1l1.2-1.2c0.6-0.6,0.7-1.5,0.1-2.2
			L31,27.1c0.4-0.7,0.8-1.5,1-2.3l1.1-0.1c0.8-0.1,1.5-0.8,1.5-1.7l0-1.7c0-0.8-0.6-1.6-1.5-1.7L32,19.5c-0.2-0.8-0.5-1.6-0.9-2.3
			l0.7-0.8c0.5-0.7,0.5-1.6-0.1-2.2l-1.2-1.2c-0.6-0.6-1.5-0.7-2.2-0.1l-0.8,0.6c-0.8-0.5-1.6-0.8-2.4-1l-0.1-1
			c-0.1-0.8-0.8-1.5-1.7-1.5l-1.7,0c-0.8,0-1.6,0.6-1.7,1.5l-0.1,1c-0.9,0.2-1.7,0.6-2.5,1l-0.8-0.7c-0.7-0.5-1.6-0.5-2.2,0.1L13,14
			c-0.6,0.6-0.7,1.5-0.1,2.2l0.7,0.9c-0.4,0.7-0.7,1.5-0.9,2.3L11.4,19.6z M22.3,17.6c2.4,0,4.4,2,4.4,4.4c0,2.4-2,4.4-4.4,4.4
			c-2.4,0-4.4-2-4.4-4.4C17.9,19.5,19.9,17.6,22.3,17.6L22.3,17.6z M22.3,17.6"/>
		
			<ellipse transform="matrix(0.672 -0.7405 0.7405 0.672 -29.1982 73.8753)" class="st15" cx="68.8" cy="69.9" rx="29.9" ry="17.1"/>
		<g class="st13">
			<path class="st17" d="M57.2,85.7c-1.1,0-2.9,0-4.8,0l1.1-1.1c2.3,0,4.9,0,6.7,0c0.5,0,1-0.4,1-1c0-0.5-0.4-1-1-1
				c-1.3,0-3.1,0-4.8,0l1.1-1.1c0.7,0,1.3,0,1.9,0c3.2,0.1,5.1,0.1,7-1.8l21.9-21.9c2.3-2.3,2.3-6.2,0-8.5c0,0,0,0-0.1-0.1
				c0,0,0,0,0,0c0,0,0,0,0,0c0,0,0,0,0,0c0,0,0,0,0,0c0,0,0,0,0,0c0,0,0,0,0,0c0,0,0,0,0,0c0,0,0,0,0,0c0,0,0,0,0,0c0,0,0,0,0,0
				c0,0,0,0,0,0c0,0,0,0,0,0c0,0,0,0,0,0c0,0,0,0,0,0c-4.7-0.3-9.6,0.4-14.2,2.2c-4.8,1.9-9.2,4.7-12.9,8.4
				c-3.8,3.8-6.6,8.1-8.4,12.9c-1.7,4.5-2.5,9.2-2.2,13.8l-1.4,1.4c-0.4,0.4-0.4,1,0,1.4c0.4,0.4,1,0.4,1.4,0l1.4-1.4
				c2.5,0,5.3,0,6.7,0c0.5,0,1-0.4,1-1C58.2,86.2,57.7,85.7,57.2,85.7L57.2,85.7z M86.1,56.4L64.2,78.4c-1.3,1.3-2.6,1.3-5.6,1.2
				c0,0,0,0,0,0l28.2-28.2C87.7,53,87.5,55.1,86.1,56.4L86.1,56.4z M61.1,61c6.5-6.5,14.9-10.1,23.4-10.2L51,84.4
				C51,75.9,54.6,67.5,61.1,61L61.1,61z M61.1,61"/>
		</g>
	</g>
	<g id="collect" class="st5">
		<path class="st18" d="M67.5,26"/>
		<polygon class="st11" points="64.7,27.9 54.8,18.7 17.2,18.7 17.2,27.9 17.2,76.8 88.2,76.8 88.2,27.9 		"/>
		<circle class="st11" cx="38.2" cy="53.8" r="4.2"/>
		<circle class="st11" cx="61.2" cy="42.8" r="4.2"/>
		<circle class="st11" cx="61.2" cy="63.8" r="4.2"/>
		<line class="st11" x1="42.5" y1="51.3" x2="58.5" y2="43.1"/>
		<line class="st11" x1="41.6" y1="54.7" x2="57.6" y2="62.9"/>
		<polyline class="st11" points="42,83 11,83 11,48 		"/>
	</g>
	<g id="search" class="st5">
		<circle class="st11" cx="43.3" cy="40.3" r="29.3"/>
		<g class="st13">
			<g>
				<path class="st14" d="M27.8,23.6c8.3-7.3,19.9-7.9,29.1-1.7c1.6,1.1,3.1-1.5,1.5-2.6c-10.3-7-23.4-6-32.7,2.2
					C24.2,22.8,26.3,24.9,27.8,23.6L27.8,23.6z"/>
			</g>
		</g>
		<line class="st11" x1="61.6" y1="64.6" x2="67.5" y2="70.5"/>
		<g class="st13">
			<g>
				<path class="st14" d="M84,81.9c-1.7,1.7-3.4,3.4-5.1,5.1c0.7,0,1.4,0,2.1,0c-5.1-5.1-10.3-10.3-15.4-15.4c0,0.7,0,1.4,0,2.1
					c1.7-1.7,3.4-3.4,5.1-5.1c-0.7,0-1.4,0-2.1,0C73.8,73.7,78.9,78.9,84,84c1.4,1.4,3.5-0.8,2.1-2.1C81,76.7,75.9,71.6,70.8,66.5
					c-0.6-0.6-1.5-0.6-2.1,0c-1.7,1.7-3.4,3.4-5.1,5.1c-0.6,0.6-0.6,1.5,0,2.1c5.1,5.1,10.3,10.3,15.4,15.4c0.6,0.6,1.5,0.6,2.1,0
					c1.7-1.7,3.4-3.4,5.1-5.1C87.5,82.6,85.4,80.5,84,81.9z"/>
			</g>
		</g>
	</g>
	<g id="lightbox">
		<rect x="17.5" y="19.5" class="st19" width="62" height="62"/>
		<polyline class="st20" points="42,88 11,88 11,53 		"/>
		<path class="st1" d="M66,31"/>
		<polyline class="st20" points="17.5,77.3 37.3,58.5 49.7,66 62.6,48.9 79.5,71.1 		"/>
		<g>
			<circle class="st6" cx="78.1" cy="21" r="13"/>
			<circle class="st21" cx="78.1" cy="21" r="13"/>
			<line class="st4" x1="78.1" y1="26.5" x2="78.1" y2="15.5"/>
			<line class="st4" x1="72.6" y1="21" x2="83.6" y2="21"/>
		</g>
	</g>
	<g id="Annotator" class="st5">
		<rect x="11.1" y="11" class="st22" width="6.6" height="6.6"/>
		<line class="st22" x1="14.4" y1="62.8" x2="14.4" y2="73"/>
		<line class="st22" x1="14.4" y1="44.5" x2="14.4" y2="54.7"/>
		<line class="st22" x1="14.4" y1="26.2" x2="14.4" y2="36.4"/>
		<rect x="11.1" y="81.4" class="st22" width="6.6" height="6.6"/>
		
			<rect x="81.3" y="11" transform="matrix(-1.836970e-16 1 -1 -1.836970e-16 98.9417 -70.3359)" class="st22" width="6.6" height="6.6"/>
		<line class="st22" x1="36" y1="14.3" x2="25.9" y2="14.3"/>
		<line class="st22" x1="54.3" y1="14.3" x2="44.2" y2="14.3"/>
		<line class="st22" x1="72.6" y1="14.3" x2="62.5" y2="14.3"/>
		
			<rect x="81.3" y="81.4" transform="matrix(-3.527632e-03 1 -1 -3.527632e-03 169.6335 0.3347)" class="st22" width="6.6" height="6.6"/>
		<line class="st22" x1="36.1" y1="84.5" x2="25.9" y2="84.5"/>
		<line class="st22" x1="54.3" y1="84.6" x2="44.2" y2="84.5"/>
		<line class="st22" x1="72.6" y1="84.6" x2="62.5" y2="84.6"/>
		<line class="st22" x1="84.8" y1="35.9" x2="84.9" y2="25.7"/>
		<line class="st22" x1="84.8" y1="54.2" x2="84.8" y2="44"/>
		<line class="st22" x1="84.7" y1="72.5" x2="84.7" y2="62.3"/>
		<g class="st13">
			<g>
				<path class="st23" d="M67.8,28.1c0-0.5-0.4-0.8-0.9-0.8H32.2c-0.5,0-0.8,0.4-0.9,0.8l-0.5,10.4c0,0.2,0.1,0.5,0.2,0.6
					c0.2,0.2,0.4,0.3,0.6,0.3h2.9c0.5,0,0.8-0.3,0.9-0.8c0.1-1.8,0.5-3.2,1.2-4.2c0.7-1,1.4-1.6,2.4-2c0.5-0.2,1.6-0.4,3.9-0.4h2.5
					v29.4c0,3-0.4,3.9-0.5,4.1c-0.6,0.8-1.6,1.3-3.1,1.3h-1.5c-0.5,0-0.9,0.4-0.9,0.9v3c0,0.5,0.4,0.9,0.9,0.9h18
					c0.5,0,0.9-0.4,0.9-0.9v-3c0-0.5-0.4-0.9-0.9-0.9h-1.5c-1.4,0-2.4-0.3-3-1c-0.2-0.2-0.6-1-0.6-4.3V39.7c0-0.5-0.4-0.9-0.9-0.9
					c-0.5,0-0.9,0.4-0.9,0.9v21.9c0,2.9,0.3,4.6,1.1,5.5c0,0,0,0,0,0c1,1.1,2.4,1.6,4.3,1.6h0.6v1.2H41.2v-1.2h0.6
					c2.1,0,3.6-0.7,4.5-2c0.6-0.8,0.8-2.4,0.8-5.1V31.2c0-0.5-0.4-0.9-0.9-0.9H43c-2.1,0-3.6,0.2-4.5,0.5c0,0,0,0,0,0
					c-1.3,0.5-2.3,1.3-3.2,2.6c-0.7,1.1-1.2,2.5-1.4,4.2h-1.2L33,29h33.1l0.4,8.6h-1.2c-0.2-1.5-0.5-2.6-0.9-3.3
					c-0.7-1.4-1.7-2.4-2.9-3c-1.2-0.6-2.8-1-4.7-1h-4.3c-0.5,0-0.9,0.4-0.9,0.9c0,0.5,0.4,0.9,0.9,0.9h4.3c1.6,0,2.9,0.3,3.8,0.8
					c0.9,0.5,1.7,1.3,2.2,2.3c0.2,0.5,0.6,1.4,0.8,3.5c0.1,0.4,0.4,0.8,0.9,0.8h2.9c0.2,0,0.5-0.1,0.6-0.3c0.2-0.2,0.2-0.4,0.2-0.6
					L67.8,28.1z M67.8,28.1"/>
			</g>
			<path class="st23" d="M51.5,33.5V39c0,1.1,0.4,2,0.9,2c0.5,0,0.9-0.9,0.9-2v-7.5c0-1.1-0.4-0.5-0.9-0.5c-0.5,0-0.9-0.6-0.9,0.5
				V33.5z M51.5,31.5"/>
			<path class="st24" d="M43,55.5c0.5,0,0.9-0.4,0.9-0.9v-2c0-0.5-0.4-0.9-0.9-0.9c-0.5,0-0.9,0.4-0.9,0.9v2
				C42.1,55.1,42.5,55.5,43,55.5L43,55.5z M43,55.5"/>
			<path class="st24" d="M42.1,64.4c0,0.5,0.4,0.9,0.9,0.9c0.5,0,0.9-0.4,0.9-0.9v-6.5c0-0.5-0.4-0.9-0.9-0.9
				c-0.5,0-0.9,0.4-0.9,0.9V64.4z M42.1,64.4"/>
		</g>
	</g>
	<g id="Text_Editor" class="st5">
		<g class="st13">
			<polygon points="9.5,9.5 9.5,49.1 40,49.1 40,18 32.2,9.5 			"/>
		</g>
		<polyline class="st25" points="40.3,17.6 32.8,17.6 32.8,8.9 		"/>
		<g class="st13">
			<g>
				<path class="st6" d="M15.5,18.4c2.1,0,4.2,0,6.3,0c1,0,1-1.5,0-1.5c-2.1,0-4.2,0-6.3,0C14.6,16.9,14.6,18.4,15.5,18.4L15.5,18.4
					z"/>
			</g>
		</g>
		<g class="st13">
			<g>
				<path class="st6" d="M15.5,36.5c5.7,0,11.3,0,17,0c1,0,1-1.5,0-1.5c-5.7,0-11.3,0-17,0C14.6,35,14.6,36.5,15.5,36.5L15.5,36.5z"
					/>
			</g>
		</g>
		<g class="st13">
			<g>
				<path class="st6" d="M15.5,30.5c5.7,0,11.3,0,17,0c1,0,1-1.5,0-1.5c-5.7,0-11.3,0-17,0C14.6,29,14.6,30.5,15.5,30.5L15.5,30.5z"
					/>
			</g>
		</g>
		<g class="st13">
			<g>
				<path class="st6" d="M15.5,42.5c5.7,0,11.3,0,17,0c1,0,1-1.5,0-1.5c-5.7,0-11.3,0-17,0C14.6,41,14.6,42.5,15.5,42.5L15.5,42.5z"
					/>
			</g>
		</g>
		<g class="st13">
			<g>
				<path class="st6" d="M15.5,24.5c5.7,0,11.3,0,17,0c1,0,1-1.5,0-1.5c-5.7,0-11.3,0-17,0C14.6,23,14.6,24.5,15.5,24.5L15.5,24.5z"
					/>
			</g>
		</g>
		
			<ellipse transform="matrix(0.672 -0.7405 0.7405 0.672 -19.6732 45.7941)" class="st15" cx="41.9" cy="45.1" rx="30.3" ry="10.6"/>
		<g class="st13">
			<path d="M34.1,83.2c-1.9,0-5.1,0-8.3,0l2-2c4,0,8.5,0,11.7,0c0.9,0,1.7-0.7,1.7-1.7c0-0.9-0.7-1.7-1.7-1.7c-2.3,0-5.3,0-8.3,0
				l2-2c1.2,0,2.3,0,3.3,0c5.5,0.1,8.9,0.2,12.2-3.1l38-38c4.1-4.1,4.1-10.7,0-14.7c0,0-0.1-0.1-0.1-0.1c0,0,0,0-0.1,0
				c0,0,0,0-0.1-0.1c0,0,0,0-0.1,0c0,0,0,0-0.1,0c0,0-0.1,0-0.1,0c0,0,0,0-0.1,0c0,0-0.1,0-0.1,0c0,0,0,0-0.1,0c0,0-0.1,0-0.1,0
				c0,0,0,0-0.1,0c0,0-0.1,0-0.1,0c0,0-0.1,0-0.1,0c0,0,0,0-0.1,0c0,0,0,0,0,0c-8.1-0.6-16.6,0.8-24.6,3.8
				c-8.3,3.2-15.8,8.1-22.3,14.6c-6.5,6.5-11.4,14-14.6,22.3c-3,7.7-4.3,15.9-3.9,23.8l-2.4,2.4c-0.7,0.7-0.7,1.7,0,2.4
				c0.7,0.7,1.7,0.7,2.4,0l2.5-2.5c4.3,0,9.1,0,11.7,0c0.9,0,1.7-0.7,1.7-1.7C35.7,84,35,83.2,34.1,83.2L34.1,83.2z M84.1,32.5
				l-38,38c-2.3,2.3-4.5,2.3-9.7,2.2c0,0,0,0,0,0l48.8-48.8C86.8,26.5,86.5,30.1,84.1,32.5L84.1,32.5z M40.9,40.4
				c11.2-11.2,25.8-17.5,40.5-17.6L23.3,80.9C23.3,66.2,29.6,51.7,40.9,40.4L40.9,40.4z M40.9,40.4"/>
		</g>
	</g>
</g>
<g id="Guides">
</g>
<g id="Layer_4">
	<g id="Annotator_1_">
		<g>
			<path class="st24" d="M309,464.5c0.5,0,0.9-0.4,0.9-0.9v-2c0-0.5-0.4-0.9-0.9-0.9c-0.5,0-0.9,0.4-0.9,0.9v2
				C308.1,464.1,308.5,464.5,309,464.5L309,464.5z M309,464.5"/>
			<path class="st24" d="M308.1,473.4c0,0.5,0.4,0.9,0.9,0.9c0.5,0,0.9-0.4,0.9-0.9v-6.5c0-0.5-0.4-0.9-0.9-0.9
				c-0.5,0-0.9,0.4-0.9,0.9V473.4z M308.1,473.4"/>
		</g>
	</g>
	<text transform="matrix(1 0 0 1 282 649)" style="font-family:'Raleway-ExtraBold'; font-size:12px;">ANNOTATOR</text>
</g>
</svg>
