<?xml version="1.0" encoding="utf-8"?>
<!-- Generator: Adobe Illustrator 21.1.0, SVG Export Plug-In . SVG Version: 6.00 Build 0)  -->
<svg version="1.1" xmlns="http://www.w3.org/2000/svg" xmlns:xlink="http://www.w3.org/1999/xlink" x="0px" y="0px"
	 viewBox="0 0 100 100" style="enable-background:new 0 0 100 100;" xml:space="preserve">
<style type="text/css">
	.st0{fill:#FFFFFF;stroke:#000000;stroke-width:3;stroke-miterlimit:10;}
	.st1{fill:none;stroke:#000000;stroke-width:3;stroke-miterlimit:10;}
	.st2{stroke:#000000;stroke-width:3;stroke-miterlimit:10;}
	.st3{stroke:#FFFFFF;stroke-width:3;stroke-miterlimit:10;}
	.st4{fill:none;stroke:#FFFFFF;stroke-width:2;stroke-miterlimit:10;}
	.st5{display:none;}
	.st6{fill:#FFFFFF;}
	.st7{clip-path:url(#SVGID_2_);}
	.st8{fill:none;stroke:#231F20;stroke-width:3;stroke-miterlimit:10;}
	.st9{clip-path:url(#SVGID_4_);}
	.st10{clip-path:url(#SVGID_6_);}
	.st11{display:inline;fill:none;stroke:#2A2A2A;stroke-width:3;stroke-miterlimit:10;}
	.st12{display:inline;fill:#FFFFFF;stroke:#2A2A2A;stroke-width:3;stroke-miterlimit:10;}
	.st13{display:inline;}
	.st14{fill:#2A2A2A;}
	.st15{display:inline;fill:#FFFFFF;}
	.st16{display:inline;fill:#2A2A2A;}
	.st17{fill:#2A2A2A;stroke:#2A2A2A;stroke-width:0.5;stroke-miterlimit:10;}
	.st18{display:inline;fill:none;stroke:#000000;stroke-width:3;stroke-miterlimit:10;}
	.st19{fill:#2A2A2A;stroke:#FFFFFF;stroke-width:3;stroke-miterlimit:10;}
	.st20{display:none;stroke:#000000;stroke-width:0.5;stroke-miterlimit:10;}
	.st21{fill:#2A2A2A;stroke:#FFFFFF;stroke-miterlimit:10;}
	.st22{fill:none;stroke:#2A2A2A;stroke-width:3;stroke-miterlimit:10;}
	.st23{fill:#9093B4;}
	.st24{fill:#FFFFFF;stroke:#2A2A2A;stroke-width:2;stroke-miterlimit:10;}
	.st25{fill:none;stroke:#2A2A2A;stroke-width:2;stroke-miterlimit:10;}
	.st26{fill:none;stroke:#9093B4;stroke-miterlimit:10;}
	.st27{fill:none;stroke:#9093B4;stroke-width:15;stroke-miterlimit:10;}
	.st28{fill:none;stroke:#9093B4;stroke-width:3;stroke-miterlimit:10;}
	.st29{fill:#969696;stroke:#9093B4;stroke-width:0.5;stroke-miterlimit:10;}
	.st30{fill:#9093B4;stroke:#FFFFFF;stroke-miterlimit:10;}
	.st31{fill:#FFFFFF;stroke:#9093B4;stroke-width:3;stroke-miterlimit:10;}
	.st32{fill:#9093B4;stroke:#FFFFFF;stroke-width:3;stroke-miterlimit:10;}
	.st33{fill:#9093B4;stroke:#9093B4;stroke-width:0.5;stroke-miterlimit:10;}
</style>
<g id="Layer_1">
	<g>
		<path d="M1033.7-1138.3l-2.1-0.8v51.7h31.1v-2.1h-28.9V-1138.3z M1066.9-1148.1"/>
	</g>
	<g id="QgoraV.tif">
		
			<image style="overflow:visible;" width="92" height="95" id="Layer_1_2_" xlink:href="F355E9F792310B0D.png"  transform="matrix(1 0 0 1 502.5 -1290.5)">
		</image>
	</g>
	<rect x="636.5" y="-1275.5" class="st0" width="62" height="62"/>
	<polyline class="st1" points="660,-1205 629,-1205 629,-1240 	"/>
	<path class="st1" d="M688-1264"/>
	<polygon class="st2" points="645,-1221 690,-1221 690,-1242 682,-1249.5 669.5,-1238.5 658.5,-1244.5 645,-1234.5 	"/>
	<polygon class="st2" points="645,-1266 690,-1266 690,-1253.5 682,-1261 669,-1249.5 658,-1255.5 645,-1245.5 	"/>
	<circle class="st3" cx="698.3" cy="-1274.9" r="13"/>
	<g>
		<line class="st4" x1="698.3" y1="-1269.4" x2="698.3" y2="-1280.4"/>
	</g>
	<g id="RBdJvN_1_">
		
			<image style="overflow:visible;" width="96" height="90" id="RBdJvN_2_" xlink:href="F355E9F792310B0F.jpg"  transform="matrix(1 0 0 1 510.5 -1182.5)">
		</image>
	</g>
	<rect x="631" y="-1158" class="st1" width="74" height="51"/>
	<polygon class="st1" points="681.5,-1158 631,-1158 631,-1169 671,-1169 	"/>
	<circle class="st1" cx="654.2" cy="-1132.2" r="4.2"/>
	<circle class="st1" cx="677.2" cy="-1143.2" r="4.2"/>
	<circle class="st1" cx="677.2" cy="-1121.2" r="4.2"/>
	<line class="st1" x1="658.5" y1="-1134.7" x2="674.5" y2="-1142.9"/>
	<line class="st1" x1="657.6" y1="-1130.3" x2="673.6" y2="-1122.1"/>
	<g id="CgCWnl.tif">
		
			<image style="overflow:visible;" width="93" height="92" id="Layer_1_1_" xlink:href="F355E9F792310B0A.png"  transform="matrix(1 0 0 1 756.5 -1295.5)">
		</image>
	</g>
	<path class="st1" d="M851.9-1219.8l-25.1-25.1l44.7-36.1c2.6-2.6,8.8-2.2,12.2,1.1l2.8,2.8c3.3,3.3,3,9.2,0.5,11.8L851.9-1219.8z"
		/>
	<path class="st1" d="M851.9-1218.7c-7.7-1.3-19.8,6-19.8,6l-12.7-12.7c0,0,7.5-12.5,6.4-19.5"/>
	<g>
		<g>
			<path d="M823.5-1212.3c-2.7-1.1-5.4-2.2-8.1-3.3c0.2,0.8,0.4,1.7,0.7,2.5c2.6-2.6,5.2-5.2,7.8-7.8c-0.7,0-1.4,0-2.1,0
				c1.9,1.9,3.8,3.8,5.7,5.7c0-0.7,0-1.4,0-2.1c-1.8,1.8-3.6,3.6-5.4,5.4c-1.4,1.4,0.8,3.5,2.1,2.1c1.8-1.8,3.6-3.6,5.4-5.4
				c0.6-0.6,0.6-1.5,0-2.1c-1.9-1.9-3.8-3.8-5.7-5.7c-0.6-0.6-1.5-0.6-2.1,0c-2.6,2.6-5.2,5.2-7.8,7.8c-0.9,0.9-0.3,2.1,0.7,2.5
				c2.7,1.1,5.4,2.2,8.1,3.3C824.5-1208.7,825.3-1211.6,823.5-1212.3z"/>
		</g>
	</g>
	<g id="_x32_e1qmW_1_">
		
			<image style="overflow:visible;" width="91" height="100" id="_x32_e1qmW_2_" xlink:href="F355E9F792310B0B.jpg"  transform="matrix(1 0 0 1 721.5 -1185.5)">
		</image>
	</g>
	<circle class="st1" cx="844.8" cy="-1147.8" r="28.2"/>
	<g>
		<g>
			<path d="M829.8-1163.8c8.1-7.1,19.1-7.6,28-1.6c1.6,1.1,3.1-1.5,1.5-2.6c-10-6.8-22.6-5.8-31.6,2.1
				C826.2-1164.7,828.3-1162.6,829.8-1163.8L829.8-1163.8z"/>
		</g>
	</g>
	<line class="st1" x1="862.4" y1="-1124.3" x2="868.1" y2="-1118.7"/>
	<g>
		<g>
			<path d="M884-1107.7c-1.6,1.6-3.3,3.3-4.9,4.9c0.7,0,1.4,0,2.1,0c-4.9-4.9-9.9-9.9-14.8-14.8c0,0.7,0,1.4,0,2.1
				c1.6-1.6,3.3-3.3,4.9-4.9c-0.7,0-1.4,0-2.1,0c4.9,4.9,9.9,9.9,14.8,14.8c1.4,1.4,3.5-0.8,2.1-2.1c-4.9-4.9-9.9-9.9-14.8-14.8
				c-0.6-0.6-1.5-0.6-2.1,0c-1.6,1.6-3.3,3.3-4.9,4.9c-0.6,0.6-0.6,1.5,0,2.1c4.9,4.9,9.9,9.9,14.8,14.8c0.6,0.6,1.5,0.6,2.1,0
				c1.6-1.6,3.3-3.3,4.9-4.9C887.5-1107,885.4-1109.1,884-1107.7z"/>
		</g>
	</g>
	<g id="mverVo.tif">
		
			<image style="overflow:visible;" width="96" height="95" id="Layer_1_3_" xlink:href="F355E9F792310B15.png"  transform="matrix(1 0 0 1 921.5 -1171.5)">
		</image>
	</g>
	<g>
		<path d="M1076.9-1135h-26.8c-0.6,0-1.1,0.5-1.1,1.1c0,0.6,0.5,1.1,1.1,1.1h26.8c0.6,0,1.1-0.5,1.1-1.1
			C1077.9-1134.5,1077.5-1135,1076.9-1135L1076.9-1135z M1076.9-1135"/>
		<path d="M1050.1-1141.4h10.7c0.6,0,1.1-0.5,1.1-1.1c0-0.6-0.5-1.1-1.1-1.1h-10.7c-0.6,0-1.1,0.5-1.1,1.1
			C1049-1141.9,1049.5-1141.4,1050.1-1141.4L1050.1-1141.4z M1050.1-1141.4"/>
		<path d="M1076.9-1126.4h-26.8c-0.6,0-1.1,0.5-1.1,1.1c0,0.6,0.5,1.1,1.1,1.1h26.8c0.6,0,1.1-0.5,1.1-1.1
			C1077.9-1125.9,1077.5-1126.4,1076.9-1126.4L1076.9-1126.4z M1076.9-1126.4"/>
		<path d="M1068.3-1117.9h-18.2c-0.6,0-1.1,0.5-1.1,1.1c0,0.6,0.5,1.1,1.1,1.1h18.2c0.6,0,1.1-0.5,1.1-1.1
			C1069.4-1117.4,1068.9-1117.9,1068.3-1117.9L1068.3-1117.9z M1068.3-1117.9"/>
		<path d="M1065.1-1107.1c0.6,0,1.1-0.5,1.1-1.1c0-0.6-0.5-1.1-1.1-1.1h-15c-0.6,0-1.1,0.5-1.1,1.1c0,0.6,0.5,1.1,1.1,1.1H1065.1z
			 M1065.1-1107.1"/>
		<path d="M1040.4-1156.4h31.1v15h15v19.3h2.1v-20.8l-15.6-15.6h-34.7v64.3h31.1v-2.1h-28.9V-1156.4z M1073.7-1154.9l11.3,11.3
			h-11.3V-1154.9z M1073.7-1154.9"/>
	</g>
	<path class="st5" d="M410.1-756.8l-3.1-3.1c-1.2-1.2-3.3-1.2-4.5,0L386-743.3l-2.3,8.3l-0.6,0.6c-0.4,0.4-0.4,1.1,0,1.5l0,0l0,0
		c0.2,0.2,0.5,0.3,0.7,0.3c0.3,0,0.5-0.1,0.8-0.3l0.6-0.6l8.3-2.3l16.5-16.5c0.6-0.6,0.9-1.4,0.9-2.3
		C411-755.3,410.7-756.1,410.1-756.8L410.1-756.8z M388.5-742.8l11-11l4.5,4.5l-11,11L388.5-742.8z M387.5-740.7l3.5,3.5l-4.7,1.3
		L387.5-740.7z M408.6-753.7l-3,3l-4.5-4.5l3-3c0.4-0.4,1.1-0.4,1.5,0l3.1,3.1c0.2,0.2,0.3,0.5,0.3,0.7
		C408.9-754.2,408.8-753.9,408.6-753.7L408.6-753.7z M408.6-753.7"/>
	<circle class="st6" cx="1037.9" cy="-1154.8" r="17.4"/>
	<g>
		<g>
			<defs>
				<rect id="SVGID_1_" x="1024.1" y="-1181.7" width="40.5" height="40.6"/>
			</defs>
			<clipPath id="SVGID_2_">
				<use xlink:href="#SVGID_1_"  style="overflow:visible;"/>
			</clipPath>
			<path class="st7" d="M1050.1-1152.6c-0.4-0.3-0.9-0.5-1.3-0.8c0.1-0.9,0.1-1.8,0-2.6c0.4-0.3,0.9-0.5,1.3-0.8
				c0.7-0.4,1-1.3,0.7-2.1h0l-0.9-2.2c-0.3-0.8-1.2-1.2-2-1c-0.5,0.1-1,0.2-1.5,0.4c-0.5-0.7-1.2-1.3-1.9-1.9c0.1-0.5,0.3-1,0.4-1.5
				c0.2-0.8-0.2-1.7-1-2l-2.2-0.9c-0.8-0.3-1.7,0-2.1,0.7c-0.3,0.4-0.5,0.9-0.8,1.3c-0.9-0.1-1.8-0.1-2.6,0
				c-0.3-0.4-0.5-0.9-0.8-1.3c-0.4-0.7-1.3-1-2.1-0.7l-2.2,0.9c-0.8,0.3-1.2,1.2-1,2c0.1,0.5,0.2,1,0.4,1.5
				c-0.7,0.5-1.3,1.2-1.9,1.9c-0.5-0.1-1-0.3-1.5-0.4c-0.8-0.2-1.7,0.2-2,1l-0.9,2.2c-0.3,0.8,0,1.7,0.7,2.1
				c0.4,0.3,0.9,0.5,1.3,0.8c-0.1,0.9-0.1,1.8,0,2.6c-0.4,0.3-0.9,0.5-1.3,0.8c-0.7,0.4-1,1.3-0.7,2.1l0.9,2.2c0.3,0.8,1.2,1.2,2,1
				c0.5-0.1,1-0.2,1.5-0.4c0.5,0.7,1.2,1.3,1.9,1.9c-0.1,0.5-0.3,1-0.4,1.5c-0.2,0.8,0.2,1.7,1,2l2.2,0.9c0.2,0.1,0.4,0.1,0.6,0.1
				c0.6,0,1.1-0.3,1.5-0.8c0.3-0.4,0.5-0.9,0.8-1.3c0.9,0.1,1.8,0.1,2.6,0c0.3,0.4,0.5,0.9,0.8,1.3c0.4,0.7,1.3,1,2.1,0.7l2.2-0.9
				c0.8-0.3,1.2-1.2,1-2c-0.1-0.5-0.2-1-0.4-1.5c0.7-0.5,1.3-1.2,1.9-1.9c0.5,0.1,1,0.3,1.5,0.4c0.8,0.2,1.7-0.2,2-1l0.9-2.2
				C1051.1-1151.2,1050.8-1152.1,1050.1-1152.6L1050.1-1152.6z M1048.2-1149c-0.5-0.1-0.9-0.2-1.4-0.4c-0.7-0.2-1.4,0.1-1.8,0.6
				c-0.5,0.6-1,1.2-1.7,1.7c-0.5,0.4-0.8,1.1-0.6,1.8c0.1,0.5,0.2,0.9,0.4,1.4l-2.1,0.9c-0.2-0.4-0.5-0.8-0.7-1.2
				c-0.3-0.6-1-0.9-1.7-0.8c-0.8,0.1-1.6,0.1-2.3,0c-0.7-0.1-1.3,0.2-1.7,0.8c-0.2,0.4-0.5,0.8-0.7,1.2l-2.1-0.9
				c0.1-0.5,0.2-0.9,0.4-1.4c0.2-0.7-0.1-1.4-0.6-1.8c-0.6-0.5-1.2-1-1.7-1.7c-0.4-0.5-1.1-0.8-1.8-0.6c-0.5,0.1-0.9,0.2-1.4,0.4
				l-0.9-2.1c0.4-0.2,0.8-0.5,1.2-0.7c0.6-0.3,0.9-1,0.8-1.7c-0.1-0.8-0.1-1.6,0-2.3c0.1-0.7-0.2-1.3-0.8-1.7
				c-0.4-0.2-0.8-0.5-1.2-0.7l0.9-2.1c0.5,0.1,0.9,0.2,1.4,0.4c0.7,0.2,1.4-0.1,1.8-0.6c0.5-0.6,1-1.2,1.7-1.7
				c0.5-0.4,0.8-1.1,0.6-1.8c-0.1-0.5-0.2-0.9-0.4-1.4l2.1-0.9c0.2,0.4,0.5,0.8,0.7,1.2c0.3,0.6,1,0.9,1.7,0.8
				c0.8-0.1,1.6-0.1,2.3,0c0.7,0.1,1.3-0.2,1.7-0.8c0.2-0.4,0.5-0.8,0.7-1.2l2.1,0.9c-0.1,0.5-0.2,0.9-0.4,1.4
				c-0.2,0.7,0.1,1.4,0.6,1.8c0.6,0.5,1.2,1,1.7,1.7c0.4,0.5,1.1,0.8,1.8,0.6c0.5-0.1,0.9-0.2,1.4-0.4l0.9,2.1
				c-0.4,0.2-0.8,0.5-1.2,0.7c-0.6,0.3-0.9,1-0.8,1.7c0.1,0.8,0.1,1.6,0,2.3c-0.1,0.7,0.2,1.3,0.8,1.7c0.4,0.2,0.8,0.5,1.2,0.7
				L1048.2-1149z M1048.2-1149"/>
		</g>
		<path d="M1043.2-1157c-1.3-3.1-4.9-4.6-8.1-3.3c-3.1,1.3-4.6,4.9-3.3,8.1c0.6,1.5,1.8,2.7,3.3,3.3c0.8,0.3,1.6,0.5,2.4,0.5
			c0.8,0,1.6-0.2,2.4-0.5C1043-1150.2,1044.5-1153.9,1043.2-1157L1043.2-1157z M1039.2-1150.6c-1.1,0.4-2.3,0.4-3.3,0
			c-1.1-0.4-1.9-1.3-2.4-2.4c-0.9-2.2,0.1-4.8,2.4-5.7c0.5-0.2,1.1-0.3,1.7-0.3c1.7,0,3.3,1,4,2.7
			C1042.5-1154.1,1041.4-1151.5,1039.2-1150.6L1039.2-1150.6z M1039.2-1150.6"/>
	</g>
	<g id="FJkfgD_1_">
		
			<image style="overflow:visible;" width="97" height="96" id="FJkfgD_2_" xlink:href="F355E9F792310B17.jpg"  transform="matrix(1 0 0 1 916.5 -1282.5)">
		</image>
	</g>
	<rect x="1018.1" y="-1274.5" class="st8" width="6.6" height="6.6"/>
	<line class="st8" x1="1021.4" y1="-1222.7" x2="1021.4" y2="-1212.5"/>
	<line class="st8" x1="1021.4" y1="-1241" x2="1021.4" y2="-1230.8"/>
	<line class="st8" x1="1021.4" y1="-1259.3" x2="1021.4" y2="-1249.1"/>
	<rect x="1018.1" y="-1204.4" class="st8" width="6.6" height="6.6"/>
	
		<rect x="1088.3" y="-1274.5" transform="matrix(-1.836970e-16 1 -1 -1.836970e-16 -179.6286 -2362.7656)" class="st8" width="6.6" height="6.6"/>
	<line class="st8" x1="1043" y1="-1271.2" x2="1032.9" y2="-1271.2"/>
	<line class="st8" x1="1061.3" y1="-1271.2" x2="1051.2" y2="-1271.2"/>
	<line class="st8" x1="1079.6" y1="-1271.2" x2="1069.5" y2="-1271.2"/>
	
		<rect x="1088.3" y="-1204.1" transform="matrix(-3.527632e-03 1 -1 -3.527632e-03 -105.3767 -2296.6235)" class="st8" width="6.6" height="6.6"/>
	<line class="st8" x1="1043.1" y1="-1201" x2="1032.9" y2="-1201"/>
	<line class="st8" x1="1061.3" y1="-1200.9" x2="1051.2" y2="-1201"/>
	<line class="st8" x1="1079.6" y1="-1200.9" x2="1069.5" y2="-1200.9"/>
	<line class="st8" x1="1091.8" y1="-1249.6" x2="1091.8" y2="-1259.8"/>
	<line class="st8" x1="1091.7" y1="-1231.3" x2="1091.7" y2="-1241.5"/>
	<line class="st8" x1="1091.6" y1="-1213" x2="1091.7" y2="-1223.2"/>
	<g>
		<g>
			<defs>
				<rect id="SVGID_3_" x="1037.8" y="-1258.2" width="37.5" height="44.4"/>
			</defs>
			<clipPath id="SVGID_4_">
				<use xlink:href="#SVGID_3_"  style="overflow:visible;"/>
			</clipPath>
			<path class="st9" d="M1074.8-1257.4c0-0.5-0.4-0.8-0.9-0.8h-34.7c-0.5,0-0.8,0.4-0.9,0.8l-0.5,10.4c0,0.2,0.1,0.5,0.2,0.6
				c0.2,0.2,0.4,0.3,0.6,0.3h2.9c0.5,0,0.8-0.3,0.9-0.8c0.1-1.8,0.5-3.2,1.2-4.2c0.7-1,1.4-1.6,2.4-2c0.5-0.2,1.6-0.4,3.9-0.4h2.5
				v29.4c0,3-0.4,3.9-0.5,4.1c-0.6,0.8-1.6,1.3-3.1,1.3h-1.5c-0.5,0-0.9,0.4-0.9,0.9v3c0,0.5,0.4,0.9,0.9,0.9h18
				c0.5,0,0.9-0.4,0.9-0.9v-3c0-0.5-0.4-0.9-0.9-0.9h-1.5c-1.4,0-2.4-0.3-3-1c-0.2-0.2-0.6-1-0.6-4.3v-21.9c0-0.5-0.4-0.9-0.9-0.9
				c-0.5,0-0.9,0.4-0.9,0.9v21.9c0,2.9,0.3,4.6,1.1,5.5c0,0,0,0,0,0c1,1.1,2.4,1.6,4.3,1.6h0.6v1.2h-16.3v-1.2h0.6
				c2.1,0,3.6-0.7,4.5-2c0.6-0.8,0.8-2.4,0.8-5.1v-30.3c0-0.5-0.4-0.9-0.9-0.9h-3.4c-2.1,0-3.6,0.2-4.5,0.5c0,0,0,0,0,0
				c-1.3,0.5-2.3,1.3-3.2,2.6c-0.7,1.1-1.2,2.5-1.4,4.2h-1.2l0.4-8.6h33.1l0.4,8.6h-1.2c-0.2-1.5-0.5-2.6-0.9-3.3
				c-0.7-1.4-1.7-2.4-2.9-3c-1.2-0.6-2.8-1-4.7-1h-4.3c-0.5,0-0.9,0.4-0.9,0.9c0,0.5,0.4,0.9,0.9,0.9h4.3c1.6,0,2.9,0.3,3.8,0.8
				c0.9,0.5,1.7,1.3,2.2,2.3c0.2,0.5,0.6,1.4,0.8,3.5c0.1,0.4,0.4,0.8,0.9,0.8h2.9c0.2,0,0.5-0.1,0.6-0.3c0.2-0.2,0.2-0.4,0.2-0.6
				L1074.8-1257.4z M1074.8-1257.4"/>
		</g>
		<path d="M1058.5-1251.4v2.6c0,0.5,0.4,0.9,0.9,0.9c0.5,0,0.9-0.4,0.9-0.9v-2.6c0-0.5-0.4-0.9-0.9-0.9
			C1058.9-1252.2,1058.5-1251.9,1058.5-1251.4L1058.5-1251.4z M1058.5-1251.4"/>
		<path d="M1050-1230c0.5,0,0.9-0.4,0.9-0.9v-2c0-0.5-0.4-0.9-0.9-0.9c-0.5,0-0.9,0.4-0.9,0.9v2
			C1049.1-1230.4,1049.5-1230,1050-1230L1050-1230z M1050-1230"/>
		<path d="M1049.1-1221.1c0,0.5,0.4,0.9,0.9,0.9c0.5,0,0.9-0.4,0.9-0.9v-6.5c0-0.5-0.4-0.9-0.9-0.9c-0.5,0-0.9,0.4-0.9,0.9V-1221.1z
			 M1049.1-1221.1"/>
	</g>
	<g>
		<g>
			<defs>
				<rect id="SVGID_5_" x="1073.5" y="-1122.2" width="30.9" height="30.5"/>
			</defs>
			<clipPath id="SVGID_6_">
				<use xlink:href="#SVGID_5_"  style="overflow:visible;"/>
			</clipPath>
			<path class="st10" d="M1104.2-1122c-0.2-0.2-0.5-0.2-0.6-0.2c-0.9,0-3.1,0.3-3.8,0.4c-0.2,0-0.4,0-0.6,0.1
				c-1.1,0.1-3,0.3-4.3,1.6c-0.8,0.9-2.5,2.7-3.1,3.4c-0.2-0.2-0.4-0.5-0.6-0.7c-1-1.1-1.4-1.2-1.6-1.2c-0.2,0-0.3,0.1-0.4,0.2
				c-3,3-4.6,6.2-5.5,8.4c-0.5,1.2-0.7,2.2-0.9,2.9l-0.8-1.5l-0.4,0.4c-0.9,0.9-0.9,1.3-0.9,2.4c0,0.4,0,1.3,0,2.4
				c0,1-0.1,2.2-0.1,3.1c0,0.4,0,0.7,0,1l-0.5,0.5c0-0.3,0-0.7,0-1l-0.4-2c-0.1-0.4-0.3-0.5-0.5-0.5c-0.2,0-0.4,0.1-0.5,0.6
				l-0.3,2.1c0,0.3,0,0.8,0,1.1l0.3,1.2l-0.8,0.8c0-0.3,0-0.7,0-1l-0.4-2c-0.1-0.4-0.3-0.5-0.5-0.5c-0.2,0-0.4,0.1-0.5,0.6l-0.3,2.1
				c0,0.3,0,0.8,0,1.1l0.3,1.2l-2.8,2.8c-0.2,0.2-0.2,0.4-0.1,0.5c0.1,0.2,0.2,0.3,0.4,0.3c0.1,0,0.2,0,0.2-0.1l2.3-1.1
				c0.1-0.1,0.3-0.2,0.4-0.3l1-1l0.9,0.2c0.2,0,0.4,0.1,0.7,0.1c0.2,0,0.3,0,0.4,0l2.1-0.3c0.5-0.1,0.6-0.3,0.6-0.5
				c0-0.2-0.1-0.4-0.5-0.5l-2-0.4c-0.2,0-0.4,0-0.6,0c0,0,0,0-0.1,0l0.7-0.7l0.9,0.2c0.2,0,0.4,0.1,0.7,0.1c0.2,0,0.3,0,0.4,0
				l2.1-0.3c0.5-0.1,0.6-0.3,0.6-0.5c0-0.2-0.1-0.4-0.5-0.5l-2-0.4c-0.2,0-0.4,0-0.6,0c0,0,0,0-0.1,0l0.5-0.5c0.2,0,0.4,0,0.6,0
				c0.9,0,2.1,0,3.1-0.1c0.8,0,1.6,0,2.1,0c0.1,0,0.2,0,0.3,0c0.2,0,0.3,0,0.5,0c0.8,0,1.2-0.2,1.9-0.9l0.4-0.4l-1.6-0.8
				c0.7-0.2,1.8-0.5,3-1c2.2-0.9,5.4-2.5,8.3-5.4c0.1-0.1,0.2-0.3,0.2-0.4c0-0.5-1-1.5-1.9-2.2c0.8-0.7,2.6-2.3,3.4-3.1
				c1.4-1.3,1.5-3.2,1.6-4.3c0-0.3,0-0.5,0.1-0.6c0.1-0.6,0.2-1.5,0.3-2.4c0.1-0.5,0.1-0.9,0.1-1.2
				C1104.4-1121.4,1104.4-1121.8,1104.2-1122L1104.2-1122z M1104.2-1122"/>
		</g>
	</g>
	<path d="M1029.4-1156c-0.8,0.1-1.5,0.8-1.5,1.6l0,1.7c0,0.8,0.6,1.6,1.5,1.7l1.2,0.2c0.2,0.8,0.5,1.5,0.9,2.2l-0.8,1
		c-0.5,0.7-0.5,1.6,0.1,2.2l1.2,1.2c0.6,0.6,1.5,0.7,2.2,0.2l1-0.8c0.7,0.4,1.4,0.7,2.2,1l0.1,1.3c0.1,0.8,0.8,1.5,1.6,1.5l1.7,0
		c0.8,0,1.6-0.6,1.7-1.5l0.2-1.2c0.8-0.2,1.6-0.5,2.4-0.9l0.9,0.8c0.7,0.5,1.6,0.5,2.2-0.1l1.2-1.2c0.6-0.6,0.7-1.5,0.2-2.2
		l-0.7-0.9c0.4-0.7,0.8-1.5,1-2.3l1.1-0.1c0.8-0.1,1.5-0.8,1.5-1.6l0-1.7c0-0.8-0.6-1.6-1.5-1.7l-1.1-0.1c-0.2-0.8-0.5-1.6-0.9-2.3
		l0.7-0.8c0.5-0.7,0.5-1.6-0.1-2.2l-1.2-1.2c-0.6-0.6-1.5-0.7-2.2-0.2l-0.8,0.6c-0.8-0.5-1.6-0.8-2.4-1.1l-0.1-1
		c-0.1-0.8-0.8-1.5-1.6-1.5l-1.7,0c-0.8,0-1.6,0.6-1.7,1.5l-0.1,1c-0.9,0.2-1.7,0.6-2.5,1l-0.8-0.7c-0.7-0.5-1.6-0.5-2.2,0.1
		l-1.2,1.2c-0.6,0.6-0.7,1.5-0.2,2.2l0.7,0.9c-0.4,0.7-0.7,1.5-1,2.3L1029.4-1156z M1040.3-1157.9c2.4,0,4.4,2,4.3,4.4
		c0,2.4-2,4.4-4.4,4.3c-2.4,0-4.4-2-4.3-4.5C1035.9-1156,1037.9-1158,1040.3-1157.9L1040.3-1157.9z M1040.3-1157.9"/>
	<path class="st5" d="M351.4-594c-0.8,0.1-1.5,0.8-1.5,1.6l0,1.7c0,0.8,0.6,1.6,1.5,1.7l1.2,0.2c0.2,0.8,0.5,1.5,0.9,2.2l-0.8,1
		c-0.5,0.7-0.5,1.6,0.1,2.2l1.2,1.2c0.6,0.6,1.5,0.7,2.2,0.2l1-0.8c0.7,0.4,1.4,0.7,2.2,1l0.1,1.3c0.1,0.8,0.8,1.5,1.6,1.5l1.7,0
		c0.8,0,1.6-0.6,1.7-1.5l0.2-1.2c0.8-0.2,1.6-0.5,2.4-0.9l0.9,0.8c0.7,0.5,1.6,0.5,2.2-0.1l1.2-1.2c0.6-0.6,0.7-1.5,0.2-2.2
		l-0.7-0.9c0.4-0.7,0.8-1.5,1-2.3l1.1-0.1c0.8-0.1,1.5-0.8,1.5-1.6l0-1.7c0-0.8-0.6-1.6-1.5-1.7L372-594c-0.2-0.8-0.5-1.6-0.9-2.3
		l0.7-0.8c0.5-0.7,0.5-1.6-0.1-2.2l-1.2-1.2c-0.6-0.6-1.5-0.7-2.2-0.2l-0.8,0.6c-0.8-0.5-1.6-0.8-2.4-1.1l-0.1-1
		c-0.1-0.8-0.8-1.5-1.6-1.5l-1.7,0c-0.8,0-1.6,0.6-1.7,1.5l-0.1,1c-0.9,0.2-1.7,0.6-2.5,1l-0.8-0.7c-0.7-0.5-1.6-0.5-2.2,0.1
		l-1.2,1.2c-0.6,0.6-0.7,1.5-0.2,2.2l0.7,0.9c-0.4,0.7-0.7,1.5-1,2.3L351.4-594z M362.3-595.9c2.4,0,4.4,2,4.3,4.4
		c0,2.4-2,4.4-4.4,4.3c-2.4,0-4.4-2-4.3-4.5C357.9-594,359.9-596,362.3-595.9L362.3-595.9z M362.3-595.9"/>
</g>
<g id="Layer_2">
	<g id="CMS" class="st5">
		<polyline class="st11" points="19.5,47.7 19.5,88 40.4,88 		"/>
		<polygon class="st12" points="25.8,18.5 25.8,81.7 74.5,81.7 74.5,32 61.9,18.5 		"/>
		<polyline class="st12" points="73.3,33 61.3,33 61.3,19.2 		"/>
		<g class="st13">
			<g>
				<path class="st14" d="M35.5,32.7c3.5,0,7,0,10.4,0c1.4,0,1.5-2.2,0-2.2c-3.5,0-7,0-10.4,0C34.1,30.4,34.1,32.7,35.5,32.7
					L35.5,32.7z"/>
			</g>
		</g>
		<g class="st13">
			<g>
				<path class="st14" d="M35.5,61.6c9.4,0,18.8,0,28.2,0c1.4,0,1.5-2.2,0-2.2c-9.4,0-18.8,0-28.2,0C34.1,59.3,34.1,61.6,35.5,61.6
					L35.5,61.6z"/>
			</g>
		</g>
		<g class="st13">
			<g>
				<path class="st14" d="M35.5,51.9c9.4,0,18.8,0,28.2,0c1.4,0,1.5-2.2,0-2.2c-9.4,0-18.8,0-28.2,0C34.1,49.7,34.1,51.9,35.5,51.9
					L35.5,51.9z"/>
			</g>
		</g>
		<g class="st13">
			<g>
				<path class="st14" d="M35.5,71.2c9.4,0,18.8,0,28.2,0c1.4,0,1.5-2.2,0-2.2c-9.4,0-18.8,0-28.2,0C34.1,68.9,34.1,71.2,35.5,71.2
					L35.5,71.2z"/>
			</g>
		</g>
		<g class="st13">
			<g>
				<path class="st14" d="M35.5,42.3c9.4,0,18.8,0,28.2,0c1.4,0,1.5-2.2,0-2.2c-9.4,0-18.8,0-28.2,0C34.1,40.1,34.1,42.3,35.5,42.3
					L35.5,42.3z"/>
			</g>
		</g>
		<ellipse transform="matrix(1 -5.697945e-03 5.697945e-03 1 -0.1255 0.1272)" class="st15" cx="22.3" cy="22.1" rx="15" ry="15"/>
		<path class="st16" d="M11.4,19.6c-0.8,0.1-1.5,0.8-1.5,1.7l0,1.7c0,0.8,0.6,1.6,1.5,1.7l1.2,0.2c0.2,0.8,0.5,1.5,0.9,2.2l-0.8,1
			c-0.5,0.7-0.5,1.6,0.1,2.2l1.2,1.2c0.6,0.6,1.5,0.7,2.2,0.1l1-0.8c0.7,0.4,1.4,0.7,2.2,1l0.1,1.3c0.1,0.8,0.8,1.5,1.7,1.5l1.7,0
			c0.8,0,1.6-0.6,1.7-1.5l0.1-1.2c0.8-0.2,1.6-0.5,2.4-0.9l0.9,0.7c0.7,0.5,1.6,0.5,2.2-0.1l1.2-1.2c0.6-0.6,0.7-1.5,0.1-2.2
			L31,27.1c0.4-0.7,0.8-1.5,1-2.3l1.1-0.1c0.8-0.1,1.5-0.8,1.5-1.7l0-1.7c0-0.8-0.6-1.6-1.5-1.7L32,19.5c-0.2-0.8-0.5-1.6-0.9-2.3
			l0.7-0.8c0.5-0.7,0.5-1.6-0.1-2.2l-1.2-1.2c-0.6-0.6-1.5-0.7-2.2-0.1l-0.8,0.6c-0.8-0.5-1.6-0.8-2.4-1l-0.1-1
			c-0.1-0.8-0.8-1.5-1.7-1.5l-1.7,0c-0.8,0-1.6,0.6-1.7,1.5l-0.1,1c-0.9,0.2-1.7,0.6-2.5,1l-0.8-0.7c-0.7-0.5-1.6-0.5-2.2,0.1L13,14
			c-0.6,0.6-0.7,1.5-0.1,2.2l0.7,0.9c-0.4,0.7-0.7,1.5-0.9,2.3L11.4,19.6z M22.3,17.6c2.4,0,4.4,2,4.4,4.4c0,2.4-2,4.4-4.4,4.4
			c-2.4,0-4.4-2-4.4-4.4C17.9,19.5,19.9,17.6,22.3,17.6L22.3,17.6z M22.3,17.6"/>
		
			<ellipse transform="matrix(0.672 -0.7405 0.7405 0.672 -29.1982 73.8753)" class="st15" cx="68.8" cy="69.9" rx="29.9" ry="17.1"/>
		<g class="st13">
			<path class="st17" d="M57.2,85.7c-1.1,0-2.9,0-4.8,0l1.1-1.1c2.3,0,4.9,0,6.7,0c0.5,0,1-0.4,1-1c0-0.5-0.4-1-1-1
				c-1.3,0-3.1,0-4.8,0l1.1-1.1c0.7,0,1.3,0,1.9,0c3.2,0.1,5.1,0.1,7-1.8l21.9-21.9c2.3-2.3,2.3-6.2,0-8.5c0,0,0,0-0.1-0.1
				c0,0,0,0,0,0c0,0,0,0,0,0c0,0,0,0,0,0c0,0,0,0,0,0c0,0,0,0,0,0c0,0,0,0,0,0c0,0,0,0,0,0c0,0,0,0,0,0c0,0,0,0,0,0c0,0,0,0,0,0
				c0,0,0,0,0,0c0,0,0,0,0,0c0,0,0,0,0,0c0,0,0,0,0,0c-4.7-0.3-9.6,0.4-14.2,2.2c-4.8,1.9-9.2,4.7-12.9,8.4
				c-3.8,3.8-6.6,8.1-8.4,12.9c-1.7,4.5-2.5,9.2-2.2,13.8l-1.4,1.4c-0.4,0.4-0.4,1,0,1.4c0.4,0.4,1,0.4,1.4,0l1.4-1.4
				c2.5,0,5.3,0,6.7,0c0.5,0,1-0.4,1-1C58.2,86.2,57.7,85.7,57.2,85.7L57.2,85.7z M86.1,56.4L64.2,78.4c-1.3,1.3-2.6,1.3-5.6,1.2
				c0,0,0,0,0,0l28.2-28.2C87.7,53,87.5,55.1,86.1,56.4L86.1,56.4z M61.1,61c6.5-6.5,14.9-10.1,23.4-10.2L51,84.4
				C51,75.9,54.6,67.5,61.1,61L61.1,61z M61.1,61"/>
		</g>
	</g>
	<g id="collect" class="st5">
		<path class="st18" d="M67.5,26"/>
		<polygon class="st11" points="64.7,27.9 54.8,18.7 17.2,18.7 17.2,27.9 17.2,76.8 88.2,76.8 88.2,27.9 		"/>
		<circle class="st11" cx="38.2" cy="53.8" r="4.2"/>
		<circle class="st11" cx="61.2" cy="42.8" r="4.2"/>
		<circle class="st11" cx="61.2" cy="63.8" r="4.2"/>
		<line class="st11" x1="42.5" y1="51.3" x2="58.5" y2="43.1"/>
		<line class="st11" x1="41.6" y1="54.7" x2="57.6" y2="62.9"/>
		<polyline class="st11" points="42,83 11,83 11,48 		"/>
	</g>
	<g id="search" class="st5">
		<circle class="st11" cx="43.3" cy="40.3" r="29.3"/>
		<g class="st13">
			<g>
				<path class="st14" d="M27.8,23.6c8.3-7.3,19.9-7.9,29.1-1.7c1.6,1.1,3.1-1.5,1.5-2.6c-10.3-7-23.4-6-32.7,2.2
					C24.2,22.8,26.3,24.9,27.8,23.6L27.8,23.6z"/>
			</g>
		</g>
		<line class="st11" x1="61.6" y1="64.6" x2="67.5" y2="70.5"/>
		<g class="st13">
			<g>
				<path class="st14" d="M84,81.9c-1.7,1.7-3.4,3.4-5.1,5.1c0.7,0,1.4,0,2.1,0c-5.1-5.1-10.3-10.3-15.4-15.4c0,0.7,0,1.4,0,2.1
					c1.7-1.7,3.4-3.4,5.1-5.1c-0.7,0-1.4,0-2.1,0C73.8,73.7,78.9,78.9,84,84c1.4,1.4,3.5-0.8,2.1-2.1C81,76.7,75.9,71.6,70.8,66.5
					c-0.6-0.6-1.5-0.6-2.1,0c-1.7,1.7-3.4,3.4-5.1,5.1c-0.6,0.6-0.6,1.5,0,2.1c5.1,5.1,10.3,10.3,15.4,15.4c0.6,0.6,1.5,0.6,2.1,0
					c1.7-1.7,3.4-3.4,5.1-5.1C87.5,82.6,85.4,80.5,84,81.9z"/>
			</g>
		</g>
	</g>
	<g id="lightbox" class="st5">
		<rect x="17.5" y="19.5" class="st12" width="62" height="62"/>
		<polyline class="st11" points="42,88 11,88 11,53 		"/>
		<path class="st18" d="M66,31"/>
		<polyline class="st11" points="17.5,77.3 37.3,58.5 49.7,66 62.6,48.9 79.5,71.1 		"/>
		<g class="st13">
			<circle class="st6" cx="78.1" cy="21" r="13"/>
			<circle class="st19" cx="78.1" cy="21" r="13"/>
			<line class="st4" x1="78.1" y1="26.5" x2="78.1" y2="15.5"/>
			<line class="st4" x1="72.6" y1="21" x2="83.6" y2="21"/>
		</g>
	</g>
	<g id="Annotator" class="st5">
		<rect x="11.1" y="11" class="st11" width="6.6" height="6.6"/>
		<line class="st11" x1="14.4" y1="62.8" x2="14.4" y2="73"/>
		<line class="st11" x1="14.4" y1="44.5" x2="14.4" y2="54.7"/>
		<line class="st11" x1="14.4" y1="26.2" x2="14.4" y2="36.4"/>
		<rect x="11.1" y="81.4" class="st11" width="6.6" height="6.6"/>
		
			<rect x="81.3" y="11" transform="matrix(-1.836970e-16 1 -1 -1.836970e-16 98.9417 -70.3359)" class="st11" width="6.6" height="6.6"/>
		<line class="st11" x1="36" y1="14.3" x2="25.9" y2="14.3"/>
		<line class="st11" x1="54.3" y1="14.3" x2="44.2" y2="14.3"/>
		<line class="st11" x1="72.6" y1="14.3" x2="62.5" y2="14.3"/>
		
			<rect x="81.3" y="81.4" transform="matrix(-3.527632e-03 1 -1 -3.527632e-03 169.6335 0.3347)" class="st11" width="6.6" height="6.6"/>
		<line class="st11" x1="36.1" y1="84.5" x2="25.9" y2="84.5"/>
		<line class="st11" x1="54.3" y1="84.6" x2="44.2" y2="84.5"/>
		<line class="st11" x1="72.6" y1="84.6" x2="62.5" y2="84.6"/>
		<line class="st11" x1="84.8" y1="35.9" x2="84.9" y2="25.7"/>
		<line class="st11" x1="84.8" y1="54.2" x2="84.8" y2="44"/>
		<line class="st11" x1="84.7" y1="72.5" x2="84.7" y2="62.3"/>
		<g class="st13">
			<g>
				<path class="st17" d="M67.8,28.1c0-0.5-0.4-0.8-0.9-0.8H32.2c-0.5,0-0.8,0.4-0.9,0.8l-0.5,10.4c0,0.2,0.1,0.5,0.2,0.6
					c0.2,0.2,0.4,0.3,0.6,0.3h2.9c0.5,0,0.8-0.3,0.9-0.8c0.1-1.8,0.5-3.2,1.2-4.2c0.7-1,1.4-1.6,2.4-2c0.5-0.2,1.6-0.4,3.9-0.4h2.5
					v29.4c0,3-0.4,3.9-0.5,4.1c-0.6,0.8-1.6,1.3-3.1,1.3h-1.5c-0.5,0-0.9,0.4-0.9,0.9v3c0,0.5,0.4,0.9,0.9,0.9h18
					c0.5,0,0.9-0.4,0.9-0.9v-3c0-0.5-0.4-0.9-0.9-0.9h-1.5c-1.4,0-2.4-0.3-3-1c-0.2-0.2-0.6-1-0.6-4.3V39.7c0-0.5-0.4-0.9-0.9-0.9
					c-0.5,0-0.9,0.4-0.9,0.9v21.9c0,2.9,0.3,4.6,1.1,5.5c0,0,0,0,0,0c1,1.1,2.4,1.6,4.3,1.6h0.6v1.2H41.2v-1.2h0.6
					c2.1,0,3.6-0.7,4.5-2c0.6-0.8,0.8-2.4,0.8-5.1V31.2c0-0.5-0.4-0.9-0.9-0.9H43c-2.1,0-3.6,0.2-4.5,0.5c0,0,0,0,0,0
					c-1.3,0.5-2.3,1.3-3.2,2.6c-0.7,1.1-1.2,2.5-1.4,4.2h-1.2L33,29h33.1l0.4,8.6h-1.2c-0.2-1.5-0.5-2.6-0.9-3.3
					c-0.7-1.4-1.7-2.4-2.9-3c-1.2-0.6-2.8-1-4.7-1h-4.3c-0.5,0-0.9,0.4-0.9,0.9c0,0.5,0.4,0.9,0.9,0.9h4.3c1.6,0,2.9,0.3,3.8,0.8
					c0.9,0.5,1.7,1.3,2.2,2.3c0.2,0.5,0.6,1.4,0.8,3.5c0.1,0.4,0.4,0.8,0.9,0.8h2.9c0.2,0,0.5-0.1,0.6-0.3c0.2-0.2,0.2-0.4,0.2-0.6
					L67.8,28.1z M67.8,28.1"/>
			</g>
			<path class="st17" d="M51.5,33.5V39c0,1.1,0.4,2,0.9,2c0.5,0,0.9-0.9,0.9-2v-7.5c0-1.1-0.4-0.5-0.9-0.5c-0.5,0-0.9-0.6-0.9,0.5
				V33.5z M51.5,31.5"/>
			<path class="st20" d="M43,55.5c0.5,0,0.9-0.4,0.9-0.9v-2c0-0.5-0.4-0.9-0.9-0.9c-0.5,0-0.9,0.4-0.9,0.9v2
				C42.1,55.1,42.5,55.5,43,55.5L43,55.5z M43,55.5"/>
			<path class="st20" d="M42.1,64.4c0,0.5,0.4,0.9,0.9,0.9c0.5,0,0.9-0.4,0.9-0.9v-6.5c0-0.5-0.4-0.9-0.9-0.9
				c-0.5,0-0.9,0.4-0.9,0.9V64.4z M42.1,64.4"/>
		</g>
	</g>
	<g id="Text_Editor">
		<g>
			<polygon class="st14" points="9.5,9.5 9.5,49.1 40,49.1 40,18 32.2,9.5 			"/>
		</g>
		<polyline class="st21" points="40.3,17.6 32.8,17.6 32.8,8.9 		"/>
		<g>
			<g>
				<path class="st6" d="M15.5,18.4c2.1,0,4.2,0,6.3,0c1,0,1-1.5,0-1.5c-2.1,0-4.2,0-6.3,0C14.6,16.9,14.6,18.4,15.5,18.4L15.5,18.4
					z"/>
			</g>
		</g>
		<g>
			<g>
				<path class="st6" d="M15.5,36.5c5.7,0,11.3,0,17,0c1,0,1-1.5,0-1.5c-5.7,0-11.3,0-17,0C14.6,35,14.6,36.5,15.5,36.5L15.5,36.5z"
					/>
			</g>
		</g>
		<g>
			<g>
				<path class="st6" d="M15.5,30.5c5.7,0,11.3,0,17,0c1,0,1-1.5,0-1.5c-5.7,0-11.3,0-17,0C14.6,29,14.6,30.5,15.5,30.5L15.5,30.5z"
					/>
			</g>
		</g>
		<g>
			<g>
				<path class="st6" d="M15.5,42.5c5.7,0,11.3,0,17,0c1,0,1-1.5,0-1.5c-5.7,0-11.3,0-17,0C14.6,41,14.6,42.5,15.5,42.5L15.5,42.5z"
					/>
			</g>
		</g>
		<g>
			<g>
				<path class="st6" d="M15.5,24.5c5.7,0,11.3,0,17,0c1,0,1-1.5,0-1.5c-5.7,0-11.3,0-17,0C14.6,23,14.6,24.5,15.5,24.5L15.5,24.5z"
					/>
			</g>
		</g>
		<ellipse transform="matrix(0.672 -0.7405 0.7405 0.672 -19.6732 45.7941)" class="st6" cx="41.9" cy="45.1" rx="30.3" ry="10.6"/>
		<g>
			<path class="st14" d="M34.1,83.2c-1.9,0-5.1,0-8.3,0l2-2c4,0,8.5,0,11.7,0c0.9,0,1.7-0.7,1.7-1.7c0-0.9-0.7-1.7-1.7-1.7
				c-2.3,0-5.3,0-8.3,0l2-2c1.2,0,2.3,0,3.3,0c5.5,0.1,8.9,0.2,12.2-3.1l38-38c4.1-4.1,4.1-10.7,0-14.7c0,0-0.1-0.1-0.1-0.1
				c0,0,0,0-0.1,0c0,0,0,0-0.1-0.1c0,0,0,0-0.1,0c0,0,0,0-0.1,0c0,0-0.1,0-0.1,0c0,0,0,0-0.1,0c0,0-0.1,0-0.1,0c0,0,0,0-0.1,0
				c0,0-0.1,0-0.1,0c0,0,0,0-0.1,0c0,0-0.1,0-0.1,0c0,0-0.1,0-0.1,0c0,0,0,0-0.1,0c0,0,0,0,0,0c-8.1-0.6-16.6,0.8-24.6,3.8
				c-8.3,3.2-15.8,8.1-22.3,14.6c-6.5,6.5-11.4,14-14.6,22.3c-3,7.7-4.3,15.9-3.9,23.8l-2.4,2.4c-0.7,0.7-0.7,1.7,0,2.4
				c0.7,0.7,1.7,0.7,2.4,0l2.5-2.5c4.3,0,9.1,0,11.7,0c0.9,0,1.7-0.7,1.7-1.7C35.7,84,35,83.2,34.1,83.2L34.1,83.2z M84.1,32.5
				l-38,38c-2.3,2.3-4.5,2.3-9.7,2.2c0,0,0,0,0,0l48.8-48.8C86.8,26.5,86.5,30.1,84.1,32.5L84.1,32.5z M40.9,40.4
				c11.2-11.2,25.8-17.5,40.5-17.6L23.3,80.9C23.3,66.2,29.6,51.7,40.9,40.4L40.9,40.4z M40.9,40.4"/>
		</g>
	</g>
</g>
<g id="Guides">
</g>
<g id="Layer_4">
	<g>
		<line class="st22" x1="1391.3" y1="521.1" x2="1060.4" y2="521.1"/>
		<g>
			<path d="M1057.4,520.4l10.9-6.5v3.2l-6.8,4.1l6.8,4.2v3l-10.9-6.6V520.4z"/>
		</g>
	</g>
	<g id="Annotator_1_">
		<g>
			<path class="st20" d="M309,464.5c0.5,0,0.9-0.4,0.9-0.9v-2c0-0.5-0.4-0.9-0.9-0.9c-0.5,0-0.9,0.4-0.9,0.9v2
				C308.1,464.1,308.5,464.5,309,464.5L309,464.5z M309,464.5"/>
			<path class="st20" d="M308.1,473.4c0,0.5,0.4,0.9,0.9,0.9c0.5,0,0.9-0.4,0.9-0.9v-6.5c0-0.5-0.4-0.9-0.9-0.9
				c-0.5,0-0.9,0.4-0.9,0.9V473.4z M308.1,473.4"/>
		</g>
	</g>
	<g>
		<rect x="144.9" y="476.5" class="st6" width="91" height="75"/>
		<ellipse class="st22" cx="149.3" cy="479.4" rx="4.4" ry="2.5"/>
		<path class="st22" d="M153.7,550.4c0,1.7-2,3.1-4.4,3.1c-2.4,0-4.4-1.4-4.4-3.1"/>
		<line class="st22" x1="144.9" y1="479" x2="144.9" y2="550.4"/>
		<line class="st22" x1="153.7" y1="479" x2="153.7" y2="550.4"/>
		<ellipse class="st22" cx="233.5" cy="479.4" rx="4.4" ry="2.5"/>
		<path class="st22" d="M237.9,550.4c0,1.7-2,3.1-4.4,3.1s-4.4-1.4-4.4-3.1"/>
		<line class="st22" x1="229.1" y1="479" x2="229.1" y2="550.4"/>
		<line class="st22" x1="237.9" y1="479" x2="237.9" y2="550.4"/>
		<line class="st22" x1="149.7" y1="476.9" x2="233.1" y2="476.9"/>
		<line class="st22" x1="154.3" y1="549.1" x2="228.7" y2="549.1"/>
		<g>
			<g>
				<path class="st14" d="M164.5,490.5c7.8,0,15.5,0,23.2,0c1.9,0,1.9-3,0-3c-7.8,0-15.5,0-23.2,0
					C162.6,487.5,162.6,490.5,164.5,490.5L164.5,490.5z"/>
			</g>
		</g>
		<g>
			<g>
				<path class="st14" d="M164.5,500.1c17.6,0,35.3,0,52.9,0c1.9,0,1.9-3,0-3c-17.6,0-35.3,0-52.9,0
					C162.6,497.1,162.6,500.1,164.5,500.1L164.5,500.1z"/>
			</g>
		</g>
		<g>
			<g>
				<path class="st14" d="M164.5,509.7c17.6,0,35.3,0,52.9,0c1.9,0,1.9-3,0-3c-17.6,0-35.3,0-52.9,0
					C162.6,506.7,162.6,509.7,164.5,509.7L164.5,509.7z"/>
			</g>
		</g>
		<g>
			<g>
				<path class="st14" d="M164.5,519.3c17.6,0,35.3,0,52.9,0c1.9,0,1.9-3,0-3c-17.6,0-35.3,0-52.9,0
					C162.6,516.3,162.6,519.3,164.5,519.3L164.5,519.3z"/>
			</g>
		</g>
		<g>
			<g>
				<path class="st14" d="M164.5,528.9c17.6,0,35.3,0,52.9,0c1.9,0,1.9-3,0-3c-17.6,0-35.3,0-52.9,0
					C162.6,525.9,162.6,528.9,164.5,528.9L164.5,528.9z"/>
			</g>
		</g>
		<g>
			<g>
				<path class="st14" d="M164.5,538.6c17.6,0,35.3,0,52.9,0c1.9,0,1.9-3,0-3c-17.6,0-35.3,0-52.9,0
					C162.6,535.6,162.6,538.6,164.5,538.6L164.5,538.6z"/>
			</g>
		</g>
	</g>
	<g>
		<rect x="173.9" y="434.5" class="st6" width="91" height="75"/>
		<ellipse class="st22" cx="178.3" cy="437.4" rx="4.4" ry="2.5"/>
		<path class="st22" d="M182.7,508.4c0,1.7-2,3.1-4.4,3.1c-2.4,0-4.4-1.4-4.4-3.1"/>
		<line class="st22" x1="173.9" y1="437" x2="173.9" y2="508.4"/>
		<line class="st22" x1="182.7" y1="437" x2="182.7" y2="508.4"/>
		<ellipse class="st22" cx="262.5" cy="437.4" rx="4.4" ry="2.5"/>
		<path class="st22" d="M266.9,508.4c0,1.7-2,3.1-4.4,3.1c-2.4,0-4.4-1.4-4.4-3.1"/>
		<line class="st22" x1="258.1" y1="437" x2="258.1" y2="508.4"/>
		<line class="st22" x1="266.9" y1="437" x2="266.9" y2="508.4"/>
		<line class="st22" x1="178.7" y1="434.9" x2="262.1" y2="434.9"/>
		<line class="st22" x1="183.3" y1="507.1" x2="257.7" y2="507.1"/>
		<g>
			<g>
				<path class="st14" d="M228.9,458.1c5.9,0,11.7,0,17.6,0c1.9,0,1.9-3,0-3c-5.9,0-11.7,0-17.6,0
					C226.9,455.1,226.9,458.1,228.9,458.1L228.9,458.1z"/>
			</g>
		</g>
		<g>
			<g>
				<path class="st14" d="M228.9,449.1c5.9,0,11.7,0,17.6,0c1.9,0,1.9-3,0-3c-5.9,0-11.7,0-17.6,0
					C226.9,446.1,226.9,449.1,228.9,449.1L228.9,449.1z"/>
			</g>
		</g>
		<g>
			<g>
				<path class="st14" d="M228.9,467.7c5.9,0,11.7,0,17.6,0c1.9,0,1.9-3,0-3c-5.9,0-11.7,0-17.6,0
					C226.9,464.7,226.9,467.7,228.9,467.7L228.9,467.7z"/>
			</g>
		</g>
		<g>
			<g>
				<path class="st14" d="M228.9,477.3c5.9,0,11.7,0,17.6,0c1.9,0,1.9-3,0-3c-5.9,0-11.7,0-17.6,0
					C226.9,474.3,226.9,477.3,228.9,477.3L228.9,477.3z"/>
			</g>
		</g>
		<g>
			<g>
				<path class="st14" d="M193.5,486.9c17.6,0,35.3,0,52.9,0c1.9,0,1.9-3,0-3c-17.6,0-35.3,0-52.9,0
					C191.6,483.9,191.6,486.9,193.5,486.9L193.5,486.9z"/>
			</g>
		</g>
		<g>
			<g>
				<path class="st14" d="M193.5,496.6c17.6,0,35.3,0,52.9,0c1.9,0,1.9-3,0-3c-17.6,0-35.3,0-52.9,0
					C191.6,493.6,191.6,496.6,193.5,496.6L193.5,496.6z"/>
			</g>
		</g>
	</g>
	<g>
		<rect x="202.9" y="490.5" class="st6" width="91" height="75"/>
		<ellipse class="st22" cx="207.3" cy="493.4" rx="4.4" ry="2.5"/>
		<path class="st22" d="M211.7,564.4c0,1.7-2,3.1-4.4,3.1c-2.4,0-4.4-1.4-4.4-3.1"/>
		<line class="st22" x1="202.9" y1="493" x2="202.9" y2="564.4"/>
		<line class="st22" x1="211.7" y1="493" x2="211.7" y2="564.4"/>
		<ellipse class="st22" cx="291.5" cy="493.4" rx="4.4" ry="2.5"/>
		<path class="st22" d="M295.9,564.4c0,1.7-2,3.1-4.4,3.1c-2.4,0-4.4-1.4-4.4-3.1"/>
		<line class="st22" x1="287.1" y1="493" x2="287.1" y2="564.4"/>
		<line class="st22" x1="295.9" y1="493" x2="295.9" y2="564.4"/>
		<line class="st22" x1="207.7" y1="490.9" x2="291.1" y2="490.9"/>
		<line class="st22" x1="212.3" y1="563.1" x2="286.7" y2="563.1"/>
		<g>
			<g>
				<path class="st14" d="M222.5,504.5c17.6,0,35.2,0,52.9,0c1.9,0,1.9-3,0-3c-17.6,0-35.2,0-52.9,0
					C220.6,501.5,220.6,504.5,222.5,504.5L222.5,504.5z"/>
			</g>
		</g>
		<g>
			<g>
				<path class="st14" d="M222.5,514.1c17.6,0,35.3,0,52.9,0c1.9,0,1.9-3,0-3c-17.6,0-35.3,0-52.9,0
					C220.6,511.1,220.6,514.1,222.5,514.1L222.5,514.1z"/>
			</g>
		</g>
		<g>
			<g>
				<path class="st14" d="M222.5,523.7c5.1,0,10.2,0,15.4,0c1.9,0,1.9-3,0-3c-5.1,0-10.2,0-15.4,0
					C220.6,520.7,220.6,523.7,222.5,523.7L222.5,523.7z"/>
			</g>
		</g>
		<g>
			<g>
				<path class="st14" d="M222.5,533.3c5.1,0,10.2,0,15.4,0c1.9,0,1.9-3,0-3c-5.1,0-10.2,0-15.4,0
					C220.6,530.3,220.6,533.3,222.5,533.3L222.5,533.3z"/>
			</g>
		</g>
		<g>
			<g>
				<path class="st14" d="M222.5,542.9c5.1,0,10.2,0,15.4,0c1.9,0,1.9-3,0-3c-5.1,0-10.2,0-15.4,0
					C220.6,539.9,220.6,542.9,222.5,542.9L222.5,542.9z"/>
			</g>
		</g>
		<g>
			<g>
				<path class="st14" d="M222.5,552.6c5.1,0,10.2,0,15.4,0c1.9,0,1.9-3,0-3c-5.1,0-10.2,0-15.4,0
					C220.6,549.6,220.6,552.6,222.5,552.6L222.5,552.6z"/>
			</g>
		</g>
	</g>
	<text transform="matrix(1 0 0 1 154.3701 589)" class="st14" style="font-family:'Raleway-ExtraBold'; font-size:20px;">DOCUMENTS</text>
	<text transform="matrix(1 0 0 1 583.8351 724.8506)"><tspan x="0" y="0" style="font-family:'Raleway-Medium'; font-size:27.2106px;">&lt;</tspan><tspan x="13.9" y="0" style="font-family:'Raleway-SemiBold'; font-size:22px;">/</tspan><tspan x="28.5" y="0" style="font-family:'Raleway-Medium'; font-size:27.2106px;">&gt;</tspan></text>
	<g>
		<g>
			<g>
				<g>
					<path class="st14" d="M673,754c-41.6,0-83.3,0-124.9,0c-5.9,0-11.7,0-17.6,0c0.5,0.5,1,1,1.5,1.5c0-27.9,0-55.8,0-83.7
						c0-4,0-8.1,0-12.1c-0.5,0.5-1,1-1.5,1.5c41.6,0,83.3,0,124.9,0c5.9,0,11.7,0,17.6,0c-0.5-0.5-1-1-1.5-1.5c0,27.9,0,55.8,0,83.7
						c0,4,0,8.1,0,12.1c0,1.9,3,1.9,3,0c0-27.9,0-55.8,0-83.7c0-4,0-8.1,0-12.1c0-0.8-0.7-1.5-1.5-1.5c-41.6,0-83.3,0-124.9,0
						c-5.9,0-11.7,0-17.6,0c-0.8,0-1.5,0.7-1.5,1.5c0,27.9,0,55.8,0,83.7c0,4,0,8.1,0,12.1c0,0.8,0.7,1.5,1.5,1.5
						c41.6,0,83.3,0,124.9,0c5.9,0,11.7,0,17.6,0C674.9,757,674.9,754,673,754z"/>
				</g>
			</g>
		</g>
		<line class="st22" x1="530.5" y1="673.2" x2="673" y2="673.2"/>
		<circle class="st14" cx="663.8" cy="666.4" r="1.8"/>
		<circle class="st14" cx="655.2" cy="666.4" r="1.8"/>
		<circle class="st14" cx="646.6" cy="666.4" r="1.8"/>
	</g>
	<g>
		<g>
			<g>
				<g>
					<path class="st14" d="M670.8,566c-41.6,0-83.3,0-124.9,0c-5.9,0-11.7,0-17.6,0c0.5,0.5,1,1,1.5,1.5c0-27.9,0-55.8,0-83.7
						c0-4,0-8.1,0-12.1c-0.5,0.5-1,1-1.5,1.5c41.6,0,83.3,0,124.9,0c5.9,0,11.7,0,17.6,0c-0.5-0.5-1-1-1.5-1.5c0,27.9,0,55.8,0,83.7
						c0,4,0,8.1,0,12.1c0,1.9,3,1.9,3,0c0-27.9,0-55.8,0-83.7c0-4,0-8.1,0-12.1c0-0.8-0.7-1.5-1.5-1.5c-41.6,0-83.3,0-124.9,0
						c-5.9,0-11.7,0-17.6,0c-0.8,0-1.5,0.7-1.5,1.5c0,27.9,0,55.8,0,83.7c0,4,0,8.1,0,12.1c0,0.8,0.7,1.5,1.5,1.5
						c41.6,0,83.3,0,124.9,0c5.9,0,11.7,0,17.6,0C672.7,569,672.7,566,670.8,566z"/>
				</g>
			</g>
		</g>
		<line class="st22" x1="528.3" y1="485.2" x2="670.8" y2="485.2"/>
		<circle class="st14" cx="661.6" cy="478.4" r="1.8"/>
		<circle class="st14" cx="653" cy="478.4" r="1.8"/>
		<circle class="st14" cx="644.4" cy="478.4" r="1.8"/>
	</g>
	<g>
		<g>
			<g>
				<g>
					<path class="st14" d="M671.5,376c-41.6,0-83.3,0-124.9,0c-5.9,0-11.7,0-17.6,0c0.5,0.5,1,1,1.5,1.5c0-27.9,0-55.8,0-83.7
						c0-4,0-8.1,0-12.1c-0.5,0.5-1,1-1.5,1.5c41.6,0,83.3,0,124.9,0c5.9,0,11.7,0,17.6,0c-0.5-0.5-1-1-1.5-1.5c0,27.9,0,55.8,0,83.7
						c0,4,0,8.1,0,12.1c0,1.9,3,1.9,3,0c0-27.9,0-55.8,0-83.7c0-4,0-8.1,0-12.1c0-0.8-0.7-1.5-1.5-1.5c-41.6,0-83.3,0-124.9,0
						c-5.9,0-11.7,0-17.6,0c-0.8,0-1.5,0.7-1.5,1.5c0,27.9,0,55.8,0,83.7c0,4,0,8.1,0,12.1c0,0.8,0.7,1.5,1.5,1.5
						c41.6,0,83.3,0,124.9,0c5.9,0,11.7,0,17.6,0C673.4,379,673.4,376,671.5,376z"/>
				</g>
			</g>
		</g>
		<line class="st22" x1="529" y1="295.2" x2="671.5" y2="295.2"/>
		<circle class="st14" cx="662.3" cy="288.4" r="1.8"/>
		<circle class="st14" cx="653.7" cy="288.4" r="1.8"/>
		<circle class="st14" cx="645.1" cy="288.4" r="1.8"/>
	</g>
	<text transform="matrix(1 0 0 1 562.201 589)" class="st14" style="font-family:'Raleway-ExtraBold'; font-size:20px;">IMAGES</text>
	<text transform="matrix(1 0 0 1 548.7046 778)" class="st14" style="font-family:'Raleway-ExtraBold'; font-size:20px;">META DATA</text>
	<text transform="matrix(1 0 0 1 334.3699 510)" class="st23" style="font-family:'Raleway-ExtraBold'; font-size:12px;">DIGITAL CONVERSION</text>
	<text transform="matrix(1 0 0 1 577.4459 401)" class="st14" style="font-family:'Raleway-ExtraBold'; font-size:20px;">TEXT</text>
	<g>
		<g id="lightbox_2_">
			<rect x="562.6" y="502.5" class="st24" width="50" height="50"/>
			<polyline class="st25" points="562.6,549.1 578.6,533.9 588.6,540 599,526.2 612.6,544.1 			"/>
		</g>
		<g id="lightbox_3_">
			<rect x="606.5" y="515.5" class="st24" width="30" height="30"/>
			<polyline class="st25" points="606.5,543.5 616.1,534.4 622.1,538 628.3,529.7 636.5,540.5 			"/>
		</g>
	</g>
	<g>
		<g>
			<rect x="556.8" y="310.3" class="st6" width="59.7" height="49.2"/>
			<ellipse class="st25" cx="559.7" cy="312.3" rx="2.9" ry="1.6"/>
			<path class="st25" d="M562.6,358.8c0,1.1-1.3,2-2.9,2s-2.9-0.9-2.9-2"/>
			<line class="st25" x1="556.8" y1="312" x2="556.8" y2="358.8"/>
			<line class="st25" x1="562.6" y1="312" x2="562.6" y2="358.8"/>
			<ellipse class="st25" cx="614.9" cy="312.3" rx="2.9" ry="1.6"/>
			<path class="st25" d="M617.8,358.8c0,1.1-1.3,2-2.9,2s-2.9-0.9-2.9-2"/>
			<line class="st25" x1="612" y1="312" x2="612" y2="358.8"/>
			<line class="st25" x1="617.8" y1="312" x2="617.8" y2="358.8"/>
			<line class="st25" x1="559.9" y1="310.6" x2="614.6" y2="310.6"/>
			<line class="st25" x1="563" y1="357.9" x2="611.7" y2="357.9"/>
			<g>
				<g>
					<path class="st14" d="M569.7,319.6c5.1,0,10.2,0,15.2,0c1.4,0,1.5-2.2,0-2.2c-5.1,0-10.2,0-15.2,0
						C568.2,317.4,568.2,319.6,569.7,319.6L569.7,319.6z"/>
				</g>
			</g>
			<g>
				<g>
					<path class="st14" d="M569.7,325.9c11.6,0,23.1,0,34.7,0c1.4,0,1.5-2.2,0-2.2c-11.6,0-23.1,0-34.7,0
						C568.2,323.7,568.2,325.9,569.7,325.9L569.7,325.9z"/>
				</g>
			</g>
			<g>
				<g>
					<path class="st14" d="M569.7,332.2c11.6,0,23.1,0,34.7,0c1.4,0,1.5-2.2,0-2.2c-11.6,0-23.1,0-34.7,0
						C568.2,330,568.2,332.2,569.7,332.2L569.7,332.2z"/>
				</g>
			</g>
			<g>
				<g>
					<path class="st14" d="M569.7,338.6c11.6,0,23.1,0,34.7,0c1.4,0,1.5-2.2,0-2.2c-11.6,0-23.1,0-34.7,0
						C568.2,336.3,568.2,338.6,569.7,338.6L569.7,338.6z"/>
				</g>
			</g>
			<g>
				<g>
					<path class="st14" d="M569.7,344.9c11.6,0,23.1,0,34.7,0c1.4,0,1.5-2.2,0-2.2c-11.6,0-23.1,0-34.7,0
						C568.2,342.6,568.2,344.9,569.7,344.9L569.7,344.9z"/>
				</g>
			</g>
			<g>
				<g>
					<path class="st14" d="M569.7,351.2c11.6,0,23.1,0,34.7,0c1.4,0,1.5-2.2,0-2.2c-11.6,0-23.1,0-34.7,0
						C568.2,348.9,568.2,351.2,569.7,351.2L569.7,351.2z"/>
				</g>
			</g>
		</g>
		<g>
			<rect x="600.3" y="318.8" class="st6" width="42.5" height="35.1"/>
			<ellipse class="st25" cx="602.4" cy="320.2" rx="2.1" ry="1.2"/>
			<path class="st25" d="M604.4,353.4c0,0.8-0.9,1.5-2.1,1.5c-1.1,0-2.1-0.7-2.1-1.5"/>
			<line class="st25" x1="600.3" y1="320" x2="600.3" y2="353.4"/>
			<line class="st25" x1="604.4" y1="320" x2="604.4" y2="353.4"/>
			<ellipse class="st25" cx="641.7" cy="320.2" rx="2.1" ry="1.2"/>
			<path class="st25" d="M643.8,353.4c0,0.8-0.9,1.5-2.1,1.5c-1.1,0-2.1-0.7-2.1-1.5"/>
			<line class="st25" x1="639.6" y1="320" x2="639.6" y2="353.4"/>
			<line class="st25" x1="643.8" y1="320" x2="643.8" y2="353.4"/>
			<line class="st25" x1="602.5" y1="319" x2="641.5" y2="319"/>
			<line class="st25" x1="604.7" y1="352.8" x2="639.5" y2="352.8"/>
			<g>
				<g>
					<path class="st14" d="M609.5,325.8c3.6,0,7.2,0,10.9,0c1.4,0,1.5-2.2,0-2.2c-3.6,0-7.2,0-10.9,0
						C608,323.5,608,325.8,609.5,325.8L609.5,325.8z"/>
				</g>
			</g>
			<g>
				<g>
					<path class="st14" d="M609.5,330.3c8.2,0,16.5,0,24.7,0c1.4,0,1.5-2.2,0-2.2c-8.2,0-16.5,0-24.7,0
						C608,328,608,330.3,609.5,330.3L609.5,330.3z"/>
				</g>
			</g>
			<g>
				<g>
					<path class="st14" d="M609.5,334.8c8.2,0,16.5,0,24.7,0c1.4,0,1.5-2.2,0-2.2c-8.2,0-16.5,0-24.7,0
						C608,332.5,608,334.8,609.5,334.8L609.5,334.8z"/>
				</g>
			</g>
			<g>
				<g>
					<path class="st14" d="M609.5,339.3c8.2,0,16.5,0,24.7,0c1.4,0,1.5-2.2,0-2.2c-8.2,0-16.5,0-24.7,0
						C608,337,608,339.3,609.5,339.3L609.5,339.3z"/>
				</g>
			</g>
			<g>
				<g>
					<path class="st14" d="M609.5,343.8c8.2,0,16.5,0,24.7,0c1.4,0,1.5-2.2,0-2.2c-8.2,0-16.5,0-24.7,0
						C608,341.5,608,343.8,609.5,343.8L609.5,343.8z"/>
				</g>
			</g>
			<g>
				<g>
					<path class="st14" d="M609.5,348.3c8.2,0,16.5,0,24.7,0c1.4,0,1.5-2.2,0-2.2c-8.2,0-16.5,0-24.7,0
						C608,346,608,348.3,609.5,348.3L609.5,348.3z"/>
				</g>
			</g>
		</g>
	</g>
	<text transform="matrix(1 0 0 1 892.7018 872)"><tspan x="0" y="0" class="st23" style="font-family:'Raleway-ExtraBold'; font-size:12px;">CONTENT</tspan><tspan x="-14.3" y="14.4" class="st23" style="font-family:'Raleway-ExtraBold'; font-size:12px;">MANAGEMENT </tspan><tspan x="5.1" y="28.8" class="st23" style="font-family:'Raleway-ExtraBold'; font-size:12px;">SYSTEM</tspan></text>
	<text transform="matrix(1 0 0 1 1415.5391 514)"><tspan x="0" y="0" class="st14" style="font-family:'Raleway-ExtraBold'; font-size:20px;">PATTERN</tspan><tspan x="-11.6" y="24" class="st14" style="font-family:'Raleway-ExtraBold'; font-size:20px;">DISCOVERY</tspan></text>
	<text transform="matrix(1 0 0 1 892.3704 523)" class="st14" style="font-family:'Raleway-ExtraBold'; font-size:20px;">ANNOTATIONS</text>
	<text transform="matrix(1 0 0 1 870.8137 746)" class="st14" style="font-family:'Raleway-ExtraBold'; font-size:20px;">ASSOCIATION BETWEEN PATTERNS AND METADATA</text>
	<g>
		<line class="st22" x1="475.8" y1="711.2" x2="511.3" y2="711.2"/>
		<g>
			<path d="M514.3,711.9l-10.9,6.5v-3.2l6.8-4.1l-6.8-4.2v-3l10.9,6.6V711.9z"/>
		</g>
	</g>
	<g>
		<line class="st22" x1="318.5" y1="519.2" x2="509.7" y2="519.2"/>
		<g>
			<path d="M512.3,519.9l-9.4,6.5v-3.2l5.8-4.1l-5.8-4.2v-3l9.4,6.6V519.9z"/>
		</g>
	</g>
	<g>
		<line class="st22" x1="475.8" y1="332.2" x2="511.3" y2="332.2"/>
		<g>
			<path d="M514.3,332.9l-10.9,6.5v-3.2l6.8-4.1l-6.8-4.2v-3l10.9,6.6V332.9z"/>
		</g>
	</g>
	<line class="st22" x1="477.4" y1="332" x2="477.4" y2="711"/>
	<g>
		<line class="st22" x1="689.8" y1="695.2" x2="844.4" y2="695.2"/>
	</g>
	<g>
		<line class="st22" x1="689.4" y1="517.2" x2="876.3" y2="517.2"/>
		<g>
			<path d="M879.3,517.9l-10.9,6.5v-3.2l6.8-4.1l-6.8-4.2v-3l10.9,6.6V517.9z"/>
		</g>
	</g>
	<g>
		<line class="st22" x1="690.9" y1="338.2" x2="845.5" y2="338"/>
	</g>
	<line class="st22" x1="844.4" y1="337.5" x2="844" y2="696.5"/>
	<g>
		<line class="st22" x1="1059.4" y1="508.2" x2="1390.3" y2="508.2"/>
		<g>
			<path d="M1393.3,508.9l-10.9,6.5v-3.2l6.8-4.1l-6.8-4.2v-3l10.9,6.6V508.9z"/>
		</g>
	</g>
	<g>
		<line class="st22" x1="1470" y1="545" x2="1470" y2="724"/>
	</g>
	<line class="st22" x1="1470.4" y1="723" x2="689.4" y2="723"/>
	<g id="lightbox_4_">
		<rect x="235.9" y="521.5" class="st24" width="30" height="30"/>
		<polyline class="st25" points="235.9,549.5 245.5,540.4 251.5,544 257.7,535.7 265.9,546.5 		"/>
	</g>
	<g id="lightbox_5_">
		<rect x="191.9" y="445.5" class="st24" width="30" height="30"/>
		<polyline class="st25" points="191.9,473.5 201.5,464.4 207.5,468 213.7,459.7 221.9,470.5 		"/>
	</g>
	<path class="st26" d="M721.9,320"/>
	<path class="st27" d="M443.9,471.7"/>
	<polyline class="st27" points="325.5,478.6 325.5,238.2 1547.9,238.2 1547.9,832.5 325.5,832.5 325.5,557.5 	"/>
	<rect x="839.9" y="218.5" class="st23" width="179" height="37.6"/>
	
		<text transform="matrix(1.0651 0 0 1 869.3701 244.3184)" class="st6" style="font-family:'Raleway-ExtraBold'; font-size:18.7768px;">ARCHETYPE</text>
	<g>
		<rect x="726.7" y="296.8" class="st6" width="77" height="77"/>
		<text transform="matrix(1 0 0 1 728.7191 378.6831)" class="st23" style="font-family:'Raleway-ExtraBold'; font-size:12px;">ANNOTATOR</text>
		<g id="Annotator_2_">
			<rect x="738.3" y="308.3" class="st28" width="4.6" height="4.6"/>
			<line class="st28" x1="740.6" y1="344.6" x2="740.6" y2="351.7"/>
			<line class="st28" x1="740.6" y1="331.8" x2="740.6" y2="338.9"/>
			<line class="st28" x1="740.6" y1="319" x2="740.6" y2="326.1"/>
			<rect x="738.3" y="357.6" class="st28" width="4.6" height="4.6"/>
			
				<rect x="787.5" y="308.3" transform="matrix(-1.836970e-16 1 -1 -1.836970e-16 1100.4167 -479.1492)" class="st28" width="4.6" height="4.6"/>
			<line class="st28" x1="755.8" y1="310.6" x2="748.7" y2="310.6"/>
			<line class="st28" x1="768.6" y1="310.6" x2="761.5" y2="310.6"/>
			<line class="st28" x1="781.4" y1="310.6" x2="774.3" y2="310.6"/>
			
				<rect x="787.5" y="357.6" transform="matrix(-3.527632e-03 1 -1 -3.527632e-03 1152.4762 -428.6147)" class="st28" width="4.6" height="4.6"/>
			<line class="st28" x1="755.8" y1="359.8" x2="748.7" y2="359.8"/>
			<line class="st28" x1="768.6" y1="359.8" x2="761.5" y2="359.8"/>
			<line class="st28" x1="781.4" y1="359.9" x2="774.3" y2="359.8"/>
			<line class="st28" x1="789.9" y1="325.8" x2="789.9" y2="318.6"/>
			<line class="st28" x1="789.9" y1="338.6" x2="789.9" y2="331.5"/>
			<line class="st28" x1="789.8" y1="351.4" x2="789.8" y2="344.3"/>
			<g>
				<g>
					<path class="st29" d="M778,320.3c0-0.3-0.3-0.6-0.6-0.6h-24.3c-0.3,0-0.6,0.3-0.6,0.6l-0.4,7.3c0,0.2,0.1,0.3,0.2,0.4
						c0.1,0.1,0.3,0.2,0.4,0.2h2c0.3,0,0.6-0.2,0.6-0.6c0.1-1.2,0.4-2.2,0.9-2.9c0.5-0.7,1-1.1,1.7-1.4c0.4-0.1,1.1-0.3,2.8-0.3h1.8
						v20.6c0,2.1-0.3,2.7-0.4,2.9c-0.4,0.6-1.1,0.9-2.2,0.9h-1.1c-0.3,0-0.6,0.3-0.6,0.6v2.1c0,0.3,0.3,0.6,0.6,0.6h12.6
						c0.3,0,0.6-0.3,0.6-0.6V348c0-0.3-0.3-0.6-0.6-0.6h-1c-1,0-1.7-0.2-2.1-0.7c-0.1-0.1-0.4-0.7-0.4-3v-15.3
						c0-0.3-0.3-0.6-0.6-0.6c-0.3,0-0.6,0.3-0.6,0.6v15.3c0,2,0.2,3.2,0.7,3.8c0,0,0,0,0,0c0.7,0.7,1.7,1.1,3,1.1h0.4v0.9h-11.4
						v-0.9h0.4c1.5,0,2.5-0.5,3.2-1.4c0.4-0.6,0.6-1.7,0.6-3.5v-21.2c0-0.3-0.3-0.6-0.6-0.6h-2.4c-1.5,0-2.5,0.1-3.2,0.3
						c0,0,0,0,0,0c-0.9,0.3-1.6,0.9-2.2,1.8c-0.5,0.8-0.9,1.7-1,2.9h-0.8l0.3-6.1h23.1l0.3,6.1h-0.9c-0.2-1-0.4-1.8-0.6-2.3
						c-0.5-1-1.2-1.7-2.1-2.1c-0.8-0.4-1.9-0.7-3.3-0.7h-3c-0.3,0-0.6,0.3-0.6,0.6s0.3,0.6,0.6,0.6h3c1.1,0,2,0.2,2.7,0.5
						c0.7,0.3,1.2,0.9,1.6,1.6c0.2,0.3,0.4,1,0.6,2.4c0,0.3,0.3,0.5,0.6,0.5h2c0.2,0,0.3-0.1,0.4-0.2c0.1-0.1,0.2-0.3,0.2-0.4
						L778,320.3z M778,320.3"/>
				</g>
				<path class="st29" d="M766.6,324.1v3.8c0,0.8,0.3,1.4,0.6,1.4c0.3,0,0.6-0.6,0.6-1.4v-5.2c0-0.8-0.3-0.3-0.6-0.3
					c-0.3,0-0.6-0.4-0.6,0.3V324.1z M766.6,322.7"/>
				<path class="st20" d="M760.6,339.5c0.3,0,0.6-0.3,0.6-0.6v-1.4c0-0.3-0.3-0.6-0.6-0.6c-0.3,0-0.6,0.3-0.6,0.6v1.4
					C760,339.2,760.3,339.5,760.6,339.5L760.6,339.5z M760.6,339.5"/>
				<path class="st20" d="M760,345.7c0,0.3,0.3,0.6,0.6,0.6c0.3,0,0.6-0.3,0.6-0.6v-4.5c0-0.3-0.3-0.6-0.6-0.6
					c-0.3,0-0.6,0.3-0.6,0.6V345.7z M760,345.7"/>
			</g>
		</g>
	</g>
	<path class="st26" d="M768.2,335.3"/>
	<rect x="881.9" y="784.5" class="st6" width="77" height="77"/>
	<rect x="730.5" y="470.1" class="st6" width="64.4" height="77"/>
	<g id="Text_Editor_1_">
		<g>
			<polygon class="st23" points="741,480.8 741,508.5 762.3,508.5 762.3,486.7 756.8,480.8 			"/>
		</g>
		<polyline class="st30" points="762.5,486.5 757.2,486.5 757.2,480.4 		"/>
		<g>
			<g>
				<path class="st6" d="M745.2,487.3c1.5,0,2.9,0,4.4,0c1,0,1-1.5,0-1.5c-1.5,0-2.9,0-4.4,0C744.2,485.8,744.2,487.3,745.2,487.3
					L745.2,487.3z"/>
			</g>
		</g>
		<g>
			<g>
				<path class="st6" d="M745.2,499.9c4,0,7.9,0,11.9,0c1,0,1-1.5,0-1.5c-4,0-7.9,0-11.9,0C744.2,498.4,744.2,499.9,745.2,499.9
					L745.2,499.9z"/>
			</g>
		</g>
		<g>
			<g>
				<path class="st6" d="M745.2,495.7c4,0,7.9,0,11.9,0c1,0,1-1.5,0-1.5c-4,0-7.9,0-11.9,0C744.2,494.2,744.2,495.7,745.2,495.7
					L745.2,495.7z"/>
			</g>
		</g>
		<g>
			<g>
				<path class="st6" d="M745.2,504.2c4,0,7.9,0,11.9,0c1,0,1-1.5,0-1.5c-4,0-7.9,0-11.9,0C744.2,502.7,744.2,504.2,745.2,504.2
					L745.2,504.2z"/>
			</g>
		</g>
		<g>
			<g>
				<path class="st6" d="M745.2,491.5c4,0,7.9,0,11.9,0c1,0,1-1.5,0-1.5c-4,0-7.9,0-11.9,0C744.2,490,744.2,491.5,745.2,491.5
					L745.2,491.5z"/>
			</g>
		</g>
		
			<ellipse transform="matrix(0.672 -0.7405 0.7405 0.672 -124.0608 731.3561)" class="st6" cx="763.6" cy="505.7" rx="21.2" ry="7.4"/>
		<g>
			<path class="st23" d="M758.2,532.4c-1.3,0-3.5,0-5.8,0l1.4-1.4c2.8,0,5.9,0,8.2,0c0.6,0,1.2-0.5,1.2-1.2c0-0.6-0.5-1.2-1.2-1.2
				c-1.6,0-3.7,0-5.8,0l1.4-1.4c0.8,0,1.6,0,2.3,0c3.9,0.1,6.2,0.1,8.5-2.2l26.6-26.6c2.8-2.8,2.8-7.5,0-10.3c0,0-0.1-0.1-0.1-0.1
				c0,0,0,0,0,0c0,0,0,0-0.1,0c0,0,0,0,0,0c0,0,0,0,0,0c0,0,0,0-0.1,0c0,0,0,0,0,0c0,0,0,0-0.1,0c0,0,0,0,0,0c0,0,0,0-0.1,0
				c0,0,0,0-0.1,0c0,0,0,0-0.1,0c0,0,0,0-0.1,0c0,0,0,0-0.1,0c0,0,0,0,0,0c-5.7-0.4-11.6,0.5-17.2,2.7c-5.8,2.2-11.1,5.7-15.6,10.2
				c-4.5,4.5-8,9.8-10.2,15.6c-2.1,5.4-3,11.1-2.7,16.7l-1.7,1.7c-0.5,0.5-0.5,1.2,0,1.7s1.2,0.5,1.7,0l1.7-1.7c3,0,6.4,0,8.2,0
				c0.6,0,1.2-0.5,1.2-1.2C759.3,532.9,758.8,532.4,758.2,532.4L758.2,532.4z M793.2,496.9l-26.6,26.6c-1.6,1.6-3.1,1.6-6.8,1.5
				c0,0,0,0,0,0l34.2-34.2C795.1,492.7,794.8,495.3,793.2,496.9L793.2,496.9z M762.9,502.5c7.9-7.9,18.1-12.3,28.4-12.3l-40.7,40.7
				C750.7,520.5,755,510.3,762.9,502.5L762.9,502.5z M762.9,502.5"/>
		</g>
	</g>
	<text transform="matrix(1 0 0 1 723.6816 551)" class="st23" style="font-family:'Raleway-ExtraBold'; font-size:12px;">TEXT EDITOR</text>
	<g>
		<rect x="1255.3" y="471.6" class="st6" width="77" height="77"/>
		<g id="collect_1_">
			<path class="st1" d="M1306.3,492.7"/>
			<polygon class="st28" points="1304.4,494 1297.5,487.6 1271.1,487.6 1271.1,494 1271.1,528.2 1320.8,528.2 1320.8,494 			"/>
			<circle class="st28" cx="1285.8" cy="512.1" r="3"/>
			<circle class="st28" cx="1301.9" cy="504.4" r="3"/>
			<circle class="st28" cx="1301.9" cy="519.1" r="3"/>
			<line class="st28" x1="1288.8" y1="510.4" x2="1300" y2="504.7"/>
			<line class="st28" x1="1288.2" y1="512.8" x2="1299.4" y2="518.5"/>
			<polyline class="st28" points="1288.5,532.6 1266.8,532.6 1266.8,508.1 			"/>
		</g>
	</g>
	<g>
		<rect x="1184.7" y="471.6" class="st6" width="77" height="77"/>
		<g id="search_1_">
			<circle class="st28" cx="1218.9" cy="503.6" r="20.5"/>
			<g>
				<g>
					<path class="st23" d="M1208.3,492.2c5.8-5,13.5-5.3,19.8-1.1c1.6,1.1,3.1-1.5,1.5-2.6c-7.5-5-16.7-4.3-23.4,1.6
						C1204.7,491.4,1206.8,493.5,1208.3,492.2L1208.3,492.2z"/>
				</g>
			</g>
			<line class="st28" x1="1231.7" y1="520.6" x2="1235.8" y2="524.7"/>
			<g>
				<g>
					<path class="st23" d="M1247,532.4c-1.2,1.2-2.4,2.4-3.6,3.6c0.7,0,1.4,0,2.1,0c-3.6-3.6-7.2-7.2-10.8-10.8c0,0.7,0,1.4,0,2.1
						c1.2-1.2,2.4-2.4,3.6-3.6c-0.7,0-1.4,0-2.1,0c3.6,3.6,7.2,7.2,10.8,10.8c1.4,1.4,3.5-0.8,2.1-2.1c-3.6-3.6-7.2-7.2-10.8-10.8
						c-0.6-0.6-1.5-0.6-2.1,0c-1.2,1.2-2.4,2.4-3.6,3.6c-0.6,0.6-0.6,1.5,0,2.1c3.6,3.6,7.2,7.2,10.8,10.8c0.6,0.6,1.5,0.6,2.1,0
						c1.2-1.2,2.4-2.4,3.6-3.6C1250.5,533.1,1248.4,531,1247,532.4z"/>
				</g>
			</g>
		</g>
	</g>
	<g>
		<rect x="1117.2" y="471.6" class="st6" width="77" height="77"/>
		<g id="lightbox_1_">
			<rect x="1132.2" y="490.1" class="st31" width="43.4" height="43.4"/>
			<polyline class="st28" points="1149.3,538.1 1127.6,538.1 1127.6,513.6 			"/>
			<path class="st1" d="M1166.1,498.2"/>
			<polyline class="st28" points="1132.2,530.6 1146.1,517.4 1154.7,522.7 1163.8,510.7 1175.6,526.2 			"/>
			<g>
				<circle class="st6" cx="1174.6" cy="491.2" r="9.1"/>
				<circle class="st32" cx="1174.6" cy="491.2" r="9.1"/>
				<line class="st4" x1="1174.6" y1="495" x2="1174.6" y2="487.3"/>
				<line class="st4" x1="1170.7" y1="491.2" x2="1178.4" y2="491.2"/>
			</g>
		</g>
	</g>
	<text transform="matrix(1 0 0 1 1121.5161 561)" class="st23" style="font-family:'Raleway-ExtraBold'; font-size:12px;">LIGHTBOX</text>
	<text transform="matrix(1 0 0 1 1266.2472 561)"><tspan x="0" y="0" class="st23" style="font-family:'Raleway-ExtraBold'; font-size:12px;">COLLECT</tspan><tspan x="1.6" y="14.4" class="st23" style="font-family:'Raleway-ExtraBold'; font-size:12px;">&amp; SHARE</tspan></text>
	<text transform="matrix(1 0 0 1 1195.6034 561)"><tspan x="0" y="0" class="st23" style="font-family:'Raleway-ExtraBold'; font-size:12px;">FACETED</tspan><tspan x="3" y="14.4" class="st23" style="font-family:'Raleway-ExtraBold'; font-size:12px;">SEARCH</tspan></text>
	<g id="CMS_1_">
		<polyline class="st31" points="901.1,821.7 901.1,849.9 915.7,849.9 		"/>
		<polygon class="st31" points="905.5,801.3 905.5,845.5 939.6,845.5 939.6,810.7 930.8,801.3 		"/>
		<polyline class="st31" points="938.8,811.4 930.3,811.4 930.3,801.7 		"/>
		<g>
			<g>
				<path class="st23" d="M912.3,811.5c2.4,0,4.9,0,7.3,0c1.4,0,1.5-2.2,0-2.2c-2.4,0-4.9,0-7.3,0
					C910.9,809.3,910.9,811.5,912.3,811.5L912.3,811.5z"/>
			</g>
		</g>
		<g>
			<g>
				<path class="st23" d="M912.3,831.7c6.6,0,13.1,0,19.7,0c1.4,0,1.5-2.2,0-2.2c-6.6,0-13.1,0-19.7,0
					C910.9,829.5,910.9,831.7,912.3,831.7L912.3,831.7z"/>
			</g>
		</g>
		<g>
			<g>
				<path class="st23" d="M912.3,825c6.6,0,13.1,0,19.7,0c1.4,0,1.5-2.2,0-2.2c-6.6,0-13.1,0-19.7,0
					C910.9,822.7,910.9,825,912.3,825L912.3,825z"/>
			</g>
		</g>
		<g>
			<g>
				<path class="st23" d="M912.3,838.5c6.6,0,13.1,0,19.7,0c1.4,0,1.5-2.2,0-2.2c-6.6,0-13.1,0-19.7,0
					C910.9,836.2,910.9,838.5,912.3,838.5L912.3,838.5z"/>
			</g>
		</g>
		<g>
			<g>
				<path class="st23" d="M912.3,818.2c6.6,0,13.1,0,19.7,0c1.4,0,1.5-2.2,0-2.2c-6.6,0-13.1,0-19.7,0
					C910.9,816,910.9,818.2,912.3,818.2L912.3,818.2z"/>
			</g>
		</g>
		
			<ellipse transform="matrix(1 -5.697945e-03 5.697945e-03 1 -4.5651 5.1585)" class="st6" cx="903" cy="803.8" rx="10.5" ry="10.5"/>
		<path class="st23" d="M895.5,802c-0.6,0.1-1,0.6-1,1.2l0,1.2c0,0.6,0.4,1.1,1,1.2l0.9,0.1c0.1,0.5,0.4,1,0.6,1.5l-0.6,0.7
			c-0.4,0.5-0.3,1.1,0.1,1.6l0.8,0.8c0.4,0.4,1.1,0.5,1.6,0.1l0.7-0.5c0.5,0.3,1,0.5,1.6,0.7l0.1,0.9c0.1,0.6,0.6,1,1.2,1l1.2,0
			c0.6,0,1.1-0.4,1.2-1l0.1-0.9c0.6-0.1,1.1-0.4,1.7-0.7l0.7,0.5c0.5,0.4,1.1,0.3,1.6-0.1l0.8-0.8c0.4-0.4,0.5-1.1,0.1-1.6l-0.5-0.6
			c0.3-0.5,0.5-1.1,0.7-1.6l0.8-0.1c0.6-0.1,1-0.6,1-1.2l0-1.2c0-0.6-0.4-1.1-1-1.2l-0.8-0.1c-0.1-0.6-0.4-1.1-0.7-1.6l0.5-0.6
			c0.4-0.5,0.3-1.1-0.1-1.6l-0.8-0.8c-0.4-0.4-1.1-0.5-1.6-0.1l-0.6,0.4c-0.5-0.3-1.1-0.6-1.7-0.7l-0.1-0.7c-0.1-0.6-0.6-1-1.2-1
			l-1.2,0c-0.6,0-1.1,0.4-1.2,1l-0.1,0.7c-0.6,0.2-1.2,0.4-1.8,0.7l-0.6-0.5c-0.5-0.4-1.1-0.3-1.6,0.1l-0.8,0.8
			c-0.4,0.4-0.5,1.1-0.1,1.6l0.5,0.6c-0.3,0.5-0.5,1.1-0.7,1.6L895.5,802z M903.1,800.6c1.7,0,3.1,1.4,3.1,3.1
			c0,1.7-1.4,3.1-3.1,3.1c-1.7,0-3.1-1.4-3.1-3.1C900,802,901.4,800.6,903.1,800.6L903.1,800.6z M903.1,800.6"/>
		
			<ellipse transform="matrix(0.672 -0.7405 0.7405 0.672 -313.1273 967.4508)" class="st6" cx="935.6" cy="837.2" rx="20.9" ry="12"/>
		<g>
			<path class="st33" d="M927.5,848.3c-0.8,0-2,0-3.4,0l0.8-0.8c1.6,0,3.4,0,4.7,0c0.4,0,0.7-0.3,0.7-0.7c0-0.4-0.3-0.7-0.7-0.7
				c-0.9,0-2.1,0-3.4,0l0.8-0.8c0.5,0,0.9,0,1.3,0c2.2,0,3.6,0.1,4.9-1.3l15.4-15.4c1.6-1.6,1.6-4.3,0-6c0,0,0,0,0,0c0,0,0,0,0,0
				c0,0,0,0,0,0c0,0,0,0,0,0c0,0,0,0,0,0c0,0,0,0,0,0c0,0,0,0,0,0c0,0,0,0,0,0c0,0,0,0,0,0c0,0,0,0,0,0c0,0,0,0,0,0c0,0,0,0,0,0
				c0,0,0,0,0,0c0,0,0,0,0,0c0,0,0,0,0,0c-3.3-0.2-6.7,0.3-9.9,1.6c-3.4,1.3-6.4,3.3-9,5.9c-2.6,2.6-4.6,5.7-5.9,9
				c-1.2,3.1-1.7,6.4-1.6,9.6l-1,1c-0.3,0.3-0.3,0.7,0,1s0.7,0.3,1,0l1-1c1.7,0,3.7,0,4.7,0c0.4,0,0.7-0.3,0.7-0.7
				C928.2,848.6,927.9,848.3,927.5,848.3L927.5,848.3z M947.7,827.8l-15.4,15.4c-0.9,0.9-1.8,0.9-3.9,0.9c0,0,0,0,0,0l19.7-19.7
				C948.8,825.4,948.7,826.8,947.7,827.8L947.7,827.8z M930.2,831c4.5-4.5,10.4-7.1,16.4-7.1l-23.5,23.5
				C923.2,841.4,925.7,835.5,930.2,831L930.2,831z M930.2,831"/>
		</g>
	</g>
	<g>
		<path d="M685.3,722.4l10.9-6.5v3.2l-6.8,4.1l6.8,4.2v3l-10.9-6.6V722.4z"/>
	</g>
	
		<image style="overflow:visible;" width="152" height="170" xlink:href="logo-a-light.png"  transform="matrix(1 0 0 1 998.8701 1801.5)">
	</image>
</g>
</svg>
