<svg xmlns="http://www.w3.org/2000/svg" viewBox="0 0 100 100"><defs><style>.cls-1{fill:none;}.cls-1,.cls-2,.cls-5{stroke:#2a2a2a;stroke-miterlimit:10;}.cls-1,.cls-2{stroke-width:3px;}.cls-2,.cls-4{fill:#fff;}.cls-3,.cls-5{fill:#2a2a2a;}.cls-5{stroke-width:0.5px;}</style></defs><title>Artboard 2</title><g id="Layer_2" data-name="Layer 2"><g id="CMS"><polyline class="cls-1" points="19.5 47.69 19.5 88 40.36 88"/><polygon class="cls-2" points="25.79 18.55 25.79 81.69 74.5 81.69 74.5 31.98 61.93 18.55 25.79 18.55"/><polyline class="cls-2" points="73.3 32.98 61.27 32.98 61.27 19.15"/><path class="cls-3" d="M35.51,32.69H45.94a1.13,1.13,0,0,0,0-2.25H35.51a1.13,1.13,0,0,0,0,2.25Z"/><path class="cls-3" d="M35.51,61.56H63.68a1.13,1.13,0,0,0,0-2.25H35.51a1.13,1.13,0,0,0,0,2.25Z"/><path class="cls-3" d="M35.51,51.94H63.68a1.13,1.13,0,0,0,0-2.25H35.51a1.13,1.13,0,0,0,0,2.25Z"/><path class="cls-3" d="M35.51,71.18H63.68a1.13,1.13,0,0,0,0-2.25H35.51a1.13,1.13,0,0,0,0,2.25Z"/><path class="cls-3" d="M35.51,42.31H63.68a1.13,1.13,0,0,0,0-2.25H35.51a1.13,1.13,0,0,0,0,2.25Z"/><circle class="cls-4" cx="22.26" cy="22.09" r="15" transform="translate(-0.13 0.13) rotate(-0.33)"/><path class="cls-3" d="M11.44,19.57A1.67,1.67,0,0,0,10,21.22v1.69a1.67,1.67,0,0,0,1.47,1.67l1.24.15a9.63,9.63,0,0,0,.89,2.15l-.8,1a1.67,1.67,0,0,0,.11,2.22l1.19,1.2a1.67,1.67,0,0,0,2.22.14l1-.77a9.73,9.73,0,0,0,2.22,1l.14,1.28a1.67,1.67,0,0,0,1.65,1.49H23a1.67,1.67,0,0,0,1.67-1.47l.15-1.22a10,10,0,0,0,2.4-.95l.94.75a1.67,1.67,0,0,0,2.22-.11l1.2-1.19A1.67,1.67,0,0,0,31.69,28L31,27.08a9.7,9.7,0,0,0,1-2.34l1.11-.12A1.67,1.67,0,0,0,34.57,23V21.27a1.67,1.67,0,0,0-1.47-1.67L32,19.47a10.09,10.09,0,0,0-.93-2.33l.67-.83a1.67,1.67,0,0,0-.11-2.22l-1.19-1.2a1.67,1.67,0,0,0-2.22-.14l-.81.63a9.83,9.83,0,0,0-2.44-1l-.11-1a1.67,1.67,0,0,0-1.65-1.49H21.55a1.66,1.66,0,0,0-1.67,1.47l-.13,1a10.07,10.07,0,0,0-2.51,1l-.84-.68a1.67,1.67,0,0,0-2.22.11L13,14a1.67,1.67,0,0,0-.14,2.22l.72.92a9.78,9.78,0,0,0-.94,2.34Zm10.9-2A4.4,4.4,0,1,1,17.92,22a4.4,4.4,0,0,1,4.43-4.37Zm0,0"/><ellipse class="cls-4" cx="68.8" cy="69.9" rx="29.87" ry="17.14" transform="translate(-29.2 73.88) rotate(-47.78)"/><path class="cls-5" d="M57.2,85.73H52.39l1.14-1.14h6.73a1,1,0,1,0,0-1.93H55.47l1.14-1.14,1.89,0c3.2.06,5.13.1,7-1.81L87.48,57.78a6,6,0,0,0,0-8.52l-.07-.06,0,0,0,0,0,0,0,0,0,0,0,0,0,0h-.27a33.55,33.55,0,0,0-14.2,2.22A37.69,37.69,0,0,0,51.31,72.55a33.62,33.62,0,0,0-2.24,13.76l-1.4,1.4A1,1,0,1,0,49,89.08l1.43-1.43,6.73,0a1,1,0,1,0,0-1.93ZM86.11,56.41,64.17,78.35c-1.33,1.33-2.59,1.3-5.63,1.24h0l28.2-28.2a4.1,4.1,0,0,1-.6,5ZM61.12,61A33.62,33.62,0,0,1,84.53,50.84L51,84.42A33.62,33.62,0,0,1,61.12,61Zm0,0"/></g></g></svg>