<svg xmlns="http://www.w3.org/2000/svg" viewBox="0 0 500 519.8"><defs><style>.a{fill:#e2231a;}</style></defs><title>KCL+KDL_box_red</title><path class="a" d="M333.5,333.1h3c14.8,0,23.3-9.2,23.3-25.3,0-21.4-16.7-23.7-23.8-23.7s-9.6.4-9.6,5.3v36.1C326.3,332.2,329.9,333.1,333.5,333.1Z" transform="translate(-60 -60)"/><path class="a" d="M316.5,251c3.4,0,7.9-4.1,11.9-11.1,3.8-6.5,6.3-14,6.3-18.9,0-2.1-.5-5.6-4.1-5.6-7.7,0-18.2,19.3-18.2,30.2C312.4,249.2,313.8,251,316.5,251Z" transform="translate(-60 -60)"/><path class="a" d="M190.4,308.1c0,15,7.6,25.4,18.4,25.4,12.2,0,18.7-8.8,18.7-25.4,0-14.1-7.9-24.4-18.7-24.4C197.6,283.7,190.4,293.3,190.4,308.1Z" transform="translate(-60 -60)"/><path class="a" d="M405.3,333.5c12.2,0,18.7-8.8,18.7-25.4,0-14.1-7.9-24.4-18.7-24.4-11.2,0-18.4,9.6-18.4,24.4C386.9,323.1,394.5,333.5,405.3,333.5Z" transform="translate(-60 -60)"/><path class="a" d="M417.2,219.7c0-2.1-.9-3.2-2.8-3.2-3.2,0-6.4,3.2-7.3,4.2a43.73,43.73,0,0,0-8.2,11.4,65.86,65.86,0,0,0,9-2.3C413.6,227.9,417.2,224,417.2,219.7Z" transform="translate(-60 -60)"/><path class="a" d="M448.2,215.2c-3.2,0-6.6,2.7-9.3,7.5a16.83,16.83,0,0,0-2.6,8.3c0,2.8,1.1,4.4,2.9,4.4,2.3,0,5.4-.9,9.4-7.5a19.16,19.16,0,0,0,2.8-9.2C451.4,216.5,450.3,215.2,448.2,215.2Z" transform="translate(-60 -60)"/><path class="a" d="M421.6,259.4c0,3.2,3.8,6.4,11.1,6.4,5.6,0,9.4-2.4,9.4-5.9,0-1.9-.6-3-4.3-5.3-1.4-.8-3.1-1.7-4.6-2.4-.9-.4-1.7-.9-2.5-1.3C427.9,252,421.6,254.7,421.6,259.4Z" transform="translate(-60 -60)"/><path class="a" d="M60,60V440.8H560V60ZM454,169.2c0-1.7.9-2,1.7-2,1.2,0,1.6.8,1.9,1.7,3.8,12.8,14.4,14.2,18.7,14.2,6.6,0,13.7-3.2,13.7-12.1s-6.3-11-15.1-14.1l-.6-.2c-8.8-3.1-18.2-7.5-18.2-19.6,0-11.1,10.2-16.1,19.6-16.1a24.24,24.24,0,0,1,8.8,1.7,10,10,0,0,0,2.9.7c1,0,1.7-.6,2.2-2,.4-1,1-1.1,1.3-1.1.9,0,1.3.4,1.5,1.4l2,14.1a1.25,1.25,0,0,1-.3,1.2,1.39,1.39,0,0,1-1,.5,1.77,1.77,0,0,1-1.6-1.2c-3.5-7.1-8.5-10.8-15.1-10.8s-10.8,3.5-10.8,9c0,6.2,4.4,10,15,13.1,13,3.7,19.3,10.4,19.3,20.4,0,18.5-17.6,19.9-23,19.9a32.46,32.46,0,0,1-13.8-3.4,11.7,11.7,0,0,0-3.7-1.3c-.9,0-1.7.8-2.3,2.3a1.82,1.82,0,0,1-1.6,1.1,1.55,1.55,0,0,1-1.6-1.7V169.2h.1ZM472.3,250c4.4,0,8.2-3.4,11-6.3a2,2,0,0,1,1.3-.6,1.54,1.54,0,0,1,1.5,1.5,2.53,2.53,0,0,1-.6,1.5h0c-3.4,4.2-8.3,9.1-16.7,9.1-5.6,0-9.4-3.9-9.4-9.6,0-16.3,16.7-32.9,28.7-32.9,4.7,0,7.4,2.3,7.4,6.3,0,6.3-5.2,11.3-15,14.4-2.8.9-8.4,2.1-11.5,2.7a19.82,19.82,0,0,0-1.9,7.7C467.1,247.6,469,250,472.3,250Zm-15.4-31.5a19.13,19.13,0,0,1,.3,3.2,17.08,17.08,0,0,1-1.6,7.2q-4.8,10.2-15.6,10.2a13.12,13.12,0,0,1-2.7-.3c-.9-.1-1.9-.3-2.6-.3-2.9,0-4.3.9-4.3,2.7,0,2.1,4.1,4.1,9.8,6.9l.2.1c6.3,3.2,9.4,6.4,9.4,10,0,6.7-7,11.2-17.5,11.2s-17.9-4.3-17.9-10.2c0-6.2,9.5-9.5,13.2-10.5-2.5-1.9-3.9-3.5-3.9-6.2,0-3.5,3.4-5.5,6.6-6.3,1.2-.3,2.2-.6,2.2-.9,0-.1-.2-.3-.3-.5a.76.76,0,0,1-.2-.4,11.55,11.55,0,0,1-1.5-5.7c0-2.7.5-5.2,3.3-9a18.33,18.33,0,0,1,14.1-7.5,13.06,13.06,0,0,1,6.8,1.6,3.74,3.74,0,0,0,1.1.4,2.84,2.84,0,0,0,1.2-.4c.1-.1.3-.1.4-.2a11.11,11.11,0,0,1,6-1.9c2.1,0,3.3,1,3.3,2.7a2.68,2.68,0,0,1-2.7,2.9,5.49,5.49,0,0,1-2.4-.7,6.15,6.15,0,0,0-2.3-.7c-1.4,0-2.4.6-2.4,1.3A2.84,2.84,0,0,0,456.9,218.5ZM253.2,327.3c.1,6.2,3.7,6.8,6.5,7.3.9.2,1.4.6,1.4,1.3a1.21,1.21,0,0,1-1.3,1.3H242a1.16,1.16,0,0,1-1.2-1.3c0-.7.5-1.2,1.4-1.3,4.1-.6,5.8-2.8,5.8-7.3l.3-39.4c0-3.3-1.3-4.6-5.3-5.1-1.2-.2-1.4-.9-1.4-1.5a1.21,1.21,0,0,1,1.3-1.3h15.3l.1.1,35.3,41.4-.7-31.6c-.1-5.2-2.2-6.5-6.5-7.3-.9-.2-1.4-.6-1.4-1.3a1.21,1.21,0,0,1,1.3-1.3h17.8a1.18,1.18,0,0,1,1.2,1.3c0,.7-.5,1.2-1.4,1.3-4.1.6-5.8,2.8-5.8,7.3l-.3,47.1v.3h-3.5l-.1-.1-41.5-48.8ZM305,216.4a1.51,1.51,0,0,1-1.6,1.1,1.58,1.58,0,0,1-1.6-1.6,5.28,5.28,0,0,1,.1-1.2c0-.4.1-.8.1-1.1,0-7.9-4.4-12.6-11.8-12.6-12.7,0-28.2,21.2-28.2,38.5,0,4.4,1.2,11.8,9.2,11.8,8.5,0,18.8-5.7,22.9-12.7.7-1.2,1.3-1.6,2.2-1.6a1.43,1.43,0,0,1,1.2.6,1.81,1.81,0,0,1,0,1.8l-5.6,16.3a1.7,1.7,0,0,1-1.6.8A1.32,1.32,0,0,1,289,255c-.1-2.3-.3-3.8-1.3-3.8a11.58,11.58,0,0,0-3.6,1c-5.6,2.3-9.4,3.2-13.7,3.2-10.5,0-17-6.9-17-17.9,0-9.6,4.1-19.7,11.2-27.8,7.3-8.3,16.8-13,26.1-13a16.43,16.43,0,0,1,13,5.6,1.22,1.22,0,0,0,1,.5c.6,0,1.5-1.3,2.2-2.2l.3-.4c.5-.8.9-1.1,1.4-1.1a1.23,1.23,0,0,1,1,.5,2,2,0,0,1,.1,1.8Zm25.1-4.9c6.3,0,10.4,5,10.4,12.7a36.54,36.54,0,0,1-7,20.7c-4.7,6.5-10.8,10.2-16.8,10.2-6.2,0-10.3-5.1-10.3-12.7C306.5,226.2,317.8,211.5,330.1,211.5ZM311,282.7a1.38,1.38,0,0,1-1.5-1.3,1.18,1.18,0,0,1,1.2-1.3h27c6.2,0,15.1,1.1,22.1,6.4,6.6,4.9,9.9,12.2,9.9,21.8,0,10.3-3.8,18.1-11.4,23.3-7.8,5.4-16.8,5.9-20.3,5.9H310.7a1.18,1.18,0,0,1-1.2-1.3c0-.7.5-1.2,1.5-1.3,4-.4,5.8-2.7,5.8-7.3V290.2C316.8,285.3,314.9,283,311,282.7Zm58.3-27.9a9.05,9.05,0,0,1-3.3.5,2.77,2.77,0,0,1-2.8-2.7,10.07,10.07,0,0,1,1-3.6c4.9-11.8,9.7-22.9,14.8-34.6,1.7-3.9,3.4-7.8,5.1-11.8a5.4,5.4,0,0,0,.4-1.2c0-.2-.1-.3-.3-.4a20.92,20.92,0,0,0-2.8-.4c-.3,0-.6-.1-.8-.1a1.44,1.44,0,0,1-1.5-1.3c0-.7.7-1.3,1.6-1.5,1.3-.2,3-.3,4.5-.4a15.56,15.56,0,0,1,2-.1c1.5-.1,3.6-.3,4.7-.3.8,0,1.3.4,1.3,1.1a5.22,5.22,0,0,1-.6,2.1l-21.1,48.8a.35.35,0,0,1-.1.2,2.54,2.54,0,0,0-.2.7c0,.1,0,.1.1.1a3.55,3.55,0,0,0,.9-.4,29.6,29.6,0,0,0,4.6-3.2,13.45,13.45,0,0,1,1.4-1.1,1.67,1.67,0,0,1,1.1-.4c.7,0,1.1.5,1.1,1.3a2,2,0,0,1-.6,1.4A23.31,23.31,0,0,1,369.3,254.8Zm31.1-4.8c4.4,0,8.2-3.4,11-6.3a2,2,0,0,1,1.3-.6,1.54,1.54,0,0,1,1.5,1.5,2.53,2.53,0,0,1-.6,1.5c-3.3,4.2-8.3,9.1-16.7,9.1-5.5,0-9.4-4-9.4-9.6,0-16.3,16.7-32.9,28.7-32.9,4.7,0,7.3,2.3,7.3,6.3,0,6.3-5.2,11.3-15,14.4-2.8.9-8.4,2.1-11.5,2.7a19.82,19.82,0,0,0-1.9,7.7C395.1,247.6,397.1,250,400.4,250Zm4.9,29.6c16.4,0,28.8,12.3,28.8,28.5,0,17.7-11.6,29.6-28.8,29.6-16.8,0-28.5-12.2-28.5-29.6A28.17,28.17,0,0,1,405.3,279.6Zm38.5-158.7c4,0,6.4,2.8,6.4,7.3,0,5-3.2,10.7-9.4,11.8h-.3a1.27,1.27,0,0,1-1.4-1.2,1.82,1.82,0,0,1,1.1-1.6c3.5-1.4,5.6-3.9,5.6-6.5,0-.2,0-.3-.1-.4a3.63,3.63,0,0,1-2.8,1.2,4.87,4.87,0,0,1-5.1-5.1C437.9,122.3,441.1,120.9,443.8,120.9Zm-67.7,7.6c6.5-4.8,15.6-7.6,24.7-7.6,9.8,0,14.6,2.4,20.3,5.7a6.52,6.52,0,0,0,2.7,1.2c1.3,0,1.9-1.6,2.2-2.5a1.73,1.73,0,0,1,1.7-1.5,1.56,1.56,0,0,1,1.5,1.6v14.5a1.59,1.59,0,0,1-1.5,1.7c-.9,0-1.5-.5-2.1-1.6-4.7-9.6-13.1-14.5-24.8-14.5-17.5,0-25.4,15.3-25.4,29.5s7.5,28.3,24.4,28.3a23.17,23.17,0,0,0,14.1-4.1,5.09,5.09,0,0,0,2.1-4.4v-8.2c0-4.7-3.5-5.9-9.4-6.3a1.84,1.84,0,0,1-1.9-1.9,1.73,1.73,0,0,1,1.9-1.6h27.2a1.44,1.44,0,0,1,1.6,1.5c0,1-.5,1.7-1.3,1.7h0c-3.8.3-7.3,1-7.3,6.1v12.3l-.1.1a41.92,41.92,0,0,1-26.8,9.5c-9.5,0-18.2-2.5-24.3-7.1-7.8-5.8-11.7-14.6-11.7-26.2C363.7,143.5,368,134.5,376.1,128.5ZM363,197.4a15.56,15.56,0,0,1,2-.1c1.5-.1,3.6-.3,4.7-.3.8,0,1.3.4,1.3,1.1a5.22,5.22,0,0,1-.6,2.1L349.3,249a.35.35,0,0,1-.1.2,2.54,2.54,0,0,0-.2.7c0,.1,0,.1.1.1a2,2,0,0,0,.9-.4,29.6,29.6,0,0,0,4.6-3.2,13.45,13.45,0,0,1,1.4-1.1,1.67,1.67,0,0,1,1.1-.4c.7,0,1.1.5,1.1,1.3a2,2,0,0,1-.6,1.4,23.85,23.85,0,0,1-10.4,7.2,9.05,9.05,0,0,1-3.3.5,2.77,2.77,0,0,1-2.8-2.7,9.25,9.25,0,0,1,1-3.6c4.9-11.8,9.7-22.8,14.8-34.5,1.7-3.9,3.4-7.9,5.2-11.9a5.4,5.4,0,0,0,.4-1.2c0-.2-.1-.3-.3-.4a20.92,20.92,0,0,0-2.8-.4c-.3,0-.6-.1-.9-.1a1.32,1.32,0,0,1-1.5-1.3c0-.7.7-1.3,1.6-1.5C359.9,197.6,361.6,197.5,363,197.4Zm-77.5-12.9c4.8-.6,6.1-2.5,6.4-9.3.5-14.3.5-32.1.5-45.1,0-4.1-3.5-5.5-6.4-5.9-1.1-.2-1.7-.7-1.7-1.6s.7-1.3,1.7-1.3h16.9l.1.1,41.9,47c0-4.2-.2-26.5-.8-34.8-.5-7.6-3.4-8.6-7.7-9.3a1.6,1.6,0,0,1-1.3-1.5,1.37,1.37,0,0,1,1.2-1.5h20.3c1.1,0,1.7.5,1.7,1.3s-.6,1.4-1.7,1.6c-4.8.6-6.1,2.5-6.4,9.3-.5,14.1-.5,53.3-.5,53.7v.3h-3.5l-.1-.1L297,132.7c0,4.9.3,34.1.8,42.5.5,7.6,3.4,8.6,7.7,9.3a1.6,1.6,0,0,1,1.3,1.5,1.37,1.37,0,0,1-1.2,1.5H285.3c-1.1,0-1.7-.5-1.7-1.3A2,2,0,0,1,285.5,184.5ZM250,124.2c-1.1-.2-1.7-.7-1.7-1.6s.7-1.3,1.7-1.3h23.7c1.1,0,1.7.5,1.7,1.3s-.6,1.4-1.7,1.6c-4.7.6-6.4,2.7-6.4,8.1v44.1c0,5.3,1.7,7.5,6.4,8.1,1.1.2,1.7.7,1.7,1.6s-.7,1.3-1.7,1.3H250c-1.1,0-1.7-.5-1.7-1.3s.6-1.4,1.7-1.6c4.7-.6,6.4-2.7,6.4-8.1V132.3C256.4,127,254.7,124.8,250,124.2ZM121,252.3c0-1.3,1-2.1,2.5-2.3,5.2-.8,13.1-2,13.6-17,.3-6.3.4-19.8.4-37.1,0-26.2-.1-48.7-.3-53.3-.5-15-8.4-16.2-13.6-17-1.6-.1-2.5-1-2.5-2.3s1.1-2.1,2.8-2.1c.6,0,2.1,0,4.3.1,4.8.1,12.9.3,19.6.3,11.2,0,15.3,0,24.5-.4a2.16,2.16,0,0,1,2.3,2.1c0,1.4-.8,2.2-2.5,2.5-14.4,2-15.7,8-15.8,15.6-.3,16.6-.4,40.9-.4,42,0,.4.1,1.6.8,1.6a1.73,1.73,0,0,0,1.2-.5c5.3-4.4,21.4-20.3,33.8-33.1A89.22,89.22,0,0,0,203.4,137a10.75,10.75,0,0,0,2.1-5.8c0-2.2-1.2-3-3.2-3.8a26.37,26.37,0,0,0-5.2-1.3c-.3-.1-.6-.1-.9-.2-1.7-.3-2.8-1.3-2.8-2.5,0-1.4,1.2-2.4,3.1-2.4.6,0,1.7,0,3.4.1,4,.1,10.6.3,18.2.3,3.6,0,8.5-.1,12.4-.3,2.9-.1,5.4-.2,6.7-.2,1.8,0,3,.9,3,2.4a2.25,2.25,0,0,1-1.8,2.3c-5.5,1.3-11.2,2.7-26.3,16.4-12,10.8-33.2,32.4-37.4,37.1,2.9,3.4,47,56,55,62.4s11.9,7.6,18.4,8.3a2.25,2.25,0,0,1,2.1,2.4,1.83,1.83,0,0,1-2.1,2H213.8l-.1-.1c-16-19.3-44.1-52.8-53.3-60.5a3.78,3.78,0,0,0-2.4-.9c-.7,0-1.9.3-2,2.4-.1,1.7-.3,9.8-.3,18.7s.3,16.9.5,20c.8,8.5,3.8,13.8,17.4,15.6,1.7.3,2.5,1.1,2.5,2.5a2.16,2.16,0,0,1-2.3,2.1c-9.1-.4-14.8-.4-26.1-.4-6.7,0-14.8.2-19.6.3-2.2.1-3.7.1-4.3.1C122,254.5,121,253.7,121,252.3Zm116.6,55.8c0,17.7-11.6,29.6-28.8,29.6-16.8,0-28.5-12.2-28.5-29.6a28.17,28.17,0,0,1,28.5-28.5C225.3,279.6,237.6,291.8,237.6,308.1ZM124.7,336a1.42,1.42,0,0,1,1.4-1.3h0c4-.4,5.8-2.7,5.8-7.3V290c0-4.7-1.9-7-5.8-7.3a1.44,1.44,0,0,1-1.5-1.3,1.18,1.18,0,0,1,1.2-1.3h21.8a1.5,1.5,0,0,1,1.6,1.5c0,.7-.5,1.2-1.5,1.3-1.9.1-6.5.8-6.5,5.7v38.8c0,4.2,1.6,5.9,11.8,5.9,9.2,0,16.1-.9,20.3-12.8a1.79,1.79,0,0,1,1.7-1.2,1.43,1.43,0,0,1,1.1.5,1.55,1.55,0,0,1,.2,1.5l-3,15.9v.2H126A1.41,1.41,0,0,1,124.7,336Zm369.6,38.6v9.7H125.5v-10H494.3Zm0-17.3v5.1H125.5V357H494.3Zm6.1-74.6c-4.1.6-5.8,2.8-5.8,7.3l-.3,47.1v.3h-3.5l-.1-.1-41.5-48.8.4,39c.1,6.2,3.7,6.8,6.5,7.3.9.2,1.4.6,1.4,1.3a1.21,1.21,0,0,1-1.3,1.3H438.4a1.16,1.16,0,0,1-1.2-1.3c0-.7.5-1.2,1.4-1.3,4.1-.6,5.8-2.8,5.8-7.3l.3-39.4c0-3.3-1.3-4.6-5.3-5.1-1.2-.2-1.4-.9-1.4-1.5a1.21,1.21,0,0,1,1.3-1.3h15.3l.1.1L490,321.7l-.7-31.6c-.1-5.2-2.1-6.5-6.5-7.3-.9-.2-1.4-.6-1.4-1.3a1.21,1.21,0,0,1,1.3-1.3h17.8a1.18,1.18,0,0,1,1.2,1.3C501.8,282,501.3,282.5,500.4,282.7Z" transform="translate(-60 -60)"/><path class="a" d="M489.2,219.7c0-2.1-.9-3.2-2.8-3.2-3.1,0-6.4,3.2-7.3,4.2a43.43,43.43,0,0,0-8.1,11.4,65.86,65.86,0,0,0,9-2.3C485.5,227.9,489.2,224,489.2,219.7Z" transform="translate(-60 -60)"/><path d="M88.53,566.33,80,543.54v22.79H67.82v-55H80V531.5l8.24-20.21h12.4L90,535.73l12.25,30.6Z" transform="translate(-60 -60)"/><path d="M104.66,521.62V511.3H116v10.32Zm0,44.72V525.2H116v41.13Z" transform="translate(-60 -60)"/><path d="M139.77,566.33V537.24a3.57,3.57,0,0,0-.61-2.22,2.43,2.43,0,0,0-2-.79q-2,0-3.19,2.33a14.16,14.16,0,0,0-1.18,6.34v23.43H121.42V525.2h11.25v6.67a10.75,10.75,0,0,1,3.37-5.48,9.09,9.09,0,0,1,6-2,10.19,10.19,0,0,1,3.37.57,8,8,0,0,1,2.9,1.76,8.53,8.53,0,0,1,2,3,11.35,11.35,0,0,1,.75,4.33v32.25Z" transform="translate(-60 -60)"/><path d="M186.06,567q0,6.59-4,9.67T169,579.8a36.89,36.89,0,0,1-5.7-.43,16.89,16.89,0,0,1-4.87-1.47,9.29,9.29,0,0,1-3.4-2.76,6.85,6.85,0,0,1-1.29-4.23,4.62,4.62,0,0,1,1-3.08,8.77,8.77,0,0,1,2.83-2.08l1.86-.93L158,564a6.86,6.86,0,0,1-2.87-2.87,9,9,0,0,1-.79-3.94,7.06,7.06,0,0,1,1.54-4.66,15.27,15.27,0,0,1,3.4-3.08l1.29-.86-1.22-1.08a8.27,8.27,0,0,1-1.58-1.79,14.4,14.4,0,0,1-1.25-2.33,16,16,0,0,1-.86-2.62,11.77,11.77,0,0,1-.32-2.72q0-6.74,3.48-10.46t10.35-3.73a20.66,20.66,0,0,1,3.33.21,10.41,10.41,0,0,1,2.4.72l1.08-7.45h9.17l-6.31,9.46a14.8,14.8,0,0,1,3.55,4.44,14.22,14.22,0,0,1,1.47,6.81,12.92,12.92,0,0,1-3.4,9.39q-3.4,3.51-9.42,3.51-1.29,0-2.83-.07a11.31,11.31,0,0,1-2.54-.36q-.86.57-1.65,1a1.72,1.72,0,0,0-.79,1.61q0,1.51,1.15,1.76a11,11,0,0,0,2.36.25l6.81-.07q5.87-.07,9.17,2.87T186.06,567ZM176,569.2a3,3,0,0,0-1.43-2.62q-1.43-1-5-1h-5a6.32,6.32,0,0,0-1.4,1.65,4,4,0,0,0-.61,2.08,3.35,3.35,0,0,0,1.9,3,9.32,9.32,0,0,0,4.77,1.11,20.58,20.58,0,0,0,3.58-.25,5,5,0,0,0,2.08-.79,2.44,2.44,0,0,0,.93-1.33A7.15,7.15,0,0,0,176,569.2Zm-2.72-32a21.75,21.75,0,0,0-.25-3.69,6.71,6.71,0,0,0-.72-2.19,2.25,2.25,0,0,0-1.18-1,5.54,5.54,0,0,0-3.3,0,2.24,2.24,0,0,0-1.18,1,6.2,6.2,0,0,0-.68,2.19,31.8,31.8,0,0,0,0,7.38,6.2,6.2,0,0,0,.68,2.19,2.24,2.24,0,0,0,1.18,1,5.54,5.54,0,0,0,3.3,0,2.24,2.24,0,0,0,1.18-1,6.71,6.71,0,0,0,.72-2.19A21.75,21.75,0,0,0,173.24,537.17Z" transform="translate(-60 -60)"/><path d="M198.6,523.33a14.83,14.83,0,0,1-1.43,6.77,9.69,9.69,0,0,1-5.16,4.41,13.34,13.34,0,0,1-2,.68,17.49,17.49,0,0,1-2.22.39l-.86-3.94a11.43,11.43,0,0,0,4-2.15,4.75,4.75,0,0,0,1.72-2.76,13.17,13.17,0,0,0,.14-3.4h-4.23v-12h10Z" transform="translate(-60 -60)"/><path d="M232.36,553.93a18,18,0,0,1-.82,5.7,9.33,9.33,0,0,1-2.69,4.12,12,12,0,0,1-4.84,2.47,28,28,0,0,1-7.35.82q-7.6,0-11-2.65t-3.37-7.74a13.82,13.82,0,0,1,.25-2.65,22.54,22.54,0,0,1,.61-2.44l8.67.57a12.83,12.83,0,0,0-.29,2.65,5.39,5.39,0,0,0,1,3.51,4,4,0,0,0,3.3,1.22,4.25,4.25,0,0,0,2.11-.47,3.59,3.59,0,0,0,1.25-1.11,4.29,4.29,0,0,0,.61-1.4,5.85,5.85,0,0,0,.18-1.33,3.92,3.92,0,0,0-1-2.72,9.62,9.62,0,0,0-3.26-2.08l-4.44-2.08a32.54,32.54,0,0,1-2.9-1.58,13.16,13.16,0,0,1-2.87-2.37,12.36,12.36,0,0,1-2.22-3.48,12.15,12.15,0,0,1-.9-4.91,11.31,11.31,0,0,1,1.15-5.2,11,11,0,0,1,3.15-3.8,14.29,14.29,0,0,1,4.62-2.33,19.18,19.18,0,0,1,5.55-.79,22,22,0,0,1,5.27.61,12.65,12.65,0,0,1,4.26,1.86,9.2,9.2,0,0,1,2.83,3.15,9.36,9.36,0,0,1,1,4.55,12.37,12.37,0,0,1-.14,2,7.86,7.86,0,0,1-.5,1.72l-8.53-.14a6.26,6.26,0,0,0,.29-1.25,14.49,14.49,0,0,0,.07-1.61,3.27,3.27,0,0,0-1-2.62,4.19,4.19,0,0,0-2.83-.9,3.4,3.4,0,0,0-2.72,1,3.94,3.94,0,0,0-.86,2.65,3.31,3.31,0,0,0,1.22,2.76,15.53,15.53,0,0,0,3.3,1.9l5.52,2.36a26.12,26.12,0,0,1,3.22,1.76,11.13,11.13,0,0,1,2.62,2.33,10.4,10.4,0,0,1,1.76,3.26A14.47,14.47,0,0,1,232.36,553.93Z" transform="translate(-60 -60)"/><path d="M287.25,541.39a61.47,61.47,0,0,1-.75,10,24.67,24.67,0,0,1-2.58,7.88,13.63,13.63,0,0,1-4.87,5.2,14.39,14.39,0,0,1-7.63,1.86H254.57v-55h17.7a10.5,10.5,0,0,1,6.59,2.15,16.26,16.26,0,0,1,4.66,6.09,36.36,36.36,0,0,1,2.79,9.5A75.11,75.11,0,0,1,287.25,541.39Zm-12.18-1.29q0-5.52-.21-9.28a30.72,30.72,0,0,0-.82-6,6.1,6.1,0,0,0-1.79-3.23,4.77,4.77,0,0,0-3.12-1h-2.65v35.76h2.79a5.41,5.41,0,0,0,2.58-.57,4.36,4.36,0,0,0,1.79-2.33,19.36,19.36,0,0,0,1.08-4.94A78.91,78.91,0,0,0,275.07,540.1Z" transform="translate(-60 -60)"/><path d="M291.55,521.62V511.3h11.32v10.32Zm0,44.72V525.2h11.32v41.13Z" transform="translate(-60 -60)"/><path d="M338.06,567q0,6.59-4,9.67T321,579.8a36.88,36.88,0,0,1-5.7-.43,16.89,16.89,0,0,1-4.87-1.47,9.29,9.29,0,0,1-3.4-2.76,6.85,6.85,0,0,1-1.29-4.23,4.62,4.62,0,0,1,1-3.08,8.77,8.77,0,0,1,2.83-2.08l1.86-.93L310,564a6.86,6.86,0,0,1-2.87-2.87,9,9,0,0,1-.79-3.94,7.06,7.06,0,0,1,1.54-4.66,15.26,15.26,0,0,1,3.4-3.08l1.29-.86-1.22-1.08a8.27,8.27,0,0,1-1.58-1.79,14.4,14.4,0,0,1-1.25-2.33,16,16,0,0,1-.86-2.62,11.77,11.77,0,0,1-.32-2.72q0-6.74,3.48-10.46t10.35-3.73a20.65,20.65,0,0,1,3.33.21,10.4,10.4,0,0,1,2.4.72l1.07-7.45h9.17l-6.31,9.46a14.8,14.8,0,0,1,3.55,4.44,14.22,14.22,0,0,1,1.47,6.81,12.92,12.92,0,0,1-3.4,9.39q-3.4,3.51-9.42,3.51-1.29,0-2.83-.07a11.32,11.32,0,0,1-2.54-.36q-.86.57-1.65,1a1.72,1.72,0,0,0-.79,1.61q0,1.51,1.15,1.76a11,11,0,0,0,2.36.25l6.81-.07q5.88-.07,9.17,2.87T338.06,567ZM328,569.2a3,3,0,0,0-1.43-2.62q-1.43-1-5-1h-5a6.32,6.32,0,0,0-1.4,1.65,4,4,0,0,0-.61,2.08,3.35,3.35,0,0,0,1.9,3,9.32,9.32,0,0,0,4.77,1.11,20.57,20.57,0,0,0,3.58-.25,5,5,0,0,0,2.08-.79,2.44,2.44,0,0,0,.93-1.33A7.13,7.13,0,0,0,328,569.2Zm-2.72-32a21.87,21.87,0,0,0-.25-3.69,6.72,6.72,0,0,0-.72-2.19,2.25,2.25,0,0,0-1.18-1,5.54,5.54,0,0,0-3.3,0,2.24,2.24,0,0,0-1.18,1,6.17,6.17,0,0,0-.68,2.19,31.66,31.66,0,0,0,0,7.38,6.17,6.17,0,0,0,.68,2.19,2.23,2.23,0,0,0,1.18,1,5.54,5.54,0,0,0,3.3,0,2.25,2.25,0,0,0,1.18-1,6.72,6.72,0,0,0,.72-2.19A21.86,21.86,0,0,0,325.23,537.17Z" transform="translate(-60 -60)"/><path d="M340.56,521.62V511.3h11.32v10.32Zm0,44.72V525.2h11.32v41.13Z" transform="translate(-60 -60)"/><path d="M381.12,564.54a7.49,7.49,0,0,1-1.68.79,24.6,24.6,0,0,1-2.69.79,30.67,30.67,0,0,1-3.19.57,26.25,26.25,0,0,1-3.33.21,17.24,17.24,0,0,1-4-.43,7.64,7.64,0,0,1-3-1.43,6.47,6.47,0,0,1-1.93-2.65,10.71,10.71,0,0,1-.68-4.08l.14-25.37h-6.09V525.2h6.23l.29-11.32h10.75V525.2h8.6v7.74h-8.6v20.78a3.5,3.5,0,0,0,.47,1.93,2.92,2.92,0,0,0,1.22,1.08,5.25,5.25,0,0,0,1.65.47,14.81,14.81,0,0,0,1.76.11,9.36,9.36,0,0,0,2.33-.25,13.45,13.45,0,0,0,1.83-.61Z" transform="translate(-60 -60)"/><path d="M418.6,565a10.64,10.64,0,0,1-1.25.68,13.77,13.77,0,0,1-1.86.72,18.83,18.83,0,0,1-2.22.54,12.61,12.61,0,0,1-2.26.22,12.18,12.18,0,0,1-3.44-.39,5,5,0,0,1-2-1.11,4.41,4.41,0,0,1-1.11-1.68,19.92,19.92,0,0,1-.64-2.11l-.65,1.29a7.28,7.28,0,0,1-2.79,2.72,10.38,10.38,0,0,1-5.52,1.29,10.75,10.75,0,0,1-5.05-1.08,9.61,9.61,0,0,1-3.33-2.83,11.47,11.47,0,0,1-1.86-4,18,18,0,0,1-.57-4.51,12.91,12.91,0,0,1,2.44-8.24q2.43-3.08,7.81-4.16l4.3-.93a17.82,17.82,0,0,0,2.65-.75,4.27,4.27,0,0,0,1.58-1,3.26,3.26,0,0,0,.79-1.5,9.56,9.56,0,0,0,.21-2.19q0-2.94-1.15-4.12a4.48,4.48,0,0,0-3.37-1.18,5.19,5.19,0,0,0-3.48,1.18,3.81,3.81,0,0,0-1.4,3,10.44,10.44,0,0,0,.14,1.86,11.84,11.84,0,0,0,.43,1.65l-9.46.21q-.29-1.22-.43-2.08a15.16,15.16,0,0,1-.14-2.37,9.12,9.12,0,0,1,1.15-4.73,9.45,9.45,0,0,1,3.12-3.19,14.09,14.09,0,0,1,4.59-1.83,26.27,26.27,0,0,1,5.63-.57,33.2,33.2,0,0,1,7.27.68,14.52,14.52,0,0,1,4.8,1.9,7.45,7.45,0,0,1,2.65,2.9,8.45,8.45,0,0,1,.82,3.76v23.94a2.08,2.08,0,0,0,.79,1.76,3,3,0,0,0,1.86.61,2.53,2.53,0,0,0,1-.21Zm-14.83-19.13a14.46,14.46,0,0,1-1.72.79q-.93.36-1.72.57a14.71,14.71,0,0,0-2.51.93,4.25,4.25,0,0,0-1.54,1.22,4.35,4.35,0,0,0-.75,1.72,11.41,11.41,0,0,0-.21,2.37,9.4,9.4,0,0,0,.75,4.19,2.88,2.88,0,0,0,2.83,1.47,6.2,6.2,0,0,0,1.9-.29,3,3,0,0,0,1.54-1.22,7.82,7.82,0,0,0,1-2.76,23.83,23.83,0,0,0,.39-4.84Z" transform="translate(-60 -60)"/><path d="M422,566.33v-55h11.32v55Z" transform="translate(-60 -60)"/><path d="M457.51,566.33v-55H469.7v44.5h13.62v10.53Z" transform="translate(-60 -60)"/><path d="M519.86,565a10.64,10.64,0,0,1-1.25.68,13.77,13.77,0,0,1-1.86.72,18.83,18.83,0,0,1-2.22.54,12.61,12.61,0,0,1-2.26.22,12.18,12.18,0,0,1-3.44-.39,5,5,0,0,1-2-1.11,4.41,4.41,0,0,1-1.11-1.68,19.92,19.92,0,0,1-.64-2.11l-.65,1.29a7.28,7.28,0,0,1-2.79,2.72,10.38,10.38,0,0,1-5.52,1.29,10.75,10.75,0,0,1-5.05-1.08,9.61,9.61,0,0,1-3.33-2.83,11.47,11.47,0,0,1-1.86-4,18,18,0,0,1-.57-4.51,12.91,12.91,0,0,1,2.44-8.24q2.43-3.08,7.81-4.16l4.3-.93a17.82,17.82,0,0,0,2.65-.75,4.27,4.27,0,0,0,1.58-1,3.26,3.26,0,0,0,.79-1.5A9.56,9.56,0,0,0,505,536q0-2.94-1.15-4.12a4.48,4.48,0,0,0-3.37-1.18A5.19,5.19,0,0,0,497,531.9a3.81,3.81,0,0,0-1.4,3,10.44,10.44,0,0,0,.14,1.86,11.84,11.84,0,0,0,.43,1.65l-9.46.21q-.29-1.22-.43-2.08a15.16,15.16,0,0,1-.14-2.37,9.12,9.12,0,0,1,1.15-4.73,9.45,9.45,0,0,1,3.12-3.19,14.09,14.09,0,0,1,4.59-1.83,26.27,26.27,0,0,1,5.63-.57,33.2,33.2,0,0,1,7.27.68,14.52,14.52,0,0,1,4.8,1.9,7.45,7.45,0,0,1,2.65,2.9,8.45,8.45,0,0,1,.82,3.76v23.94a2.08,2.08,0,0,0,.79,1.76,3,3,0,0,0,1.86.61,2.53,2.53,0,0,0,1-.21ZM505,545.91a14.46,14.46,0,0,1-1.72.79q-.93.36-1.72.57a14.71,14.71,0,0,0-2.51.93,4.25,4.25,0,0,0-1.54,1.22,4.35,4.35,0,0,0-.75,1.72,11.41,11.41,0,0,0-.21,2.37,9.4,9.4,0,0,0,.75,4.19,2.88,2.88,0,0,0,2.83,1.47,6.2,6.2,0,0,0,1.9-.29,3,3,0,0,0,1.54-1.22,7.82,7.82,0,0,0,1-2.76,23.83,23.83,0,0,0,.39-4.84Z" transform="translate(-60 -60)"/><path d="M554,545a58.89,58.89,0,0,1-.75,10.21,19.06,19.06,0,0,1-2.4,6.81,10,10,0,0,1-4.26,3.83,15.14,15.14,0,0,1-6.41,1.22,8.78,8.78,0,0,1-3.55-.65,9.39,9.39,0,0,1-2.54-1.61,10.84,10.84,0,0,1-1.83-2.11q-.75-1.15-1.33-2.22l-2.44,5.88h-5.16v-55h11.32v18a13.1,13.1,0,0,1,1-1.72,8.29,8.29,0,0,1,1.47-1.58,6.71,6.71,0,0,1,2.08-1.15,8.88,8.88,0,0,1,2.94-.43,10.89,10.89,0,0,1,4.66,1,9.14,9.14,0,0,1,3.73,3.4,20,20,0,0,1,2.51,6.34A43.62,43.62,0,0,1,554,545Zm-11.39.93q0-3.22-.18-5.41a29.88,29.88,0,0,0-.54-3.83,4.77,4.77,0,0,0-1.11-2.4,2.76,2.76,0,0,0-1.9-.61q-2.15,0-3.19,2.79t-1,9.46a59.88,59.88,0,0,0,.25,6.06,16.7,16.7,0,0,0,.75,3.8,4.35,4.35,0,0,0,1.22,2,2.56,2.56,0,0,0,1.65.57,3.26,3.26,0,0,0,1.76-.47,3.63,3.63,0,0,0,1.29-1.83,14.91,14.91,0,0,0,.79-3.8Q542.57,549.78,542.57,545.91Z" transform="translate(-60 -60)"/></svg>