<svg xmlns="http://www.w3.org/2000/svg" viewBox="0 0 400.25 393.53"><title>KCL-KDL-logo-BW</title><path d="M379.81,114.1c5.81-1.9,11.23-5,11.23-10.29,0-2.76-1.23-3.9-4-3.9-3.24,0-6.57,2.47-8.57,4.47a51.67,51.67,0,0,0-9.24,12.1,55.29,55.29,0,0,0,10.57-2.38m5.71,17.71c-4,5.24-10.29,10.1-18.19,10.1-6,0-9.52-4.29-9.52-9.81,0-17.05,18.86-35.05,31.43-35.05,4.29,0,7.43,1.62,7.43,6.19,0,6.67-5.9,10.29-16.28,13.43-3.05.86-9.42,2.28-12.57,3-1.42,2.28-3.33,6.85-3.33,10.47,0,4.86,2.48,7.72,6.86,7.72,5.14,0,10-4,12.76-7.14a.92.92,0,0,1,1.43,1.14m5-117c.47,0,1-.29.85-1L389.52,1.14C389.34.29,389,0,388.48,0c-.29,0-.67.19-1,.77a3.27,3.27,0,0,1-3,2.09c-2.86,0-5.53-2.09-12.28-2.09-8.86,0-20.58,3.8-20.58,16.66s10.29,17.05,19.14,20.29c9.33,3.43,16.76,6,16.76,15.72,0,10.85-7.62,14.38-14.86,14.38-8,0-17.43-3.81-20.76-16.48-.29-1-.54-1.34-1.3-1.34s-1.11.48-1.11,1.62V67.91c0,1,.44,1.43,1,1.43a1.36,1.36,0,0,0,1.07-.76,3.49,3.49,0,0,1,3.21-1.81c3.61,0,7.89,4.39,18.27,4.39,9.14,0,24.56-2.86,24.56-20.86,0-7.15-3-16.29-20.3-21.15-12.28-3.43-16.19-8.57-16.19-14.86,0-5.43,3.24-10.66,12.09-10.66,4.39,0,11.52,1.24,16.29,10.57.29.57.57.67,1,.67m-52.67-3.14a5.14,5.14,0,0,1-5.34-5.53c0-4.28,3.43-5.62,6-5.62,3.62,0,6.58,2.57,6.58,7,0,5-3.72,10.86-10.29,10.86a.88.88,0,0,1-1-.86.83.83,0,0,1,.67-.86c4.48-.86,6.19-3.72,6.29-5.62a6.54,6.54,0,0,1-3,.58m11.43,91a21.55,21.55,0,0,1-3.43,10.47c-4.48,7.24-8,8.67-11,8.67-2.57,0-3.72-2.09-3.72-5.14a18.45,18.45,0,0,1,3.15-9.24c3-4.85,7.33-8.85,11.14-8.85,2.57,0,3.9,1.24,3.9,4.09m-20.86,56.58c-10.57,0-13.72-6.1-13.72-9.14,0-2.86,1.14-4.67,4-6.67a34.86,34.86,0,0,1,7.24-3.71,39.18,39.18,0,0,1,7.72,4.57c5.71,4,6.86,6.29,6.86,8.29,0,5.43-8.09,6.66-12.09,6.66m33.24-58.29c1.14,0,2.19-.57,2.19-2.57,0-1.71-1.62-2.29-3.14-2.29a11.18,11.18,0,0,0-6.2,2c-.57.48-2,1.14-2.86.57-1.81-1.24-3.43-2.09-7.71-2.09s-10.57,2.57-14.57,8c-2.86,4-3.43,6.86-3.43,9.72a10.2,10.2,0,0,0,2,6.09,1.27,1.27,0,0,1,.28.77c0,.66-.85,1.14-2.28,1.52-2.57.86-6.86,3.33-6.86,7.71,0,2.85,2.28,5.62,4.86,7.33a51.1,51.1,0,0,0-9.43,3.71c-3.24,1.81-6.86,4.57-6.86,8.57,0,4.57,3.91,12,20,12,9.43,0,15.33-3.42,17.63-6a8.68,8.68,0,0,0,2-5.71c0-5.15-5.71-10-12-13.43-4-2.29-9.91-5.05-9.91-9.15a3.07,3.07,0,0,1,1.43-2.86,5.76,5.76,0,0,1,3.34-.86c1.81,0,4.1.57,5.71.57,5.14,0,12.1-1.72,16.38-10.86a18.37,18.37,0,0,0,1.62-7.33c0-2.86-.48-3.53-.48-4.85,0-1.14,1.15-1.81,3.34-1.81,3.14,0,3.14,1.24,5,1.24m-58.86,13c5.91-1.9,11.33-5,11.33-10.29,0-2.76-1.33-3.9-4-3.9-3.33,0-6.57,2.47-8.57,4.47a52,52,0,0,0-9.33,12.1,53.88,53.88,0,0,0,10.57-2.38m5.72,17.71c-4,5.24-10.29,10.1-18.1,10.1-6,0-9.62-4.29-9.62-9.81,0-17.05,18.86-35.05,31.42-35.05,4.29,0,7.43,1.62,7.43,6.19,0,6.67-5.81,10.29-16.29,13.43-3,.86-9.43,2.28-12.57,3a23.06,23.06,0,0,0-3.24,10.47c0,4.86,2.38,7.72,6.86,7.72,5.14,0,10-4,12.67-7.14.86-.86,2.19.29,1.43,1.14M280.66,84.2a3.58,3.58,0,0,1-.38,1.43c-7.73,16.76-15.34,33.43-22.77,50.19a11.34,11.34,0,0,0-1.14,3.72,2.58,2.58,0,0,0,2.57,2.67,6.28,6.28,0,0,0,2.38-.57c4.19-1.72,8.57-6.29,11.14-10.19a.78.78,0,0,0-1.14-1c-1,1-4,4.95-7.14,6.67-.57.28-1.14.28-.76-.86l23.81-52.86a5.89,5.89,0,0,0,.57-2.1c0-.67-.48-1-1.14-1-1.14,0-2.48.29-4.19.48-1.42.09-3.9.29-6.09.47a.93.93,0,0,0-.86,1c0,.57.48.85,1,.85a14.82,14.82,0,0,1,3.53.29.79.79,0,0,1,.57.85m41.81-36.7c0-5,4.29-6.31,8-6.6a1.21,1.21,0,1,0-.29-2.4H301.32a1.4,1.4,0,1,0-.06,2.8c5.72.38,10.23,1.47,10.23,7V58.67a6,6,0,0,1-2.33,4.86c-5,4.19-11.4,4.48-15.11,4.48C275.78,68,267.6,52.2,267.6,36.48c0-12.77,6.48-32.86,27.62-32.86,19,0,25.61,12.29,27.9,17,.76,1.43,2.37,1.14,2.37,0V5.43c0-1.43-1.9-1.72-2.37,0s-1.43,2.85-2.86,2.85a6.12,6.12,0,0,1-3-1.24c-5.72-3.61-11.13-6.47-22-6.47C277.78.57,256.17,9.33,256.17,36c0,26.85,20.31,35.14,38,35.14,17.43,0,26.31-8.86,28.31-10V47.5ZM259.42,84.2a3.56,3.56,0,0,1-.38,1.43c-7.72,16.76-15.33,33.43-22.76,50.19a11.23,11.23,0,0,0-1.15,3.72,2.58,2.58,0,0,0,2.57,2.67,6.21,6.21,0,0,0,2.38-.57c4.19-1.72,8.57-6.29,11.14-10.19a.78.78,0,0,0-1.14-1c-1,1-4,4.95-7.14,6.67-.57.28-1.15.28-.76-.86L266,83.34a5.8,5.8,0,0,0,.58-2.1c0-.67-.48-1-1.15-1-1.14,0-2.48.29-4.19.48-1.43.09-3.9.29-6.1.47a.93.93,0,0,0-.86,1c0,.57.48.85,1,.85a14.75,14.75,0,0,1,3.52.29.79.79,0,0,1,.57.85m-33.9,14.29c-9,0-22,21.43-22,34.48,0,3.43,1.52,6,5.15,6,8.85,0,22.08-21.9,22.08-33.43,0-3.43-1-7.05-5.24-7.05m-1.91-2.67c9.14,0,10.86,8,10.86,15.43,0,11.81-10.86,30.67-24,30.67-8.29,0-11.43-6.67-11.43-13.53,0-16.48,11.71-32.57,24.55-32.57M177.72.5c-2,0-2,2.18-.86,2.47,2.19.47,6.76.95,6.76,6.94.09,14.19.09,32.81-.48,48-.1,5.43-1.72,10-6.38,10.55-1.71.1-1.71,2.08-.57,2.08h20.57a1,1,0,0,0,.1-2.06c-3.14-.57-8.29-.56-8.67-10.55-.48-9.72-.76-46.65-.76-46.65L239,68.5h4.28s0-53.54.29-57.63c.28-4.76,1.9-7.42,7-7.8,2.58-.19,2.1-2.57.38-2.57h-21C227.62.5,228.19,3,229.33,3c2.29.29,9.43,1.23,9.72,8.09.28,10,.76,41,.76,41L193.92.5Zm18.48,101a1.12,1.12,0,0,0,1.14-.86l4.58-14.57c.28-.86-.1-1.43-.86-1.43a1.36,1.36,0,0,0-1,.38c-.86.86-1.9,1.72-2.76,1.72A2.23,2.23,0,0,1,196,86.1c-4.09-5-10.66-5.81-13.81-5.81-14.57,0-27.14,9.53-34.57,21.24a40.81,40.81,0,0,0-6.76,22.1c0,12,8.29,18.76,19.14,18.76,4.86,0,8.57-.57,15.14-3.33a14.34,14.34,0,0,1,4-1.24c1.62,0,1.72,2.38,1.91,4.58a1,1,0,0,0,1.14,1.14,1.24,1.24,0,0,0,1.14-.85l6.1-17.43c.48-1.43-.1-2-.67-2-.85,0-1.33.38-2,1.52-2.77,4.29-4.67,7.05-14.29,11.72a30.78,30.78,0,0,1-12.38,3c-8.1,0-11.24-6.19-11.24-14,0-10.29,4.86-21,12.29-30,4.76-5.91,12-12.57,20.47-12.57,8.1,0,14.1,6,13.24,17.15a1.23,1.23,0,0,0,1.33,1.42m-36.7-42V11.14c0-6,4.21-7.89,8.78-8.18C170,3,170.2.5,167.92.5H139.34c-2,0-2.27,2.37-.28,2.47,4.29.47,9.44,2.75,9.44,8.18V59.62c0,5.43-2,8.86-8,8.86-3,0-2,2,0,2h27.7c1.43,0,1.89-2.06-.49-2.06-6,0-8.21-3.89-8.21-8.74M91.72,11.34A5.23,5.23,0,0,0,88,6a36.63,36.63,0,0,0-7-1.52c-3.43-.57-2.76-3.9.29-3.9,2,0,11.52.76,22.86.76,6.58,0,16-.29,20.57-.57,2.86-.19,3.14,2.85,1.14,3.42S114.48,7,97.62,22.48c-17.43,16-39.9,39.72-39.9,39.72s50.47,60.19,59.33,67.33c9.14,7.43,15.43,8,22.29,8.56,1.72.09,2.29,3.41,0,3.41H99.91S51.05,82.47,43.05,77c-1.42-.86-4.86-2-5.14,2-.29,3.72-.57,35.06.28,41.91s3.72,16.86,20,16.86c2,0,3.14,3.82.29,3.72-9.62-.48-16.86-.48-28.77-.48-10.29,0-24.67.48-26.67.48-3.42,0-3.42-3.14-.29-3.42,4.57-.29,15.43-.86,16.1-18.29.76-18,.29-93.82,0-102.1C18.77,12,13.91,4.11,1.34,4.11-.66,4.11-.37.5,1.91.5H55.62c2,0,3.15,3.51-.28,3.8s-16.48.76-16.86,18.18S38,67,38,68.15c0,1.43.57,2.88,2.57,1.45C46.77,65.41,65.15,47.42,78.87,32A81.07,81.07,0,0,0,90.58,15.62a9.18,9.18,0,0,0,1.14-4.28" transform="translate(0)"/><path d="M333.9,165.5c-1.14,0-1.43,1.72.1,1.72,1.71,0,5.34.33,5.34,5.57L339.05,215c0,4.57-1.62,8.49-5.91,8.49-1.42,0-1.42,2-.28,2h17.62c1.14,0,1.14-2-.2-2-2.57,0-7.05-1.22-7.14-8.45l-.38-42.95s45.15,53.44,45.43,53.44h3l.46-51c0-5,1.8-7.85,7.8-7.85,1,0,1-1.15,0-1.15h-20c-1,0-1,1.15,0,1.15,2,0,8.06.38,8.15,7l.46,37.33L349.33,165.5Zm-54.47,29.15c0-15.43,7.15-27.33,20.29-27.33,11.71,0,20.57,11.33,20.57,27.33,0,19.72-8,28.38-20.57,28.38-12.29,0-20.29-11.81-20.29-28.38m20.29,31.15c17.62,0,30.28-12.29,30.28-31.15,0-16.57-12.29-30-30.28-30a29.65,29.65,0,0,0-30.1,30c0,17.71,11.9,31.15,30.1,31.15M215.5,173c0-5.43,3-5.71,10.43-5.71,12.85,0,25.74,6.45,25.74,26.83,0,19.81-10.92,28.36-25.3,28.36h-3c-3.8,0-7.83-.9-7.83-8.43Zm-15.11-8.38a1.15,1.15,0,1,0-.23,2.29c2.28,0,6.34,1.14,6.34,5.71v43c0,4.57-1.29,7.56-6.72,7.56-1.34,0-1.58,2.33-.34,2.33H228.1c12.57,0,33.42-6.14,33.42-31,0-25.14-17.15-29.79-33.72-29.79l-27.41-.07Zm-71,.86c-1.14,0-1.43,1.72.1,1.72,1.72,0,5.33.33,5.33,5.57L134.58,215c0,4.57-1.62,8.49-5.9,8.49-1.43,0-1.43,2-.29,2H146c1.14,0,1.14-2-.19-2-2.57,0-7-1.22-7.14-8.45l-.38-42.95s45.15,53.44,45.43,53.44h3.05l.19-51c0-5,2.53-7.85,7.53-7.85,1,0,1-1.15,0-1.15h-20c-1,0-1,1.15,0,1.15,2,0,8.33.38,8.42,7l.6,37.33L144.87,165.5H129.44ZM74.58,194.65c0-15.43,7.15-27.33,20.29-27.33,11.72,0,20.57,11.33,20.57,27.33,0,19.72-8,28.38-20.57,28.38-12.28,0-20.29-11.81-20.29-28.38M94.86,225.8c17.62,0,30.29-12.29,30.29-31.15,0-16.57-12.28-30-30.29-30a29.66,29.66,0,0,0-30.1,30c0,17.71,11.91,31.15,30.1,31.15M390.5,258.5H7.5v8h383v-8Zm0-12H7.5v4h383v-4Zm-384-81H30.86c1.24,0,1.51,1.77,0,1.77-2.38,0-7.35.9-7.35,6V216c0,4.86,2.49,6.57,13.06,6.57,10.19,0,19.87-1.24,24.63-14.76.38-1.14,2.22-1,1.93.76L60,225.5H7.15a1.15,1.15,0,0,1-.28-2.28c3.43,0,7.63-1.72,7.63-7.9V174.46c0-5.24-3-7.43-8-7.43-2,0-2-1.53,0-1.53" transform="translate(0)"/><path d="M26.94,383l-6.66-17.81V383H10.75V340h9.52v15.79L26.71,340H36.4l-8.29,19.1L37.69,383Z" transform="translate(0)"/><path d="M39.53,348.06V340h8.85v8.06Zm0,34.94V350.86h8.85V383Z" transform="translate(0)"/><path d="M67,383V360.26a2.79,2.79,0,0,0-.48-1.74,1.89,1.89,0,0,0-1.6-.62,2.79,2.79,0,0,0-2.49,1.82,11.07,11.07,0,0,0-.92,5V383H52.64V350.86h8.79v5.21a8.4,8.4,0,0,1,2.63-4.28,7.1,7.1,0,0,1,4.7-1.54,8,8,0,0,1,2.63.45,6.28,6.28,0,0,1,2.27,1.37,6.67,6.67,0,0,1,1.57,2.35,8.87,8.87,0,0,1,.59,3.39V383Z" transform="translate(0)"/><path d="M103.15,383.56q0,5.15-3.11,7.56t-10.22,2.41a28.92,28.92,0,0,1-4.45-.34A13.23,13.23,0,0,1,81.56,392a7.26,7.26,0,0,1-2.66-2.16,5.35,5.35,0,0,1-1-3.3,3.61,3.61,0,0,1,.76-2.41,6.86,6.86,0,0,1,2.21-1.62l1.46-.73-1.06-.62A5.36,5.36,0,0,1,79,379a7.07,7.07,0,0,1-.62-3.08,5.52,5.52,0,0,1,1.2-3.64,11.94,11.94,0,0,1,2.66-2.41l1-.67-1-.84a6.44,6.44,0,0,1-1.23-1.4,11.19,11.19,0,0,1-1-1.82,12.46,12.46,0,0,1-.67-2,9.21,9.21,0,0,1-.25-2.13q0-5.26,2.72-8.18T90,349.85a16.15,16.15,0,0,1,2.6.17,8.12,8.12,0,0,1,1.88.56l.84-5.82h7.17l-4.93,7.39a11.57,11.57,0,0,1,2.77,3.47,11.12,11.12,0,0,1,1.15,5.32,10.09,10.09,0,0,1-2.66,7.34A9.78,9.78,0,0,1,91.45,371q-1,0-2.21-.06a8.82,8.82,0,0,1-2-.28q-.67.45-1.29.81a1.34,1.34,0,0,0-.62,1.26q0,1.18.9,1.37a8.6,8.6,0,0,0,1.85.2l5.32-.06q4.59-.05,7.17,2.24T103.15,383.56Zm-7.9,1.68a2.35,2.35,0,0,0-1.12-2,7.39,7.39,0,0,0-3.92-.76H86.29a5,5,0,0,0-1.09,1.29,3.09,3.09,0,0,0-.48,1.62,2.62,2.62,0,0,0,1.48,2.32,7.28,7.28,0,0,0,3.72.87,16,16,0,0,0,2.8-.2,3.91,3.91,0,0,0,1.62-.62,1.91,1.91,0,0,0,.73-1A5.59,5.59,0,0,0,95.25,385.24Zm-2.13-25a17,17,0,0,0-.2-2.88,5.24,5.24,0,0,0-.56-1.71,1.76,1.76,0,0,0-.92-.81,4.35,4.35,0,0,0-2.58,0,1.76,1.76,0,0,0-.92.81,4.85,4.85,0,0,0-.53,1.71,24.84,24.84,0,0,0,0,5.77,4.84,4.84,0,0,0,.53,1.71,1.75,1.75,0,0,0,.92.81,4.35,4.35,0,0,0,2.58,0,1.76,1.76,0,0,0,.92-.81,5.23,5.23,0,0,0,.56-1.71A17,17,0,0,0,93.13,360.21Z" transform="translate(0)"/><path d="M113,349.4a11.6,11.6,0,0,1-1.12,5.29,7.57,7.57,0,0,1-4,3.44,10.22,10.22,0,0,1-1.57.53,13.78,13.78,0,0,1-1.74.31l-.67-3.08a9,9,0,0,0,3.14-1.68,3.71,3.71,0,0,0,1.34-2.16,10.29,10.29,0,0,0,.11-2.66h-3.3V340H113Z" transform="translate(0)"/><path d="M139.33,373.31a14.09,14.09,0,0,1-.64,4.45,7.3,7.3,0,0,1-2.1,3.22,9.4,9.4,0,0,1-3.78,1.93,21.86,21.86,0,0,1-5.74.64q-5.94,0-8.57-2.07a7.23,7.23,0,0,1-2.63-6,10.78,10.78,0,0,1,.2-2.07,17.5,17.5,0,0,1,.48-1.9l6.78.45a10,10,0,0,0-.22,2.07,4.21,4.21,0,0,0,.78,2.74,3.15,3.15,0,0,0,2.58,1,3.33,3.33,0,0,0,1.65-.36,2.82,2.82,0,0,0,1-.87,3.36,3.36,0,0,0,.48-1.09,4.58,4.58,0,0,0,.14-1,3.06,3.06,0,0,0-.76-2.13,7.48,7.48,0,0,0-2.55-1.62l-3.47-1.62a25.5,25.5,0,0,1-2.27-1.23,10.29,10.29,0,0,1-2.24-1.85,9.68,9.68,0,0,1-1.74-2.72,9.51,9.51,0,0,1-.7-3.84,8.84,8.84,0,0,1,.9-4.06,8.61,8.61,0,0,1,2.46-3,11.15,11.15,0,0,1,3.61-1.82,15,15,0,0,1,4.34-.62,17.15,17.15,0,0,1,4.12.48,9.87,9.87,0,0,1,3.33,1.46,7.18,7.18,0,0,1,2.21,2.46,7.31,7.31,0,0,1,.81,3.56,9.7,9.7,0,0,1-.11,1.57,6.13,6.13,0,0,1-.39,1.34l-6.66-.11a4.91,4.91,0,0,0,.22-1,11.42,11.42,0,0,0,.06-1.26,2.55,2.55,0,0,0-.81-2,3.28,3.28,0,0,0-2.21-.7,2.66,2.66,0,0,0-2.13.78,3.07,3.07,0,0,0-.67,2.07,2.59,2.59,0,0,0,1,2.16,12.19,12.19,0,0,0,2.58,1.48l4.31,1.85a20.32,20.32,0,0,1,2.52,1.37,8.69,8.69,0,0,1,2,1.82,8.12,8.12,0,0,1,1.37,2.55A11.3,11.3,0,0,1,139.33,373.31Z" transform="translate(0)"/><path d="M182.22,363.51a48,48,0,0,1-.59,7.81,19.28,19.28,0,0,1-2,6.16,10.66,10.66,0,0,1-3.81,4.06,11.24,11.24,0,0,1-6,1.46H156.69V340h13.83a8.2,8.2,0,0,1,5.15,1.68,12.72,12.72,0,0,1,3.64,4.76,28.44,28.44,0,0,1,2.18,7.42A58.72,58.72,0,0,1,182.22,363.51Zm-9.52-1q0-4.31-.17-7.25a24.07,24.07,0,0,0-.64-4.7,4.77,4.77,0,0,0-1.4-2.52,3.73,3.73,0,0,0-2.44-.76H166v27.94h2.18a4.22,4.22,0,0,0,2-.45,3.4,3.4,0,0,0,1.4-1.82,15.14,15.14,0,0,0,.84-3.86A61.56,61.56,0,0,0,172.7,362.5Z" transform="translate(0)"/><path d="M185.58,348.06V340h8.85v8.06Zm0,34.94V350.86h8.85V383Z" transform="translate(0)"/><path d="M221.92,383.56q0,5.15-3.11,7.56t-10.22,2.41a28.92,28.92,0,0,1-4.45-.34,13.23,13.23,0,0,1-3.81-1.15,7.26,7.26,0,0,1-2.66-2.16,5.35,5.35,0,0,1-1-3.3,3.61,3.61,0,0,1,.76-2.41,6.86,6.86,0,0,1,2.21-1.62l1.46-.73-1.06-.62a5.36,5.36,0,0,1-2.24-2.24,7.07,7.07,0,0,1-.62-3.08,5.52,5.52,0,0,1,1.2-3.64,11.93,11.93,0,0,1,2.66-2.41l1-.67-1-.84a6.44,6.44,0,0,1-1.23-1.4,11.19,11.19,0,0,1-1-1.82,12.46,12.46,0,0,1-.67-2,9.21,9.21,0,0,1-.25-2.13q0-5.26,2.72-8.18t8.09-2.91a16.16,16.16,0,0,1,2.6.17,8.12,8.12,0,0,1,1.88.56l.84-5.82h7.17l-4.93,7.39a11.57,11.57,0,0,1,2.77,3.47,11.12,11.12,0,0,1,1.15,5.32,10.09,10.09,0,0,1-2.66,7.34,9.78,9.78,0,0,1-7.36,2.74q-1,0-2.21-.06a8.83,8.83,0,0,1-2-.28q-.67.45-1.29.81a1.34,1.34,0,0,0-.62,1.26q0,1.18.9,1.37a8.61,8.61,0,0,0,1.85.2l5.32-.06q4.59-.05,7.17,2.24T221.92,383.56Zm-7.9,1.68a2.35,2.35,0,0,0-1.12-2,7.39,7.39,0,0,0-3.92-.76h-3.92a5,5,0,0,0-1.09,1.29,3.09,3.09,0,0,0-.48,1.62,2.61,2.61,0,0,0,1.48,2.32,7.28,7.28,0,0,0,3.72.87,16,16,0,0,0,2.8-.2,3.9,3.9,0,0,0,1.62-.62,1.91,1.91,0,0,0,.73-1A5.61,5.61,0,0,0,214,385.24Zm-2.13-25a17.06,17.06,0,0,0-.2-2.88,5.24,5.24,0,0,0-.56-1.71,1.76,1.76,0,0,0-.92-.81,4.35,4.35,0,0,0-2.58,0,1.76,1.76,0,0,0-.92.81,4.85,4.85,0,0,0-.53,1.71,24.84,24.84,0,0,0,0,5.77,4.84,4.84,0,0,0,.53,1.71,1.75,1.75,0,0,0,.92.81,4.35,4.35,0,0,0,2.58,0,1.75,1.75,0,0,0,.92-.81,5.23,5.23,0,0,0,.56-1.71A17,17,0,0,0,211.9,360.21Z" transform="translate(0)"/><path d="M223.88,348.06V340h8.85v8.06Zm0,34.94V350.86h8.85V383Z" transform="translate(0)"/><path d="M255.58,381.6a5.84,5.84,0,0,1-1.32.62,19,19,0,0,1-2.1.62,23.89,23.89,0,0,1-2.49.45,20.66,20.66,0,0,1-2.6.17,13.48,13.48,0,0,1-3.14-.34,6,6,0,0,1-2.38-1.12,5.06,5.06,0,0,1-1.51-2.07,8.39,8.39,0,0,1-.53-3.19l.11-19.82h-4.76v-6h4.87L240,342h8.4v8.85h6.72v6h-6.72v16.24a2.74,2.74,0,0,0,.36,1.51,2.29,2.29,0,0,0,1,.84,4.11,4.11,0,0,0,1.29.36,11.59,11.59,0,0,0,1.37.08,7.33,7.33,0,0,0,1.82-.2,10.69,10.69,0,0,0,1.43-.48Z" transform="translate(0)"/><path d="M284.87,382a8.3,8.3,0,0,1-1,.53,10.92,10.92,0,0,1-1.46.56,14.87,14.87,0,0,1-1.74.42,9.84,9.84,0,0,1-1.76.17,9.54,9.54,0,0,1-2.69-.31,4,4,0,0,1-1.6-.87,3.44,3.44,0,0,1-.87-1.32,15.35,15.35,0,0,1-.5-1.65l-.5,1a5.69,5.69,0,0,1-2.18,2.13,8.1,8.1,0,0,1-4.31,1,8.41,8.41,0,0,1-3.95-.84,7.51,7.51,0,0,1-2.6-2.21,8.94,8.94,0,0,1-1.46-3.11,14,14,0,0,1-.45-3.53,10.09,10.09,0,0,1,1.9-6.44,9.94,9.94,0,0,1,6.1-3.25l3.36-.73a14,14,0,0,0,2.07-.59,3.34,3.34,0,0,0,1.23-.78,2.55,2.55,0,0,0,.62-1.18,7.46,7.46,0,0,0,.17-1.71,4.58,4.58,0,0,0-.9-3.22,3.5,3.5,0,0,0-2.63-.92,4.06,4.06,0,0,0-2.72.92,3,3,0,0,0-1.09,2.38,8.19,8.19,0,0,0,.11,1.46,9.33,9.33,0,0,0,.34,1.29l-7.39.17q-.22-1-.34-1.62a11.77,11.77,0,0,1-.11-1.85,7.13,7.13,0,0,1,.9-3.7,7.4,7.4,0,0,1,2.44-2.49,11,11,0,0,1,3.58-1.43,20.56,20.56,0,0,1,4.4-.45,25.92,25.92,0,0,1,5.68.53,11.34,11.34,0,0,1,3.75,1.48,5.82,5.82,0,0,1,2.07,2.27,6.61,6.61,0,0,1,.64,2.94v18.7a1.63,1.63,0,0,0,.62,1.37,2.31,2.31,0,0,0,1.46.48,2,2,0,0,0,.78-.17Zm-11.59-15a11.34,11.34,0,0,1-1.34.62,14,14,0,0,1-1.34.45,11.6,11.6,0,0,0-2,.73,3.33,3.33,0,0,0-1.2,1,3.4,3.4,0,0,0-.59,1.34,9,9,0,0,0-.17,1.85,7.34,7.34,0,0,0,.59,3.28,2.25,2.25,0,0,0,2.21,1.15,4.84,4.84,0,0,0,1.48-.22,2.33,2.33,0,0,0,1.2-1,6.12,6.12,0,0,0,.81-2.16,18.63,18.63,0,0,0,.31-3.78Z" transform="translate(0)"/><path d="M287.56,383V340h8.85v43Z" transform="translate(0)"/><path d="M315.27,383V340h9.52v34.78h10.64V383Z" transform="translate(0)"/><path d="M364,382a8.3,8.3,0,0,1-1,.53,10.92,10.92,0,0,1-1.46.56,14.87,14.87,0,0,1-1.74.42,9.84,9.84,0,0,1-1.76.17,9.54,9.54,0,0,1-2.69-.31,4,4,0,0,1-1.6-.87,3.44,3.44,0,0,1-.87-1.32,15.35,15.35,0,0,1-.5-1.65l-.5,1a5.69,5.69,0,0,1-2.18,2.13,8.1,8.1,0,0,1-4.31,1,8.41,8.41,0,0,1-3.95-.84,7.51,7.51,0,0,1-2.6-2.21,8.94,8.94,0,0,1-1.46-3.11,14,14,0,0,1-.45-3.53,10.09,10.09,0,0,1,1.9-6.44,9.94,9.94,0,0,1,6.1-3.25l3.36-.73a14,14,0,0,0,2.07-.59,3.34,3.34,0,0,0,1.23-.78,2.55,2.55,0,0,0,.62-1.18,7.46,7.46,0,0,0,.17-1.71,4.58,4.58,0,0,0-.9-3.22,3.5,3.5,0,0,0-2.63-.92,4.06,4.06,0,0,0-2.72.92,3,3,0,0,0-1.09,2.38,8.19,8.19,0,0,0,.11,1.46,9.33,9.33,0,0,0,.34,1.29l-7.39.17q-.22-1-.34-1.62a11.77,11.77,0,0,1-.11-1.85,7.13,7.13,0,0,1,.9-3.7,7.4,7.4,0,0,1,2.44-2.49,11,11,0,0,1,3.58-1.43,20.56,20.56,0,0,1,4.4-.45,25.92,25.92,0,0,1,5.68.53,11.34,11.34,0,0,1,3.75,1.48,5.82,5.82,0,0,1,2.07,2.27,6.61,6.61,0,0,1,.64,2.94v18.7a1.63,1.63,0,0,0,.62,1.37,2.31,2.31,0,0,0,1.46.48,2,2,0,0,0,.78-.17ZM352.4,367a11.34,11.34,0,0,1-1.34.62,14,14,0,0,1-1.34.45,11.6,11.6,0,0,0-2,.73,3.33,3.33,0,0,0-1.2,1,3.4,3.4,0,0,0-.59,1.34,9,9,0,0,0-.17,1.85,7.34,7.34,0,0,0,.59,3.28,2.25,2.25,0,0,0,2.21,1.15,4.84,4.84,0,0,0,1.48-.22,2.33,2.33,0,0,0,1.2-1,6.12,6.12,0,0,0,.81-2.16,18.63,18.63,0,0,0,.31-3.78Z" transform="translate(0)"/><path d="M390.65,366.31a46,46,0,0,1-.59,8,14.91,14.91,0,0,1-1.88,5.32,7.79,7.79,0,0,1-3.33,3,11.84,11.84,0,0,1-5,1,6.87,6.87,0,0,1-2.77-.5,7.36,7.36,0,0,1-2-1.26,8.48,8.48,0,0,1-1.43-1.65q-.59-.9-1-1.74l-1.9,4.59h-4V340h8.85V354a10.36,10.36,0,0,1,.81-1.34,6.48,6.48,0,0,1,1.15-1.23,5.24,5.24,0,0,1,1.62-.9,6.92,6.92,0,0,1,2.3-.34A8.51,8.51,0,0,1,385,351a7.14,7.14,0,0,1,2.91,2.66,15.62,15.62,0,0,1,2,5A34.11,34.11,0,0,1,390.65,366.31Zm-8.9.73q0-2.52-.14-4.23a23.26,23.26,0,0,0-.42-3,3.72,3.72,0,0,0-.87-1.88,2.15,2.15,0,0,0-1.48-.48q-1.68,0-2.49,2.18a23.5,23.5,0,0,0-.81,7.39,46.92,46.92,0,0,0,.2,4.73,13.12,13.12,0,0,0,.59,3,3.4,3.4,0,0,0,1,1.54,2,2,0,0,0,1.29.45,2.55,2.55,0,0,0,1.37-.36,2.84,2.84,0,0,0,1-1.43,11.61,11.61,0,0,0,.62-3Q381.74,370.06,381.75,367Z" transform="translate(0)"/></svg>