<svg xmlns="http://www.w3.org/2000/svg" viewBox="0 0 500 380.8"><defs><style>.a{fill:#e2231a;}</style></defs><title>KCL_box_red</title><path class="a" d="M333.5,333.1h3c14.8,0,23.3-9.2,23.3-25.3,0-21.4-16.7-23.7-23.8-23.7s-9.6.4-9.6,5.3v36.1C326.3,332.2,329.9,333.1,333.5,333.1Z" transform="translate(-60 -60)"/><path class="a" d="M316.5,251c3.4,0,7.9-4.1,11.9-11.1,3.8-6.5,6.3-14,6.3-18.9,0-2.1-.5-5.6-4.1-5.6-7.7,0-18.2,19.3-18.2,30.2C312.4,249.2,313.8,251,316.5,251Z" transform="translate(-60 -60)"/><path class="a" d="M190.4,308.1c0,15,7.6,25.4,18.4,25.4,12.2,0,18.7-8.8,18.7-25.4,0-14.1-7.9-24.4-18.7-24.4C197.6,283.7,190.4,293.3,190.4,308.1Z" transform="translate(-60 -60)"/><path class="a" d="M405.3,333.5c12.2,0,18.7-8.8,18.7-25.4,0-14.1-7.9-24.4-18.7-24.4-11.2,0-18.4,9.6-18.4,24.4C386.9,323.1,394.5,333.5,405.3,333.5Z" transform="translate(-60 -60)"/><path class="a" d="M417.2,219.7c0-2.1-.9-3.2-2.8-3.2-3.2,0-6.4,3.2-7.3,4.2a43.73,43.73,0,0,0-8.2,11.4,65.86,65.86,0,0,0,9-2.3C413.6,227.9,417.2,224,417.2,219.7Z" transform="translate(-60 -60)"/><path class="a" d="M448.2,215.2c-3.2,0-6.6,2.7-9.3,7.5a16.83,16.83,0,0,0-2.6,8.3c0,2.8,1.1,4.4,2.9,4.4,2.3,0,5.4-.9,9.4-7.5a19.16,19.16,0,0,0,2.8-9.2C451.4,216.5,450.3,215.2,448.2,215.2Z" transform="translate(-60 -60)"/><path class="a" d="M421.6,259.4c0,3.2,3.8,6.4,11.1,6.4,5.6,0,9.4-2.4,9.4-5.9,0-1.9-.6-3-4.3-5.3-1.4-.8-3.1-1.7-4.6-2.4-.9-.4-1.7-.9-2.5-1.3C427.9,252,421.6,254.7,421.6,259.4Z" transform="translate(-60 -60)"/><path class="a" d="M60,60V440.8H560V60ZM454,169.2c0-1.7.9-2,1.7-2,1.2,0,1.6.8,1.9,1.7,3.8,12.8,14.4,14.2,18.7,14.2,6.6,0,13.7-3.2,13.7-12.1s-6.3-11-15.1-14.1l-.6-.2c-8.8-3.1-18.2-7.5-18.2-19.6,0-11.1,10.2-16.1,19.6-16.1a24.24,24.24,0,0,1,8.8,1.7,10,10,0,0,0,2.9.7c1,0,1.7-.6,2.2-2,.4-1,1-1.1,1.3-1.1.9,0,1.3.4,1.5,1.4l2,14.1a1.25,1.25,0,0,1-.3,1.2,1.39,1.39,0,0,1-1,.5,1.77,1.77,0,0,1-1.6-1.2c-3.5-7.1-8.5-10.8-15.1-10.8s-10.8,3.5-10.8,9c0,6.2,4.4,10,15,13.1,13,3.7,19.3,10.4,19.3,20.4,0,18.5-17.6,19.9-23,19.9a32.46,32.46,0,0,1-13.8-3.4,11.7,11.7,0,0,0-3.7-1.3c-.9,0-1.7.8-2.3,2.3a1.82,1.82,0,0,1-1.6,1.1,1.55,1.55,0,0,1-1.6-1.7V169.2h.1ZM472.3,250c4.4,0,8.2-3.4,11-6.3a2,2,0,0,1,1.3-.6,1.54,1.54,0,0,1,1.5,1.5,2.53,2.53,0,0,1-.6,1.5h0c-3.4,4.2-8.3,9.1-16.7,9.1-5.6,0-9.4-3.9-9.4-9.6,0-16.3,16.7-32.9,28.7-32.9,4.7,0,7.4,2.3,7.4,6.3,0,6.3-5.2,11.3-15,14.4-2.8.9-8.4,2.1-11.5,2.7a19.82,19.82,0,0,0-1.9,7.7C467.1,247.6,469,250,472.3,250Zm-15.4-31.5a19.13,19.13,0,0,1,.3,3.2,17.08,17.08,0,0,1-1.6,7.2q-4.8,10.2-15.6,10.2a13.12,13.12,0,0,1-2.7-.3c-.9-.1-1.9-.3-2.6-.3-2.9,0-4.3.9-4.3,2.7,0,2.1,4.1,4.1,9.8,6.9l.2.1c6.3,3.2,9.4,6.4,9.4,10,0,6.7-7,11.2-17.5,11.2s-17.9-4.3-17.9-10.2c0-6.2,9.5-9.5,13.2-10.5-2.5-1.9-3.9-3.5-3.9-6.2,0-3.5,3.4-5.5,6.6-6.3,1.2-.3,2.2-.6,2.2-.9,0-.1-.2-.3-.3-.5a.76.76,0,0,1-.2-.4,11.55,11.55,0,0,1-1.5-5.7c0-2.7.5-5.2,3.3-9a18.33,18.33,0,0,1,14.1-7.5,13.06,13.06,0,0,1,6.8,1.6,3.74,3.74,0,0,0,1.1.4,2.84,2.84,0,0,0,1.2-.4c.1-.1.3-.1.4-.2a11.11,11.11,0,0,1,6-1.9c2.1,0,3.3,1,3.3,2.7a2.68,2.68,0,0,1-2.7,2.9,5.49,5.49,0,0,1-2.4-.7,6.15,6.15,0,0,0-2.3-.7c-1.4,0-2.4.6-2.4,1.3A2.84,2.84,0,0,0,456.9,218.5ZM253.2,327.3c.1,6.2,3.7,6.8,6.5,7.3.9.2,1.4.6,1.4,1.3a1.21,1.21,0,0,1-1.3,1.3H242a1.16,1.16,0,0,1-1.2-1.3c0-.7.5-1.2,1.4-1.3,4.1-.6,5.8-2.8,5.8-7.3l.3-39.4c0-3.3-1.3-4.6-5.3-5.1-1.2-.2-1.4-.9-1.4-1.5a1.21,1.21,0,0,1,1.3-1.3h15.3l.1.1,35.3,41.4-.7-31.6c-.1-5.2-2.2-6.5-6.5-7.3-.9-.2-1.4-.6-1.4-1.3a1.21,1.21,0,0,1,1.3-1.3h17.8a1.18,1.18,0,0,1,1.2,1.3c0,.7-.5,1.2-1.4,1.3-4.1.6-5.8,2.8-5.8,7.3l-.3,47.1v.3h-3.5l-.1-.1-41.5-48.8ZM305,216.4a1.51,1.51,0,0,1-1.6,1.1,1.58,1.58,0,0,1-1.6-1.6,5.28,5.28,0,0,1,.1-1.2c0-.4.1-.8.1-1.1,0-7.9-4.4-12.6-11.8-12.6-12.7,0-28.2,21.2-28.2,38.5,0,4.4,1.2,11.8,9.2,11.8,8.5,0,18.8-5.7,22.9-12.7.7-1.2,1.3-1.6,2.2-1.6a1.43,1.43,0,0,1,1.2.6,1.81,1.81,0,0,1,0,1.8l-5.6,16.3a1.7,1.7,0,0,1-1.6.8A1.32,1.32,0,0,1,289,255c-.1-2.3-.3-3.8-1.3-3.8a11.58,11.58,0,0,0-3.6,1c-5.6,2.3-9.4,3.2-13.7,3.2-10.5,0-17-6.9-17-17.9,0-9.6,4.1-19.7,11.2-27.8,7.3-8.3,16.8-13,26.1-13a16.43,16.43,0,0,1,13,5.6,1.22,1.22,0,0,0,1,.5c.6,0,1.5-1.3,2.2-2.2l.3-.4c.5-.8.9-1.1,1.4-1.1a1.23,1.23,0,0,1,1,.5,2,2,0,0,1,.1,1.8Zm25.1-4.9c6.3,0,10.4,5,10.4,12.7a36.54,36.54,0,0,1-7,20.7c-4.7,6.5-10.8,10.2-16.8,10.2-6.2,0-10.3-5.1-10.3-12.7C306.5,226.2,317.8,211.5,330.1,211.5ZM311,282.7a1.38,1.38,0,0,1-1.5-1.3,1.18,1.18,0,0,1,1.2-1.3h27c6.2,0,15.1,1.1,22.1,6.4,6.6,4.9,9.9,12.2,9.9,21.8,0,10.3-3.8,18.1-11.4,23.3-7.8,5.4-16.8,5.9-20.3,5.9H310.7a1.18,1.18,0,0,1-1.2-1.3c0-.7.5-1.2,1.5-1.3,4-.4,5.8-2.7,5.8-7.3V290.2C316.8,285.3,314.9,283,311,282.7Zm58.3-27.9a9.05,9.05,0,0,1-3.3.5,2.77,2.77,0,0,1-2.8-2.7,10.07,10.07,0,0,1,1-3.6c4.9-11.8,9.7-22.9,14.8-34.6,1.7-3.9,3.4-7.8,5.1-11.8a5.4,5.4,0,0,0,.4-1.2c0-.2-.1-.3-.3-.4a20.92,20.92,0,0,0-2.8-.4c-.3,0-.6-.1-.8-.1a1.44,1.44,0,0,1-1.5-1.3c0-.7.7-1.3,1.6-1.5,1.3-.2,3-.3,4.5-.4a15.56,15.56,0,0,1,2-.1c1.5-.1,3.6-.3,4.7-.3.8,0,1.3.4,1.3,1.1a5.22,5.22,0,0,1-.6,2.1l-21.1,48.8a.35.35,0,0,1-.1.2,2.54,2.54,0,0,0-.2.7c0,.1,0,.1.1.1a3.55,3.55,0,0,0,.9-.4,29.6,29.6,0,0,0,4.6-3.2,13.45,13.45,0,0,1,1.4-1.1,1.67,1.67,0,0,1,1.1-.4c.7,0,1.1.5,1.1,1.3a2,2,0,0,1-.6,1.4A23.31,23.31,0,0,1,369.3,254.8Zm31.1-4.8c4.4,0,8.2-3.4,11-6.3a2,2,0,0,1,1.3-.6,1.54,1.54,0,0,1,1.5,1.5,2.53,2.53,0,0,1-.6,1.5c-3.3,4.2-8.3,9.1-16.7,9.1-5.5,0-9.4-4-9.4-9.6,0-16.3,16.7-32.9,28.7-32.9,4.7,0,7.3,2.3,7.3,6.3,0,6.3-5.2,11.3-15,14.4-2.8.9-8.4,2.1-11.5,2.7a19.82,19.82,0,0,0-1.9,7.7C395.1,247.6,397.1,250,400.4,250Zm4.9,29.6c16.4,0,28.8,12.3,28.8,28.5,0,17.7-11.6,29.6-28.8,29.6-16.8,0-28.5-12.2-28.5-29.6A28.17,28.17,0,0,1,405.3,279.6Zm38.5-158.7c4,0,6.4,2.8,6.4,7.3,0,5-3.2,10.7-9.4,11.8h-.3a1.27,1.27,0,0,1-1.4-1.2,1.82,1.82,0,0,1,1.1-1.6c3.5-1.4,5.6-3.9,5.6-6.5,0-.2,0-.3-.1-.4a3.63,3.63,0,0,1-2.8,1.2,4.87,4.87,0,0,1-5.1-5.1C437.9,122.3,441.1,120.9,443.8,120.9Zm-67.7,7.6c6.5-4.8,15.6-7.6,24.7-7.6,9.8,0,14.6,2.4,20.3,5.7a6.52,6.52,0,0,0,2.7,1.2c1.3,0,1.9-1.6,2.2-2.5a1.73,1.73,0,0,1,1.7-1.5,1.56,1.56,0,0,1,1.5,1.6v14.5a1.59,1.59,0,0,1-1.5,1.7c-.9,0-1.5-.5-2.1-1.6-4.7-9.6-13.1-14.5-24.8-14.5-17.5,0-25.4,15.3-25.4,29.5s7.5,28.3,24.4,28.3a23.17,23.17,0,0,0,14.1-4.1,5.09,5.09,0,0,0,2.1-4.4v-8.2c0-4.7-3.5-5.9-9.4-6.3a1.84,1.84,0,0,1-1.9-1.9,1.73,1.73,0,0,1,1.9-1.6h27.2a1.44,1.44,0,0,1,1.6,1.5c0,1-.5,1.7-1.3,1.7h0c-3.8.3-7.3,1-7.3,6.1v12.3l-.1.1a41.92,41.92,0,0,1-26.8,9.5c-9.5,0-18.2-2.5-24.3-7.1-7.8-5.8-11.7-14.6-11.7-26.2C363.7,143.5,368,134.5,376.1,128.5ZM363,197.4a15.56,15.56,0,0,1,2-.1c1.5-.1,3.6-.3,4.7-.3.8,0,1.3.4,1.3,1.1a5.22,5.22,0,0,1-.6,2.1L349.3,249a.35.35,0,0,1-.1.2,2.54,2.54,0,0,0-.2.7c0,.1,0,.1.1.1a2,2,0,0,0,.9-.4,29.6,29.6,0,0,0,4.6-3.2,13.45,13.45,0,0,1,1.4-1.1,1.67,1.67,0,0,1,1.1-.4c.7,0,1.1.5,1.1,1.3a2,2,0,0,1-.6,1.4,23.85,23.85,0,0,1-10.4,7.2,9.05,9.05,0,0,1-3.3.5,2.77,2.77,0,0,1-2.8-2.7,9.25,9.25,0,0,1,1-3.6c4.9-11.8,9.7-22.8,14.8-34.5,1.7-3.9,3.4-7.9,5.2-11.9a5.4,5.4,0,0,0,.4-1.2c0-.2-.1-.3-.3-.4a20.92,20.92,0,0,0-2.8-.4c-.3,0-.6-.1-.9-.1a1.32,1.32,0,0,1-1.5-1.3c0-.7.7-1.3,1.6-1.5C359.9,197.6,361.6,197.5,363,197.4Zm-77.5-12.9c4.8-.6,6.1-2.5,6.4-9.3.5-14.3.5-32.1.5-45.1,0-4.1-3.5-5.5-6.4-5.9-1.1-.2-1.7-.7-1.7-1.6s.7-1.3,1.7-1.3h16.9l.1.1,41.9,47c0-4.2-.2-26.5-.8-34.8-.5-7.6-3.4-8.6-7.7-9.3a1.6,1.6,0,0,1-1.3-1.5,1.37,1.37,0,0,1,1.2-1.5h20.3c1.1,0,1.7.5,1.7,1.3s-.6,1.4-1.7,1.6c-4.8.6-6.1,2.5-6.4,9.3-.5,14.1-.5,53.3-.5,53.7v.3h-3.5l-.1-.1L297,132.7c0,4.9.3,34.1.8,42.5.5,7.6,3.4,8.6,7.7,9.3a1.6,1.6,0,0,1,1.3,1.5,1.37,1.37,0,0,1-1.2,1.5H285.3c-1.1,0-1.7-.5-1.7-1.3A2,2,0,0,1,285.5,184.5ZM250,124.2c-1.1-.2-1.7-.7-1.7-1.6s.7-1.3,1.7-1.3h23.7c1.1,0,1.7.5,1.7,1.3s-.6,1.4-1.7,1.6c-4.7.6-6.4,2.7-6.4,8.1v44.1c0,5.3,1.7,7.5,6.4,8.1,1.1.2,1.7.7,1.7,1.6s-.7,1.3-1.7,1.3H250c-1.1,0-1.7-.5-1.7-1.3s.6-1.4,1.7-1.6c4.7-.6,6.4-2.7,6.4-8.1V132.3C256.4,127,254.7,124.8,250,124.2ZM121,252.3c0-1.3,1-2.1,2.5-2.3,5.2-.8,13.1-2,13.6-17,.3-6.3.4-19.8.4-37.1,0-26.2-.1-48.7-.3-53.3-.5-15-8.4-16.2-13.6-17-1.6-.1-2.5-1-2.5-2.3s1.1-2.1,2.8-2.1c.6,0,2.1,0,4.3.1,4.8.1,12.9.3,19.6.3,11.2,0,15.3,0,24.5-.4a2.16,2.16,0,0,1,2.3,2.1c0,1.4-.8,2.2-2.5,2.5-14.4,2-15.7,8-15.8,15.6-.3,16.6-.4,40.9-.4,42,0,.4.1,1.6.8,1.6a1.73,1.73,0,0,0,1.2-.5c5.3-4.4,21.4-20.3,33.8-33.1A89.22,89.22,0,0,0,203.4,137a10.75,10.75,0,0,0,2.1-5.8c0-2.2-1.2-3-3.2-3.8a26.37,26.37,0,0,0-5.2-1.3c-.3-.1-.6-.1-.9-.2-1.7-.3-2.8-1.3-2.8-2.5,0-1.4,1.2-2.4,3.1-2.4.6,0,1.7,0,3.4.1,4,.1,10.6.3,18.2.3,3.6,0,8.5-.1,12.4-.3,2.9-.1,5.4-.2,6.7-.2,1.8,0,3,.9,3,2.4a2.25,2.25,0,0,1-1.8,2.3c-5.5,1.3-11.2,2.7-26.3,16.4-12,10.8-33.2,32.4-37.4,37.1,2.9,3.4,47,56,55,62.4s11.9,7.6,18.4,8.3a2.25,2.25,0,0,1,2.1,2.4,1.83,1.83,0,0,1-2.1,2H213.8l-.1-.1c-16-19.3-44.1-52.8-53.3-60.5a3.78,3.78,0,0,0-2.4-.9c-.7,0-1.9.3-2,2.4-.1,1.7-.3,9.8-.3,18.7s.3,16.9.5,20c.8,8.5,3.8,13.8,17.4,15.6,1.7.3,2.5,1.1,2.5,2.5a2.16,2.16,0,0,1-2.3,2.1c-9.1-.4-14.8-.4-26.1-.4-6.7,0-14.8.2-19.6.3-2.2.1-3.7.1-4.3.1C122,254.5,121,253.7,121,252.3Zm116.6,55.8c0,17.7-11.6,29.6-28.8,29.6-16.8,0-28.5-12.2-28.5-29.6a28.17,28.17,0,0,1,28.5-28.5C225.3,279.6,237.6,291.8,237.6,308.1ZM124.7,336a1.42,1.42,0,0,1,1.4-1.3h0c4-.4,5.8-2.7,5.8-7.3V290c0-4.7-1.9-7-5.8-7.3a1.44,1.44,0,0,1-1.5-1.3,1.18,1.18,0,0,1,1.2-1.3h21.8a1.5,1.5,0,0,1,1.6,1.5c0,.7-.5,1.2-1.5,1.3-1.9.1-6.5.8-6.5,5.7v38.8c0,4.2,1.6,5.9,11.8,5.9,9.2,0,16.1-.9,20.3-12.8a1.79,1.79,0,0,1,1.7-1.2,1.43,1.43,0,0,1,1.1.5,1.55,1.55,0,0,1,.2,1.5l-3,15.9v.2H126A1.41,1.41,0,0,1,124.7,336Zm369.6,38.6v9.7H125.5v-10H494.3Zm0-17.3v5.1H125.5V357H494.3Zm6.1-74.6c-4.1.6-5.8,2.8-5.8,7.3l-.3,47.1v.3h-3.5l-.1-.1-41.5-48.8.4,39c.1,6.2,3.7,6.8,6.5,7.3.9.2,1.4.6,1.4,1.3a1.21,1.21,0,0,1-1.3,1.3H438.4a1.16,1.16,0,0,1-1.2-1.3c0-.7.5-1.2,1.4-1.3,4.1-.6,5.8-2.8,5.8-7.3l.3-39.4c0-3.3-1.3-4.6-5.3-5.1-1.2-.2-1.4-.9-1.4-1.5a1.21,1.21,0,0,1,1.3-1.3h15.3l.1.1L490,321.7l-.7-31.6c-.1-5.2-2.1-6.5-6.5-7.3-.9-.2-1.4-.6-1.4-1.3a1.21,1.21,0,0,1,1.3-1.3h17.8a1.18,1.18,0,0,1,1.2,1.3C501.8,282,501.3,282.5,500.4,282.7Z" transform="translate(-60 -60)"/><path class="a" d="M489.2,219.7c0-2.1-.9-3.2-2.8-3.2-3.1,0-6.4,3.2-7.3,4.2a43.43,43.43,0,0,0-8.1,11.4,65.86,65.86,0,0,0,9-2.3C485.5,227.9,489.2,224,489.2,219.7Z" transform="translate(-60 -60)"/></svg>